<svg width="181" height="206" viewBox="0 0 181 206" fill="none" xmlns="http://www.w3.org/2000/svg">
<path d="M132.102 22.5232L42.8937 4.16575C35.7209 2.68972 28.7095 7.30689 27.2332 14.4785L10.808 94.2706C9.33171 101.442 13.9496 108.453 21.1224 109.929L110.33 128.286C117.503 129.762 124.515 125.145 125.991 117.973L142.416 38.1811C143.892 31.0095 139.275 23.9992 132.102 22.5232Z" fill="#AED7FF"/>
<path d="M172.866 104.432L97.7758 63.7873C91.3358 60.3014 83.2889 62.6953 79.8025 69.1342L43.5005 136.178C40.0141 142.617 42.4084 150.663 48.8484 154.149L123.938 194.794C130.378 198.279 138.425 195.886 141.912 189.447L178.213 122.403C181.7 115.964 179.306 107.918 172.866 104.432Z" fill="#8FC2FF"/>
<path d="M150.531 122.145C151.097 126.337 149.523 130.011 147.012 130.352C144.502 130.693 142.006 127.568 141.44 123.376C140.873 119.184 142.448 115.511 144.958 115.17C147.468 114.829 149.964 117.953 150.531 122.145Z" fill="#FFFEFD" stroke="#1C191B" stroke-width="2.72958" stroke-miterlimit="10"/>
<path d="M161.466 141.219C161.821 143.354 159.733 145.48 156.803 145.965C153.873 146.45 151.211 145.113 150.856 142.977C150.501 140.842 152.589 138.716 155.519 138.231C158.449 137.746 161.111 139.083 161.466 141.219Z" fill="#FFFEFD" stroke="#1C191B" stroke-width="2.72958" stroke-miterlimit="10"/>
<path d="M167.67 131.649C171.744 130.254 174.38 127.176 173.557 124.775C172.734 122.375 168.765 121.559 164.691 122.955C160.617 124.35 157.981 127.428 158.804 129.829C159.627 132.229 163.596 133.045 167.67 131.649Z" fill="#FFFEFD" stroke="#1C191B" stroke-width="2.72958" stroke-miterlimit="10"/>
<path d="M171.405 111.33C174.714 105.599 174.772 99.4387 171.534 97.5695C168.295 95.7002 162.988 98.8303 159.679 104.561C156.37 110.291 156.313 116.452 159.551 118.321C162.789 120.19 168.096 117.06 171.405 111.33Z" fill="#FFFEFD" stroke="#1C191B" stroke-width="2.72958" stroke-miterlimit="10"/>
<path d="M141.701 150.061L170.724 97.1699" stroke="#1C191B" stroke-width="2.72958" stroke-miterlimit="10"/>
<path d="M145.098 115.102L148.213 138.197" stroke="#1C191B" stroke-width="2.72958" stroke-miterlimit="10"/>
<path d="M145.027 143.997L161.467 141.221" stroke="#1C191B" stroke-width="2.72958" stroke-miterlimit="10"/>
<path d="M151.588 132.048L173.583 124.917" stroke="#1C191B" stroke-width="2.72958" stroke-miterlimit="10"/>
<path d="M160.758 115.339L169.645 113.918" stroke="#1C191B" stroke-width="2.72958" stroke-miterlimit="10"/>
<path d="M163.67 109.842L172.819 108.381" stroke="#1C191B" stroke-width="2.72958" stroke-miterlimit="10"/>
<path d="M166.994 104.01L173.93 102.904" stroke="#1C191B" stroke-width="2.72958" stroke-miterlimit="10"/>
<path d="M15.4244 150.431C14.2292 149.714 13.6869 149.536 10.1373 148.67C4.47587 147.29 2.19113 140.531 4.66787 136.152C7.14221 131.772 13.1685 130.1 17.678 131.84C22.1875 133.582 25.2018 140.243 25.2186 145.527C25.2354 150.81 25.9962 149.764 28.7561 151.096C31.516 152.428 35.1352 156.807 32.7544 161.995C30.3737 167.182 29.1353 167.888 31.0408 169.011C32.944 170.134 33.2296 172.704 30.8513 175.084C28.4705 177.465 22.965 177.297 21.2347 172.361C19.5043 167.425 18.2828 167.768 16.3796 164.716C14.4764 161.663 15.2372 158.998 16.3796 156.524C17.522 154.05 18.0092 151.981 15.4268 150.431H15.4244Z" fill="#FFFEFD" stroke="#1C191B" stroke-width="2.72958" stroke-miterlimit="10"/>
<path d="M31.421 178.96C31.421 178.96 24.5668 172.138 22.8532 164.718C21.6677 159.588 23.7868 151.051 17.679 145.529C11.5711 140.01 8.28798 138.153 7.7168 132.869" stroke="#1C191B" stroke-width="2.72958" stroke-miterlimit="10"/>
<path d="M8.17407 140.691C8.37807 141.951 7.97728 143.062 7.27889 143.175C6.58051 143.288 5.85093 142.359 5.64693 141.099C5.44294 139.839 5.84372 138.729 6.54211 138.616C7.24049 138.503 7.97008 139.432 8.17407 140.691Z" stroke="#1C191B" stroke-width="2.72958" stroke-miterlimit="10"/>
<path d="M15.4916 175.744C15.4916 175.744 14.0636 177.707 15.7772 179.883C17.4907 182.059 20.6323 180.089 22.4178 178.254C24.2034 176.418 25.5593 173.229 25.1321 172.36C24.7026 171.492 23.2746 172.063 23.2746 172.063C23.2746 172.063 24.2034 169.565 22.7034 167.993C21.2034 166.421 17.7043 167.204 17.5627 170.134C17.5627 170.134 14.3492 165.565 11.4933 168.492C8.63732 171.42 10.4229 178.563 15.4916 175.741V175.744Z" fill="#00805E" stroke="#1C191B" stroke-width="2.72958" stroke-miterlimit="10"/>
<path d="M18.6582 173.732L29.2252 180.432" stroke="#1C191B" stroke-width="2.72958" stroke-miterlimit="10"/>
<path d="M11.6761 156.378C12.2474 154.698 11.3485 152.873 9.66818 152.302C7.98789 151.731 6.16255 152.63 5.59119 154.31C5.01982 155.99 5.91879 157.815 7.59909 158.386C9.27938 158.957 11.1047 158.058 11.6761 156.378Z" fill="#FFFEFD" stroke="#1C191B" stroke-width="2.72958" stroke-miterlimit="10"/>
<path d="M12.9265 162.711C12.9265 163.105 12.6073 163.426 12.2113 163.426C11.8153 163.426 11.4961 163.107 11.4961 162.711C11.4961 162.315 11.8153 161.996 12.2113 161.996C12.6073 161.996 12.9265 162.315 12.9265 162.711Z" fill="#FFFEFD" stroke="#1C191B" stroke-width="2.72958" stroke-miterlimit="10"/>
<path d="M5.37912 167.323C5.37912 168.256 4.62313 169.012 3.68956 169.012C2.75598 169.012 2 168.256 2 167.323C2 166.39 2.75598 165.634 3.68956 165.634C4.62313 165.634 5.37912 166.39 5.37912 167.323Z" fill="#FFFEFD" stroke="#1C191B" stroke-width="2.72958" stroke-miterlimit="10"/>
<path d="M176.612 143.77H146.156V174.22H176.612V143.77Z" fill="white" stroke="#B5733C" stroke-width="2.72958" stroke-linecap="round" stroke-linejoin="round"/>
<path d="M57.6084 144.603H34.0625V180.682H57.6084V144.603Z" fill="white" stroke="#B5733C" stroke-width="2.72958" stroke-linecap="round" stroke-linejoin="round"/>
<path d="M52.5209 179.435H23.6016V201.695H52.5209V179.435Z" fill="#B5733C" stroke="white" stroke-width="2.72958" stroke-linecap="round" stroke-linejoin="round"/>
<path d="M137.689 116.134H57.6074V165.776H137.689V116.134Z" fill="#B5733C" stroke="white" stroke-width="2.72958" stroke-linecap="round" stroke-linejoin="round"/>
<path d="M102.908 165.775H46.0918V202.112H102.908V165.775Z" fill="#CC8F62" stroke="white" stroke-width="2.72958" stroke-linecap="round" stroke-linejoin="round"/>
<path d="M157.685 165.687H100.357V202.193H157.685V165.687Z" fill="#CC8F62" stroke="white" stroke-width="2.72958" stroke-linecap="round" stroke-linejoin="round"/>
<path d="M189.409 174.22H156.139V202.11H189.409V174.22Z" fill="#B5733C" stroke="white" stroke-width="2.72958" stroke-linecap="round" stroke-linejoin="round"/>
<path d="M146.158 133.79H85.5039V165.776H146.158V133.79Z" fill="#CC8F62" stroke="white" stroke-width="2.72958" stroke-linecap="round" stroke-linejoin="round"/>
<path d="M39.4375 148.695H45.8358" stroke="#B5733C" stroke-width="2.72958" stroke-linecap="round" stroke-linejoin="round"/>
<path d="M39.4375 150.999H50.314" stroke="#B5733C" stroke-width="2.72958" stroke-linecap="round" stroke-linejoin="round"/>
<path d="M52.2324 171.917H58.6307" stroke="white" stroke-width="2.72958" stroke-linecap="round" stroke-linejoin="round"/>
<path d="M52.2324 174.22H63.109" stroke="white" stroke-width="2.72958" stroke-linecap="round" stroke-linejoin="round"/>
<path d="M27.1543 180.87H33.5526" stroke="white" stroke-width="2.72958" stroke-linecap="round" stroke-linejoin="round"/>
<path d="M27.1543 183.175H38.0308" stroke="white" stroke-width="2.72958" stroke-linecap="round" stroke-linejoin="round"/>
<path d="M91.1348 138.908H97.533" stroke="white" stroke-width="2.72958" stroke-linecap="round" stroke-linejoin="round"/>
<path d="M91.1348 141.211H102.011" stroke="white" stroke-width="2.72958" stroke-linecap="round" stroke-linejoin="round"/>
<path d="M104.443 170.381H110.842" stroke="white" stroke-width="2.72958" stroke-linecap="round" stroke-linejoin="round"/>
<path d="M104.443 172.685H115.32" stroke="white" stroke-width="2.72958" stroke-linecap="round" stroke-linejoin="round"/>
<path d="M13.2266 201.921H198.531" stroke="black" stroke-width="2.72958" stroke-miterlimit="10"/>
<path d="M51.5344 206H74.0939V195.682H60.8942C60.8942 195.682 60.6278 199.473 59.5742 200.121C58.2878 200.913 52.372 202.206 51.4144 203.48C50.7304 204.392 51.5344 206 51.5344 206Z" fill="#FBBC05"/>
<path d="M122.094 202.161H127.338L142.256 192.445L136.621 183.8L125.562 191.006C125.562 191.006 126.822 193.964 126.292 195.082C125.646 196.448 121.837 198.771 121.732 200.361C121.655 201.499 122.092 202.161 122.092 202.161H122.094Z" fill="#FBBC05"/>
<path d="M102.46 39.0947C119.852 39.0947 133.971 53.2113 133.971 70.6008V96.5087C133.971 100.588 130.659 103.899 126.579 103.899H78.343C74.2631 103.899 70.9512 100.588 70.9512 96.5087V70.6008C70.9512 53.2113 85.07 39.0947 102.462 39.0947H102.46Z" fill="#4285F4"/>
<path d="M90.4141 104.019C90.4141 104.019 92.538 138.927 93.7212 148.489C95.1756 160.257 121.133 185.363 121.133 185.363L132.893 177.445C132.893 177.445 121.988 152.331 122.761 140.005C123.409 129.651 125.933 104.019 125.933 104.019H90.4141V104.019Z" fill="white" stroke="black" stroke-width="2.72958" stroke-miterlimit="10"/>
<path d="M96.8613 33.9893H104.642V40.3361C104.642 42.4837 102.9 44.2257 100.752 44.2257C98.6037 44.2257 96.8613 42.4837 96.8613 40.3361V33.9893V33.9893Z" fill="white" stroke="black" stroke-width="2.72958" stroke-linecap="round" stroke-linejoin="round"/>
<path d="M82.2934 13.5831L109.685 15.1095L109.172 24.3023C108.751 31.8587 102.272 37.6549 94.712 37.2336C87.1543 36.8125 81.3572 30.3346 81.7786 22.7758L82.291 13.583L82.2934 13.5831Z" fill="white" stroke="black" stroke-width="2.72958" stroke-linecap="round" stroke-linejoin="round"/>
<path d="M94.1989 14.457C94.1989 14.457 92.7661 15.9759 94.4053 18.0228C96.0421 20.0696 99.318 20.8878 100.139 20.8878C100.96 20.8878 101.368 18.841 102.596 18.841C103.825 18.841 105.054 19.2513 105.054 21.2981C105.054 23.345 104.235 26.6203 105.872 27.0307C107.509 27.441 109.103 27.3042 109.127 24.9167C109.148 22.5267 109.686 15.1241 109.686 15.1241L94.2013 14.4594" fill="black"/>
<path d="M81.3965 13.8705C81.7637 5.85119 88.5627 -0.351639 96.5809 0.0154918C104.602 0.382623 110.805 7.18054 110.438 15.1974L81.3965 13.8705Z" fill="#4285F4"/>
<path d="M82.927 8.00098H70.3945L70.4737 8.21214C71.5873 11.202 74.3232 13.2872 77.5032 13.5631L81.7151 13.9303C81.7151 13.9303 81.2807 12.3106 82.9318 8.00338L82.927 8.00098Z" fill="#4285F4"/>
<path d="M77.6932 104.019C77.6932 104.019 67.0614 132.715 65.2135 142.171C62.9383 153.807 59.9336 188.483 59.9336 188.483H76.2532C76.2532 188.483 90.8881 154.606 95.4528 143.131C99.2879 133.49 125.932 104.019 125.932 104.019H77.6932Z" fill="white" stroke="black" stroke-width="2.72958" stroke-miterlimit="10"/>
<path d="M72.4145 188.483H63.0547V195.682H72.4145V188.483Z" fill="white" stroke="black" stroke-width="2.72958" stroke-miterlimit="10"/>
<path d="M131.127 178.834L123.285 183.943L127.216 189.974L135.058 184.865L131.127 178.834Z" fill="white" stroke="black" stroke-width="2.72958" stroke-miterlimit="10"/>
<path d="M29.3262 60.0654L29.3406 100.541L82.6817 100.517L82.6049 60.0654H29.3262Z" fill="#D68B54" stroke="white" stroke-width="2.72958" stroke-linecap="round" stroke-linejoin="round"/>
<path d="M67.7263 72.6578H63.9895L61.0064 69.8935L57.6465 72.6578V60.065L67.7263 59.7578V72.6578Z" fill="#CC8956" stroke="white" stroke-width="2.72958" stroke-linecap="round" stroke-linejoin="round"/>
<path d="M50.5783 88.2926L32.8259 88.9525L32.5547 76.9812L50.3071 76.3213L50.5783 88.2926Z" fill="white"/>
<path d="M34.6621 80.6516L41.8571 80.1045" stroke="#B5733C" stroke-width="2.72958" stroke-linecap="round" stroke-linejoin="round"/>
<path d="M34.8184 83.9662L47.0509 83.0352" stroke="#B5733C" stroke-width="2.72958" stroke-linecap="round" stroke-linejoin="round"/>
<path d="M82.3631 60.5254H78.2832V100.144H82.3631V60.5254Z" fill="#BA7749"/>
<path d="M55.9729 102.1C59.6179 102.1 62.5727 99.1455 62.5727 95.5011C62.5727 91.8567 59.6179 88.9023 55.9729 88.9023C52.3279 88.9023 49.373 91.8567 49.373 95.5011C49.373 99.1455 52.3279 102.1 55.9729 102.1Z" fill="white" stroke="black" stroke-width="2.72958" stroke-linecap="round" stroke-linejoin="round"/>
<path d="M120.412 56.123C120.412 56.123 132.155 82.902 107.565 93.34C91.3869 100.208 78.06 100.894 70.8338 100.56C67.5506 100.409 64.9707 97.7 64.9707 94.4126C64.9707 91.8643 66.5403 89.5799 68.9234 88.6681C75.2065 86.2614 87.0118 81.3591 89.4501 77.623C92.8101 72.4784 90.8901 68.2648 95.018 59.4872" fill="#1E5DBA"/>
<path d="M120.412 56.123C120.412 56.123 132.155 82.902 107.565 93.34C91.3869 100.208 78.06 100.894 70.8338 100.56C67.5506 100.409 64.9707 97.7 64.9707 94.4126C64.9707 91.8643 66.5403 89.5799 68.9234 88.6681C75.2065 86.2614 87.0118 81.3591 89.4501 77.623C92.8101 72.4784 90.8901 68.2648 95.018 59.4872" stroke="black" stroke-width="2.72958" stroke-linecap="round" stroke-linejoin="round"/>
<path d="M68.4507 203.481C69.7762 203.481 70.8507 202.406 70.8507 201.081C70.8507 199.756 69.7762 198.682 68.4507 198.682C67.1253 198.682 66.0508 199.756 66.0508 201.081C66.0508 202.406 67.1253 203.481 68.4507 203.481Z" fill="white"/>
<path d="M135.41 192.922C136.735 192.922 137.81 191.848 137.81 190.523C137.81 189.197 136.735 188.123 135.41 188.123C134.084 188.123 133.01 189.197 133.01 190.523C133.01 191.848 134.084 192.922 135.41 192.922Z" fill="white"/>
<path d="M131.661 33.3712C131.608 32.6562 132.402 31.1276 133.813 31.2572C135.225 31.3868 135.126 32.1906 135.126 32.1906C135.126 32.1906 135.203 29.7071 136.881 29.1504C138.558 28.5937 139.679 30.2206 139.679 30.2206C139.679 30.2206 139.235 25.6567 142.499 24.992C145.763 24.3273 147.858 27.5187 147.323 30.5709C147.323 30.5709 150.819 30.1318 150.963 32.9897C151.107 35.8499 133.715 34.8061 133.715 34.8061C133.715 34.8061 131.761 34.7438 131.661 33.3712V33.3712Z" fill="#FFFEFD" stroke="#1C191B" stroke-width="2.72958" stroke-miterlimit="10"/>
<path d="M12.902 37.2932C12.902 37.2932 7.66287 37.6723 7.53807 35.9422C7.41088 34.2098 9.81802 34.3801 9.81802 34.3801C9.81802 34.3801 6.6069 32.1414 8.17166 28.4677C9.73402 24.7939 14.3395 25.8905 15.9451 27.2847C15.9451 27.2847 12.6932 21.4538 17.2122 18.3728C21.7313 15.2917 29.4208 16.981 30.3928 25.4682C30.3928 25.4682 31.0695 23.3998 33.2655 23.5246C35.4614 23.6518 34.955 26.848 34.955 26.848C34.955 26.848 36.6446 21.9193 42.0949 22.5528C47.5451 23.1863 47.2692 31.3375 45.5052 34.4209C43.7412 37.5044 37.2374 36.4893 31.6599 36.6165C26.0848 36.7437 12.9043 37.2932 12.9043 37.2932H12.902Z" fill="#FFFEFD" stroke="#1C191B" stroke-width="2.72958" stroke-miterlimit="10"/>
<path d="M105.171 21.079C105.171 19.6705 104.028 18.5283 102.62 18.5283C101.211 18.5283 100.352 20.2368 100.352 21.6453C100.352 23.0539 101.211 23.6298 102.62 23.6298C104.028 23.6298 105.171 22.4876 105.171 21.079Z" fill="white" stroke="black" stroke-width="2.72958" stroke-linecap="round" stroke-linejoin="round"/>
<path d="M103.339 20.6543C103.339 20.6543 101.848 20.6543 101.289 21.2134C100.73 21.7725 100.471 22.202 100.471 22.202" fill="white"/>
<path d="M103.339 20.6543C103.339 20.6543 101.848 20.6543 101.289 21.2134C100.73 21.7725 100.471 22.202 100.471 22.202" stroke="black" stroke-width="2.72958" stroke-linecap="round" stroke-linejoin="round"/>
<path d="M185.544 44.1523H139.585C138.724 44.1523 138.025 44.8506 138.025 45.712V47.3317C138.025 48.1931 138.724 48.8915 139.585 48.8915H185.544C186.406 48.8915 187.104 48.1931 187.104 47.3317V45.712C187.104 44.8506 186.406 44.1523 185.544 44.1523Z" fill="#FFFEFD" stroke="#1C191B" stroke-width="2.72958" stroke-miterlimit="10"/>
<path d="M142.105 47.2405C142.502 47.2405 142.825 46.9182 142.825 46.5206C142.825 46.1231 142.502 45.8008 142.105 45.8008C141.707 45.8008 141.385 46.1231 141.385 46.5206C141.385 46.9182 141.707 47.2405 142.105 47.2405Z" fill="#1C191B"/>
<path d="M145.107 47.2405C145.504 47.2405 145.827 46.9182 145.827 46.5206C145.827 46.1231 145.504 45.8008 145.107 45.8008C144.709 45.8008 144.387 46.1231 144.387 46.5206C144.387 46.9182 144.709 47.2405 145.107 47.2405Z" fill="#1C191B"/>
<path d="M148.105 47.2405C148.502 47.2405 148.825 46.9182 148.825 46.5206C148.825 46.1231 148.502 45.8008 148.105 45.8008C147.707 45.8008 147.385 46.1231 147.385 46.5206C147.385 46.9182 147.707 47.2405 148.105 47.2405Z" fill="#1C191B"/>
<path d="M185.477 48.8389H139.653C138.754 48.8389 138.025 49.5673 138.025 50.4658V75.5266C138.025 76.4251 138.754 77.1535 139.653 77.1535H185.477C186.376 77.1535 187.104 76.4251 187.104 75.5266V50.4658C187.104 49.5673 186.376 48.8389 185.477 48.8389Z" fill="white" stroke="#1C191B" stroke-width="2.72958" stroke-miterlimit="10"/>
<path d="M143.307 68.5156H152.431" stroke="#FBBC05" stroke-width="6.36902" stroke-miterlimit="10"/>
<path d="M143.307 71.1543H158.786" stroke="#FBBC05" stroke-width="6.36902" stroke-miterlimit="10"/>
<path d="M143.307 65.874H161.666" stroke="#FBBC05" stroke-width="6.36902" stroke-miterlimit="10"/>
<path d="M143.307 63.3564V72.2348" stroke="black" stroke-width="2.72958" stroke-linecap="round" stroke-linejoin="round"/>
<path d="M164.902 63.4746V72.3529" stroke="black" stroke-width="2.72958" stroke-linecap="round" stroke-linejoin="round"/>
<path d="M143.131 52.7832H152.011" stroke="black" stroke-width="2.72958" stroke-linecap="round" stroke-linejoin="round"/>
<path d="M143.131 56.1426H163.89" stroke="black" stroke-width="2.72958" stroke-linecap="round" stroke-linejoin="round"/>
<path d="M168.73 69.3556C169.052 69.3556 169.313 69.0946 169.313 68.7725C169.313 68.4505 169.052 68.1895 168.73 68.1895C168.408 68.1895 168.146 68.4505 168.146 68.7725C168.146 69.0946 168.408 69.3556 168.73 69.3556Z" fill="#00805E"/>
<path d="M174.521 67.1359C174.843 67.1359 175.104 66.8748 175.104 66.5528C175.104 66.2308 174.843 65.9697 174.521 65.9697C174.199 65.9697 173.938 66.2308 173.938 66.5528C173.938 66.8748 174.199 67.1359 174.521 67.1359Z" fill="#00805E"/>
<path d="M180.763 65.6964C181.085 65.6964 181.346 65.4354 181.346 65.1134C181.346 64.7913 181.085 64.5303 180.763 64.5303C180.441 64.5303 180.18 64.7913 180.18 65.1134C180.18 65.4354 180.441 65.6964 180.763 65.6964Z" fill="#00805E"/>
<path d="M165.264 70.7947L168.727 68.7719L171.984 69.5949L174.52 66.5523L178.168 68.1888L180.52 65.3525" stroke="#00805E" stroke-width="2.72958" stroke-miterlimit="10"/>
<path d="M175.047 74.3691L176.369 80.7543L177.579 79.1946L180.171 82.1845L182.312 79.8953L179.78 77.7549L181.431 75.5353L175.047 74.3691Z" fill="#CA3300" stroke="#1C191B" stroke-width="2.72958" stroke-miterlimit="10"/>
</svg>
