<svg width="146" height="160" viewBox="0 0 146 160" fill="none" xmlns="http://www.w3.org/2000/svg">
<path d="M63.8518 159.799L6.36035 126.606L18.2734 119.742L30.3125 126.694L46.1398 117.561L30.3125 126.694V128.415L47.6274 118.418L49.5498 119.528L33.691 128.686L47.161 136.464L63.0198 127.306L47.161 136.464V138.179L64.5073 128.163L66.4361 129.279L50.5394 138.456L64.003 146.234L70.7916 142.314L64.003 146.234V147.949L97.7881 128.447L99.1497 129.235V127.659V129.235L112.62 121.457V119.881L130.243 109.707L131.718 110.565V108.856L134.536 107.224L144.816 113.161L63.8518 159.799Z" fill="#E5E5E5"/>
<path d="M118.254 102.78L131.724 94.9897L145.194 102.768L131.718 110.559L118.254 102.78Z" fill="#FEDAA3"/>
<path d="M131.718 110.558L145.194 102.768V113.117L131.718 120.908V110.558Z" fill="#FDCE9A"/>
<path d="M118.248 102.78L131.718 110.558V120.908L118.248 113.13V102.78Z" fill="#ECBD8F"/>
<path d="M50.5322 141.878L64.0084 134.087L77.4784 141.866L64.0021 149.656L50.5322 141.878Z" fill="#FEDAA3"/>
<path d="M64.002 149.656L77.4782 141.866V152.216L64.002 160V149.656Z" fill="#FDCE9A"/>
<path d="M50.5322 141.878L64.0021 149.656V160L50.5322 152.228V141.878Z" fill="#ECBD8F"/>
<path d="M67.7148 73.4836L81.1848 65.6928L94.6547 73.471L81.1848 81.2617L67.7148 73.4836Z" fill="#FEDAA3"/>
<path d="M81.1846 81.2619L94.6545 73.4712V83.821L81.1846 91.6055V81.2619Z" fill="#FDCE9A"/>
<path d="M67.7148 73.4838L81.1848 81.2619V91.6055L67.7148 83.8336V73.4838Z" fill="#ECBD8F"/>
<path d="M0 112.581L13.4699 104.79L26.9398 112.569L13.4699 120.359L0 112.581Z" fill="#FEDAA3"/>
<path d="M13.4697 120.36L26.9396 112.569V122.919L13.4697 130.703V120.36Z" fill="#FDCE9A"/>
<path d="M0 112.581L13.4699 120.36V130.703L0 122.925V112.581Z" fill="#ECBD8F"/>
<path d="M112.619 119.741L47.1604 81.8151L33.6904 89.5932L99.1491 127.52L112.619 119.741Z" fill="#FEDAA3"/>
<path d="M99.1491 127.52L33.6904 89.5936V91.3081L99.1491 129.234V127.52Z" fill="#ECBD8F"/>
<path d="M112.619 119.742L99.1494 127.52V129.234L112.619 121.456V119.742Z" fill="#FDCE9A"/>
<path d="M145.187 101.071L79.7287 63.1452L66.2588 70.9233L131.717 108.85L145.187 101.071Z" fill="#FEDAA3"/>
<path d="M131.717 108.85L66.2588 70.9237V72.6381L131.717 110.564V108.85Z" fill="#ECBD8F"/>
<path d="M145.188 101.072L131.718 108.85V110.564L145.188 102.786V101.072Z" fill="#FDCE9A"/>
<path d="M77.4725 140.164L13.4699 103.076L0 110.854L64.0026 147.936L77.4725 140.164Z" fill="#FEDAA3"/>
<path d="M64.0026 147.935L0 110.854V112.568L64.0026 149.656V147.935Z" fill="#ECBD8F"/>
<path d="M77.4719 140.164L64.002 147.935V149.656L77.4719 141.878V140.164Z" fill="#FDCE9A"/>
<path d="M0 109.152L81.1851 62.2747L94.6551 70.0528L13.4699 116.93L0 109.152Z" fill="#FEDAA3"/>
<path d="M13.4697 116.93L94.6548 70.0532V71.7677L13.4697 118.645V116.93Z" fill="#FDCE9A"/>
<path d="M0 109.152L13.4699 116.93V118.645L0 110.866V109.152Z" fill="#ECBD8F"/>
<path d="M16.8486 118.923L98.0338 72.0466L111.504 79.8248L30.3122 126.695L16.8486 118.923Z" fill="#FEDAA3"/>
<path d="M30.3115 126.695L111.503 79.8247V81.5392L30.3115 128.416V126.695Z" fill="#FDCE9A"/>
<path d="M16.8486 118.923L30.3186 126.695V128.416L16.8486 120.638V118.923Z" fill="#ECBD8F"/>
<path d="M33.6904 128.687L114.876 81.8162L128.345 89.5943L47.1604 136.465L33.6904 128.687Z" fill="#FEDAA3"/>
<path d="M47.1611 136.465L128.346 89.5947V91.3091L47.1611 138.18V136.465Z" fill="#FDCE9A"/>
<path d="M33.6904 128.687L47.1604 136.465V138.18L33.6904 130.402V128.687Z" fill="#ECBD8F"/>
<path d="M50.5391 138.456L131.724 91.5857L145.194 99.3575L64.0027 146.234L50.5391 138.456Z" fill="#FEDAA3"/>
<path d="M64.002 146.235L145.193 99.3579V101.079L64.002 147.949V146.235Z" fill="#FDCE9A"/>
<path d="M50.5391 138.457L64.0027 146.235V147.949L50.5391 140.171V138.457Z" fill="#ECBD8F"/>
<path d="M70.7912 131.793L130.987 97.0372L70.7912 62.2814L10.5957 97.0372L70.7912 131.793Z" fill="#E09C58"/>
<path d="M70.7787 131.591L70.7913 131.598L130.59 97.075C130.672 97.0372 130.741 96.9867 130.804 96.93L130.987 97.0372L70.7913 131.793L70.6211 131.692C70.6778 131.667 70.7346 131.635 70.7787 131.591Z" fill="#8C5B2F"/>
<path d="M10.9676 97.0135C10.8857 97.045 10.81 97.0828 10.747 97.127L10.5957 97.0387L70.7912 62.2829L70.9803 62.3964C70.8605 62.4279 70.7597 62.4783 70.6715 62.5476L10.9676 97.0135Z" fill="#8C5B2F"/>
<path d="M70.791 143.732L130.987 108.977V97.0384L70.791 131.794V143.732Z" fill="#CF9051"/>
<path d="M10.5957 108.977L70.7912 143.732V131.794L10.5957 97.0384V108.977Z" fill="#A77037"/>
<path d="M70.6211 143.638L70.7913 143.732L70.9552 143.638V131.7L70.7913 131.794L70.6211 131.7V143.638Z" fill="#8C5B2F"/>
<path d="M99.042 127.42L104.664 124.174V124.18L99.042 127.42Z" fill="#FEDDB8"/>
<path d="M95.6387 117.447V117.441L100.108 114.863L95.6387 117.447ZM100.108 114.863H100.114L101.923 113.817L100.108 114.863Z" fill="#AF8D6E"/>
<path d="M95.6387 129.379V117.447L100.108 114.863L101.923 113.816L104.665 112.234V124.172L99.0424 127.419L95.6387 129.379Z" fill="#DDB286"/>
<path d="M100.107 114.863L100.189 114.718L39.8671 80.0886L39.7852 80.2336L100.107 114.863Z" fill="#8C5B2F"/>
<path d="M95.4745 117.348L95.1152 117.14L99.0421 114.87L99.5842 114.562L99.9435 114.77L95.4745 117.348ZM100.107 114.675L99.7481 114.467L104.141 111.933L104.494 112.141L100.107 114.675Z" fill="#F0CEAC"/>
<path d="M95.6385 117.441L95.4746 117.347L99.9435 114.769L100.107 114.863L95.6385 117.441ZM100.114 114.863L100.189 114.718L100.107 114.674L104.494 112.14L104.665 112.235L102.124 113.704L100.114 114.863Z" fill="#C6AD97"/>
<path d="M102.124 113.703L104.664 112.234L102.124 113.703Z" fill="#E7C8A8"/>
<path d="M100.107 114.863L99.9433 114.769L99.584 114.561L99.7479 114.466L100.107 114.674L100.189 114.718L100.113 114.863H100.107Z" fill="#C6AD97"/>
<path d="M70.7912 119.244L130.987 84.4883L70.7912 49.7388L10.5957 84.4883L70.7912 119.244Z" fill="#E09C58"/>
<path d="M70.7787 119.049L70.7913 119.055L130.59 84.5262C130.672 84.4946 130.741 84.4442 130.804 84.3875L130.987 84.4883L70.7913 119.244L70.6211 119.15C70.6778 119.118 70.7346 119.087 70.7787 119.049Z" fill="#8C5B2F"/>
<path d="M10.9676 84.4686C10.8857 84.4938 10.81 84.5316 10.747 84.582L10.5957 84.4875L70.7912 49.738L70.9803 49.8451C70.8605 49.8766 70.7597 49.9271 70.6715 49.9964L10.9676 84.4686Z" fill="#8C5B2F"/>
<path d="M70.791 131.182L130.987 96.4258V84.4876L70.791 119.243V131.182Z" fill="#CF9051"/>
<path d="M10.5957 96.4258L70.7912 131.182V119.243L10.5957 84.4876V96.4258Z" fill="#A77037"/>
<path d="M70.6211 131.087L70.7913 131.182L70.9552 131.087V119.149L70.7913 119.243L70.6211 119.149V131.087Z" fill="#8C5B2F"/>
<path d="M104.141 111.934H104.135L104.664 111.631L104.141 111.934Z" fill="#E9BA8A"/>
<path d="M99.042 114.869L99.5778 114.56H99.584L99.042 114.869ZM99.748 114.466L104.135 111.932H104.141L99.748 114.466Z" fill="#F5DDC5"/>
<path d="M99.5834 114.561H99.5771L99.7473 114.466L99.5834 114.561Z" fill="#D7C6B6"/>
<path d="M95.6387 104.898L100.108 102.32L95.6387 104.898ZM100.108 102.32L100.114 102.314L101.734 101.381L100.108 102.32Z" fill="#AF8D6E"/>
<path d="M95.6387 116.836V104.898L100.108 102.32L101.734 101.381L104.665 99.6913V111.63L104.135 111.932L99.7484 114.466L99.5782 114.56L99.0424 114.869L95.6387 116.836Z" fill="#DDB286"/>
<path d="M100.107 102.32L100.189 102.175L39.8671 67.5393L39.7852 67.6843L100.107 102.32Z" fill="#8C5B2F"/>
<path d="M95.4738 104.803L94.9443 104.494L98.7893 102.275L99.4133 101.916L99.9428 102.225L95.4738 104.803Z" fill="#F0CEAC"/>
<path d="M95.6385 104.898L95.4746 104.804L99.9435 102.226L100.107 102.32L95.6385 104.898Z" fill="#C6AD97"/>
<path d="M100.107 102.125L99.5771 101.822L103.97 99.2886L104.494 99.5974L100.107 102.125Z" fill="#F0CEAC"/>
<path d="M100.114 102.314L100.189 102.176L100.107 102.125L104.494 99.5978L104.665 99.6923L102.124 101.155L100.114 102.314Z" fill="#C6AD97"/>
<path d="M102.124 101.154L104.664 99.692L102.124 101.154Z" fill="#E7C8A8"/>
<path d="M100.107 102.32L99.9435 102.226L99.4141 101.917L99.5779 101.822L100.107 102.125L100.189 102.175L100.114 102.314L100.107 102.32Z" fill="#C6AD97"/>
<path d="M70.4514 106.701L130.653 71.9454L70.4576 37.1896L10.2559 71.9454L70.4514 106.701Z" fill="#E09C58"/>
<path d="M70.4451 106.499L70.4514 106.506L130.256 71.9832C130.338 71.9454 130.407 71.895 130.47 71.8382L130.653 71.9454L70.4514 106.701L70.2812 106.6C70.3443 106.575 70.3947 106.544 70.4451 106.499Z" fill="#8C5B2F"/>
<path d="M10.6341 71.9198C10.5521 71.9513 10.4765 71.9891 10.4134 72.0332L10.2559 71.945L70.4576 37.1892L70.6467 37.3026C70.527 37.3341 70.4198 37.3846 70.3378 37.4539L10.6341 71.9198Z" fill="#8C5B2F"/>
<path d="M70.4502 118.639L130.652 83.8829V71.9446L70.4502 106.7V118.639Z" fill="#CF9051"/>
<path d="M10.2559 83.8829L70.4514 118.639V106.7L10.2559 71.9446V83.8829Z" fill="#A77037"/>
<path d="M70.2871 118.544L70.451 118.639L70.6212 118.544V106.606L70.451 106.7L70.2871 106.606V118.544Z" fill="#8C5B2F"/>
<path d="M103.971 99.2891H103.965L104.324 99.0811V99.0874L103.971 99.2891Z" fill="#E9BA8A"/>
<path d="M98.791 102.275L99.4151 101.916L98.791 102.275ZM99.5789 101.822L103.966 99.2877H103.972L99.5789 101.822Z" fill="#F5DDC5"/>
<path d="M99.4141 101.916L99.5779 101.821L99.4141 101.916Z" fill="#D7C6B6"/>
<path d="M95.3037 92.3555V92.3492L99.7726 89.7712L95.3037 92.3555Z" fill="#AF8D6E"/>
<path d="M99.7734 89.7695L101.664 88.6791L99.7734 89.7695Z" fill="#AF8D6E"/>
<path d="M95.3037 104.287V92.3552L99.7726 89.7709L101.664 88.6804L104.324 87.1487V99.0807L103.964 99.2887L99.5773 101.823L99.4134 101.917L98.7894 102.276L95.3037 104.287Z" fill="#DDB286"/>
<path d="M99.7731 89.7695L99.8551 89.6246L39.5272 54.9948L39.4453 55.1398L99.7731 89.7695Z" fill="#8C5B2F"/>
<path d="M95.1404 92.2539L94.8252 92.0711L98.4433 89.9848L99.2879 89.4931L99.6093 89.6759L95.1404 92.2539Z" fill="#F0CEAC"/>
<path d="M95.3045 92.3477L95.1406 92.2531L99.6096 89.6751L99.7735 89.7697L95.3045 92.3477Z" fill="#C6AD97"/>
<path d="M99.7732 89.582L99.458 89.3992L103.845 86.8717L104.16 87.0482L99.7732 89.582Z" fill="#F0CEAC"/>
<path d="M99.7734 89.7695L99.8554 89.6246L99.7734 89.5804L104.16 87.0466L104.324 87.1411L101.866 88.5656L99.7734 89.7695Z" fill="#C6AD97"/>
<path d="M101.865 88.5664L104.323 87.1419L101.865 88.5664Z" fill="#E7C8A8"/>
<path d="M99.7724 89.7695L99.6085 89.675L99.2871 89.4922L99.4572 89.3976L99.7724 89.5804L99.8544 89.6246L99.7724 89.7695Z" fill="#C6AD97"/>
<path d="M70.1047 94.4023L130.306 59.6528L70.1047 24.897L9.90918 59.6528L70.1047 94.4023Z" fill="#E09C58"/>
<path d="M70.0984 94.2069L70.1048 94.2132L129.909 59.6907C129.991 59.6529 130.061 59.6024 130.124 59.5457L130.307 59.6528L70.1048 94.4023L69.9346 94.3078C69.9976 94.2763 70.048 94.2448 70.0984 94.2069Z" fill="#8C5B2F"/>
<path d="M10.2874 59.6287C10.2054 59.6603 10.1298 59.6918 10.0604 59.7422L9.90918 59.6539L70.1047 24.8982L70.3 25.0053C70.1803 25.0431 70.0731 25.0935 69.9849 25.1566L10.2874 59.6287Z" fill="#8C5B2F"/>
<path d="M70.1035 106.342L130.305 71.5923V59.6541L70.1035 94.4036V106.342Z" fill="#CF9051"/>
<path d="M9.90918 71.5923L70.1047 106.342V94.4036L9.90918 59.6541V71.5923Z" fill="#A77037"/>
<path d="M69.9404 106.247L70.1043 106.342L70.2745 106.247V94.309L70.1043 94.4036L69.9404 94.309V106.247Z" fill="#8C5B2F"/>
<path d="M103.846 86.8711V86.8648L103.978 86.7891L103.846 86.8711Z" fill="#E9BA8A"/>
<path d="M98.4434 89.9844L99.288 89.4927L98.4434 89.9844Z" fill="#F5DDC5"/>
<path d="M99.458 89.3984L103.845 86.8646V86.8709L99.458 89.3984Z" fill="#F5DDC5"/>
<path d="M99.2871 89.4922L99.4572 89.3976L99.2871 89.4922Z" fill="#D7C6B6"/>
<path d="M94.9512 80.0566L99.4264 77.4786L94.9512 80.0566ZM99.4264 77.4786L101.128 76.4953L99.4264 77.4786Z" fill="#AF8D6E"/>
<path d="M94.9512 91.9961V80.0578L99.4264 77.4798L101.128 76.4965L103.977 74.8514V86.7897L103.845 86.8653L99.458 89.3992L99.2878 89.4937L98.4432 89.9854L94.9512 91.9961Z" fill="#DDB286"/>
<path d="M99.4265 77.4785L99.5084 77.3335L39.1806 42.7038L39.0986 42.8425L99.4265 77.4785Z" fill="#8C5B2F"/>
<path d="M94.7941 79.9629L94.4033 79.736L98.3113 77.4794L98.866 77.158L99.2568 77.3849L94.7941 79.9629Z" fill="#F0CEAC"/>
<path d="M94.9515 80.0566L94.7939 79.9621L99.2567 77.3841L99.4268 77.4786L94.9515 80.0566Z" fill="#C6AD97"/>
<path d="M99.4259 77.2832L99.0352 77.0626L103.422 74.5287L103.813 74.7556L99.4259 77.2832Z" fill="#F0CEAC"/>
<path d="M99.4258 77.4727L99.5078 77.334L99.4258 77.2836L103.813 74.756L103.977 74.8505L101.518 76.2688L99.4258 77.4727Z" fill="#C6AD97"/>
<path d="M101.519 76.2695L103.977 74.8513L101.519 76.2695Z" fill="#E7C8A8"/>
<path d="M99.4262 77.4785L99.256 77.384L98.8652 77.157L99.0354 77.0625L99.4262 77.2831L99.5082 77.3335L99.4262 77.4722V77.4785Z" fill="#C6AD97"/>
<path d="M69.8771 81.9551L130.073 47.2056L69.8771 12.4498L9.68164 47.2056L69.8771 81.9551Z" fill="#E09C58"/>
<path d="M69.871 81.7597L69.8772 81.766L129.682 47.2371C129.764 47.2056 129.833 47.1552 129.896 47.0984L130.073 47.2056L69.8772 81.9551L69.707 81.8605C69.7638 81.829 69.8205 81.7975 69.871 81.7597Z" fill="#8C5B2F"/>
<path d="M10.0536 47.1795C9.97792 47.2047 9.90228 47.2425 9.83294 47.293L9.68164 47.2047L69.8771 12.4489L70.0726 12.5561C69.9528 12.5939 69.8457 12.638 69.7574 12.7074L10.0536 47.1795Z" fill="#8C5B2F"/>
<path d="M69.877 93.8926L130.072 59.1431V47.2048L69.877 81.9543V93.8926Z" fill="#CF9051"/>
<path d="M9.68164 59.1368L69.8771 93.8926V81.9543L9.68164 47.1985V59.1368Z" fill="#A77037"/>
<path d="M69.7139 93.798L69.8777 93.8926L70.0479 93.798V81.8598L69.8777 81.9543L69.7139 81.8598V93.798Z" fill="#8C5B2F"/>
<path d="M103.423 74.5293L103.751 74.3402L103.423 74.5293Z" fill="#E9BA8A"/>
<path d="M98.3105 77.4785L98.8652 77.157L98.3105 77.4785Z" fill="#F5DDC5"/>
<path d="M99.0352 77.0625L103.422 74.5286L99.0352 77.0625Z" fill="#F5DDC5"/>
<path d="M98.8652 77.1582L99.0354 77.0637L98.8652 77.1582Z" fill="#D7C6B6"/>
<path d="M94.7246 67.6074L99.1936 65.0294H99.1999L94.7246 67.6074Z" fill="#AF8D6E"/>
<path d="M99.1992 65.0312V65.0249L100.794 64.1047L99.1992 65.0312Z" fill="#AF8D6E"/>
<path d="M94.7246 79.5469V67.6086L99.1999 65.0306L100.795 64.1041L103.751 62.4022V74.3404L103.423 74.5295L99.036 77.0634L98.8658 77.158L98.3112 77.4794L94.7246 79.5469Z" fill="#DDB286"/>
<path d="M99.1999 65.0312L99.2818 64.8863L38.954 30.2502L38.8721 30.3952L99.1999 65.0312Z" fill="#8C5B2F"/>
<path d="M94.5658 67.5137L94.0615 67.2237L97.8812 65.0113L98.5242 64.6457L99.0284 64.9357L94.5658 67.5137Z" fill="#F0CEAC"/>
<path d="M94.725 67.6074L94.5674 67.5129L99.03 64.9349L99.2002 65.0294L94.725 67.6074Z" fill="#C6AD97"/>
<path d="M99.1996 64.834L98.6953 64.544L103.082 62.0165L103.587 62.3064L99.1996 64.834Z" fill="#F0CEAC"/>
<path d="M99.1992 65.0234L99.2811 64.8848L99.1992 64.8343L103.586 62.3068L103.75 62.4013L101.172 63.8889L99.1992 65.0234Z" fill="#C6AD97"/>
<path d="M101.173 63.8906L103.751 62.4031L101.173 63.8906Z" fill="#E7C8A8"/>
<path d="M99.1998 65.0312L99.0296 64.9367L98.5254 64.6467L98.6956 64.5459L99.1998 64.8358L99.2818 64.8863L99.1998 65.0249L99.1936 65.0312" fill="#C6AD97"/>
<path d="M69.423 69.5059L129.619 34.75L69.423 0.000564575L9.22754 34.75L69.423 69.5059Z" fill="#E09C58"/>
<path d="M69.4105 69.3105L69.4231 69.3168L129.221 34.7879C129.303 34.7564 129.373 34.7059 129.436 34.6492L129.619 34.75L69.4231 69.5059L69.2529 69.4113C69.3097 69.3798 69.3664 69.3483 69.4105 69.3105Z" fill="#8C5B2F"/>
<path d="M9.59945 34.7303C9.51751 34.7555 9.44187 34.7933 9.37884 34.8438L9.22754 34.7492L69.423 -0.000278473L69.6121 0.106873C69.4987 0.13839 69.3916 0.188808 69.3033 0.258144L9.59945 34.7303Z" fill="#8C5B2F"/>
<path d="M69.4238 81.4434L129.619 46.6876V34.7493L69.4238 69.5051V81.4434Z" fill="#CF9051"/>
<path d="M9.22754 46.6876L69.423 81.4434V69.5051L9.22754 34.7493V46.6876Z" fill="#A77037"/>
<path d="M69.2598 81.3488L69.4236 81.4434L69.5875 81.3488V69.4106L69.4236 69.5051L69.2598 69.4106V81.3488Z" fill="#8C5B2F"/>
<path d="M103.082 62.0176V62.0113L103.296 61.8915L103.082 62.0176Z" fill="#E9BA8A"/>
<path d="M97.8818 65.0117L98.5248 64.6461L97.8818 65.0117ZM98.695 64.5453L103.082 62.0114V62.0177L98.695 64.5453Z" fill="#F5DDC5"/>
<path d="M98.5254 64.6465L98.6956 64.5456L98.5254 64.6465Z" fill="#D7C6B6"/>
<path d="M94.2695 55.1602L98.7385 52.5822H98.7448L94.2695 55.1602ZM98.7448 52.5822V52.5758L100.491 51.5736L98.7448 52.5822Z" fill="#AF8D6E"/>
<path d="M94.2695 67.0977V55.1594L98.7385 52.5814H98.7448L100.491 51.5729L103.296 49.953V61.8912L103.081 62.011L98.6944 64.5449L98.5242 64.6457L97.8812 65.0113L94.2695 67.0977Z" fill="#DDB286"/>
<path d="M98.7458 52.582L98.8277 52.4371L38.4999 17.801L38.418 17.946L98.7458 52.582Z" fill="#8C5B2F"/>
<path d="M34.0815 20.4043H34.0752L38.4559 17.8767L34.0815 20.4043Z" fill="white"/>
<path d="M94.1128 55.0645L34.2451 20.4978L38.5439 18.0206L98.5755 52.4865L94.1128 55.0645Z" fill="#F0CEAC"/>
<path d="M94.2709 55.1602L94.1133 55.0656L98.5759 52.4876L98.7461 52.5822L94.2709 55.1602Z" fill="#C6AD97"/>
<path d="M34.2449 20.498L34.0811 20.4035L38.4554 17.8759L38.4176 17.9453L38.5437 18.0209L34.2449 20.498Z" fill="#C6AD97"/>
<path d="M38.5444 17.8262H38.5381L40.5803 16.6538L38.5444 17.8262Z" fill="white"/>
<path d="M98.7459 52.3867L38.708 17.9272L43.2652 15.2924L103.127 49.8591L98.7459 52.3867Z" fill="#F0CEAC"/>
<path d="M98.7461 52.5762L98.828 52.4375L98.7461 52.3871L103.127 49.8595L103.297 49.9541L100.687 51.4605L98.7461 52.5762Z" fill="#C6AD97"/>
<path d="M38.7078 17.9258L38.5439 17.8249L40.5799 16.6525L43.1011 15.1965L43.265 15.291L38.7078 17.9258Z" fill="#C6AD97"/>
<path d="M100.687 51.459L103.296 49.9525L100.687 51.459Z" fill="#E7C8A8"/>
<path d="M98.7458 52.582L98.5756 52.4875L38.544 18.0216L38.418 17.946L38.4558 17.8766L38.5377 17.8262H38.544L38.7079 17.9271L98.7458 52.3866L98.8277 52.4371L98.7458 52.5757L98.7395 52.582" fill="#C6AD97"/>
</svg>
