<svg width="55" height="56" viewBox="0 0 55 56" fill="none" xmlns="http://www.w3.org/2000/svg">
<circle cx="27.5" cy="28.2461" r="27.5" fill="#FF9D00"/>
<path d="M13.75 40.9961H41.25" stroke="white" stroke-width="1.67626" stroke-miterlimit="10" stroke-linecap="round" stroke-linejoin="round"/>
<path d="M15.0566 40.9968L15.1254 24.4555C15.1254 23.6168 15.5241 22.8194 16.1841 22.2969L25.8091 14.8031C26.7991 14.0331 28.1879 14.0331 29.1916 14.8031L38.8167 22.2831C39.4904 22.8056 39.8754 23.603 39.8754 24.4555V40.9968" fill="#ED5F07"/>
<path d="M15.0566 40.9968L15.1254 24.4555C15.1254 23.6168 15.5241 22.8194 16.1841 22.2969L25.8091 14.8031C26.7991 14.0331 28.1879 14.0331 29.1916 14.8031L38.8166 22.2831C39.4904 22.8056 39.8754 23.603 39.8754 24.4555V40.9968" stroke="white" stroke-width="1.67626" stroke-miterlimit="10" stroke-linejoin="round"/>
<path d="M32.3125 25.8711H22.6875C21.5462 25.8711 20.625 26.7923 20.625 27.9336V40.9961H34.375V27.9336C34.375 26.7923 33.4537 25.8711 32.3125 25.8711Z" fill="#FE773B" stroke="white" stroke-width="1.67626" stroke-miterlimit="10" stroke-linecap="round" stroke-linejoin="round"/>
<path d="M24.749 33.0898V35.1523" stroke="white" stroke-width="1.67626" stroke-miterlimit="10" stroke-linecap="round" stroke-linejoin="round"/>
<path d="M25.4375 21.0586H29.5625" stroke="white" stroke-width="1.67626" stroke-miterlimit="10" stroke-linecap="round" stroke-linejoin="round"/>
</svg>
