<svg width="158" height="116" viewBox="0 0 158 116" fill="none" xmlns="http://www.w3.org/2000/svg">
<ellipse cx="79" cy="71" rx="79" ry="45" fill="#E2E2E2"/>
<path d="M18 47.3242L19.1485 48.73C19.4203 49.0642 19.8569 49.2034 20.278 49.1065C21.8999 48.73 23.6499 48.5306 25.4066 48.5239C27.161 48.5195 28.9132 48.7178 30.544 49.0898C30.9718 49.1867 31.4129 49.0397 31.6847 48.6944L32.7753 47.3031C30.4583 46.6904 27.9163 46.364 25.3743 46.3696C22.8334 46.3785 20.3003 46.7038 18 47.3242Z" fill="url(#paint0_linear_2037_20788)"/>
<path d="M38.1875 65.8537L42.3079 62.6745L56.9239 72.9518L92.0609 96.9572L96.6358 94.2067L108.83 101.947L103.186 86.2786L38.3646 54.0927L38.1875 65.8537Z" fill="#0B0E16"/>
<path d="M110.768 101.733C110.768 97.7478 107.952 92.893 104.479 90.8879C102.748 89.8888 101.181 89.7861 100.045 90.4293H100.044L100.017 90.4444L96.0469 92.738V95.814L104.964 108.055L108.688 105.893C108.864 105.812 109.03 105.715 109.188 105.602L109.189 105.601C110.172 104.895 110.768 103.566 110.768 101.733Z" fill="#1A1C26"/>
<path d="M56.4375 70.3662C56.4375 66.3819 53.6237 61.5262 50.1515 59.5223C48.3146 58.4618 46.6627 58.4117 45.5142 59.1881L41.582 61.4627L44.2443 65.8026C44.9394 68.3881 46.529 70.9937 48.5029 72.7482L50.8455 76.5664L54.2976 74.5526C54.5215 74.4569 54.7298 74.3355 54.9237 74.1885C55.8672 73.4709 56.4375 72.1599 56.4375 70.3662Z" fill="#1A1C26"/>
<path d="M140 92.2433L113.512 103.857L109.083 102.338L106.314 100.741L134.555 84.4357L138.898 86.942L140 88.5643V92.2433Z" fill="#5B535A"/>
<path d="M26.1664 58.1387L21.8555 55.6501L26.9784 52.6926L31.2894 55.1823L26.1664 58.1387Z" fill="#5B535A"/>
<path d="M112.352 92.04V103.145L107.61 100.407C106.367 96.3821 103.502 92.7228 100.164 90.7955C95.6877 88.2113 95.074 91.2189 92.5565 95.7046C92.3538 96.0646 92.063 96.9569 92.063 96.9569L54.3607 75.1895C54.3696 74.706 54.3729 74.1956 54.3729 73.6587C54.3729 68.5224 50.7437 62.2632 46.2668 59.6789C41.7921 57.0946 38.1629 59.1631 38.1629 64.3006C38.1629 64.842 38.1718 65.36 38.1896 65.8534L26.168 58.9125V16.2063L99.6267 58.6173L103.957 81.8396L112.352 92.04Z" fill="#D1C7C2"/>
<path d="M79.0812 76.582L26.6191 46.293V44.7714L27.292 44.0006L79.0812 75.0604L79.754 75.8114L79.0812 76.582Z" fill="#C2BCAE"/>
<path d="M106.883 103.975C106.883 107.96 104.069 109.565 100.597 107.561C97.1246 105.556 94.3086 100.7 94.3086 96.7158C94.3086 92.7313 97.1246 91.1261 100.597 93.1312C104.069 95.1363 106.883 99.9906 106.883 103.975Z" fill="#2D2F3B"/>
<path d="M106.492 103.902C106.492 107.736 103.784 109.279 100.443 107.351C97.1025 105.423 94.3945 100.752 94.3945 96.919C94.3945 93.0859 97.1025 91.5421 100.443 93.4701C103.784 95.3995 106.492 100.069 106.492 103.902Z" fill="#232530"/>
<path d="M52.5546 72.6084C52.5546 76.5929 49.7408 78.1981 46.2664 76.193C42.7943 74.1888 39.9805 69.3332 39.9805 65.3476C39.9805 61.3642 42.7943 59.759 46.2664 61.7641C49.7408 63.7692 52.5546 68.6239 52.5546 72.6084Z" fill="#2D2F3B"/>
<path d="M51.9255 72.5357C51.9255 76.3688 49.2175 77.9126 45.8768 75.9833C42.5361 74.0552 39.8281 69.3858 39.8281 65.5526C39.8281 61.7195 42.5361 60.1756 45.8768 62.1038C49.2175 64.032 51.9255 68.7027 51.9255 72.5357Z" fill="#232530"/>
<path d="M50.5179 71.5894C50.5179 74.3573 48.5618 75.4725 46.149 74.0801C43.7373 72.6864 41.7812 69.3136 41.7812 66.5454C41.7812 63.7761 43.7373 62.6611 46.149 64.0546C48.5618 65.447 50.5179 68.821 50.5179 71.5894Z" fill="#434450"/>
<path d="M47.5527 72.1468C45.6913 71.0728 44.1819 68.4699 44.1819 66.3333C44.1819 65.4699 44.4281 64.8161 44.8447 64.4128C43.587 64.3159 42.707 65.2472 42.707 66.9236C42.707 69.1791 44.301 71.9297 46.266 73.0635C47.6997 73.8912 48.9339 73.6328 49.4987 72.5588C48.9495 72.6894 48.2778 72.5657 47.5527 72.1468Z" fill="#A9AA9B"/>
<path d="M49.786 70.3764C49.4117 70.9203 48.6999 71.0225 47.8856 70.5512C46.6792 69.8542 45.7012 68.169 45.7012 66.7852C45.7012 65.8551 46.1412 65.2981 46.7973 65.2447C48.3323 66.3931 49.5476 68.4818 49.786 70.3764Z" fill="#8D8B75"/>
<path d="M46.2664 65.4274L44.6289 66.3754L47.8549 71.6152L49.4701 70.6828L48.3673 68.0472L46.2664 65.4274Z" fill="#8D8B75"/>
<path d="M48.4498 70.24C48.4498 71.6245 47.4718 72.1814 46.2654 71.4852C45.0601 70.789 44.082 69.1025 44.082 67.7178C44.082 66.3343 45.0601 65.7762 46.2654 66.4724C47.4718 67.1697 48.4498 68.8562 48.4498 70.24Z" fill="#A9AA9B"/>
<path d="M48.2386 70.2058C48.2386 71.5291 47.304 72.063 46.15 71.3967C44.9971 70.7319 44.0625 69.1188 44.0625 67.7943C44.0625 66.4709 44.9971 65.9384 46.15 66.6046C47.304 67.2707 48.2386 68.8826 48.2386 70.2058Z" fill="#CCCABC"/>
<path d="M104.848 102.956C104.848 105.725 102.892 106.84 100.479 105.446C98.0674 104.054 96.1113 100.68 96.1113 97.9118C96.1113 95.1438 98.0674 94.0286 100.479 95.421C102.892 96.8148 104.848 100.188 104.848 102.956Z" fill="#434450"/>
<path d="M104.554 102.631C104.554 105.14 102.781 106.15 100.596 104.888C98.409 103.626 96.6367 100.569 96.6367 98.061C96.6367 95.552 98.409 94.543 100.596 95.8039C102.781 97.0671 104.554 100.123 104.554 102.631Z" fill="#B8B8AE"/>
<path d="M104.059 102.344C104.059 104.54 102.51 105.423 100.597 104.319C98.6834 103.215 97.1328 100.541 97.1328 98.3468C97.1328 96.1511 98.6834 95.2678 100.597 96.3717C102.51 97.4765 104.059 100.15 104.059 102.344Z" fill="#A9AA9B"/>
<path d="M103.63 102.099C103.63 104.023 102.272 104.797 100.595 103.829C98.9187 102.861 97.5586 100.517 97.5586 98.5934C97.5586 96.671 98.9187 95.8955 100.595 96.8638C102.272 97.8315 103.63 100.175 103.63 102.099Z" fill="#CCCABC"/>
<path d="M102.157 101.622C102.157 102.772 101.344 103.236 100.342 102.657C99.3405 102.078 98.5273 100.678 98.5273 99.5283C98.5273 98.3777 99.3405 97.9152 100.342 98.4934C101.344 99.0714 102.157 100.473 102.157 101.622Z" fill="#BFBDAE"/>
<path d="M101.722 101.508C101.722 102.521 101.006 102.929 100.124 102.419C99.2417 101.91 98.5254 100.675 98.5254 99.6628C98.5254 98.6502 99.2417 98.2425 100.124 98.7517C101.006 99.2621 101.722 100.495 101.722 101.508Z" fill="#D5D7D2"/>
<path d="M100.993 101.087C100.993 101.637 100.606 101.859 100.126 101.582C99.6466 101.305 99.2578 100.635 99.2578 100.086C99.2578 99.5353 99.6466 99.3138 100.126 99.5896C100.606 99.8672 100.993 100.536 100.993 101.087Z" fill="#A9AA9B"/>
<path d="M113.512 107.535L108.928 107.03L106.807 105.805L106.314 100.74L109.083 102.338L113.512 103.857V107.535Z" fill="#3B3237"/>
<path d="M99.1376 57.002L26.7751 15.2237L26.168 16.2062L99.6267 58.6172L99.1376 57.002Z" fill="#F0EDE7"/>
<path d="M79.2619 74.5762L26.7988 44.286L27.2912 44.0019L79.7532 74.2911L79.2619 74.5762Z" fill="#5B535A"/>
<path d="M80.4609 88.7213V54.8511L95.5849 63.5844V85.198L90.61 94.582L80.4609 88.7213Z" fill="#C5BBB7"/>
<path d="M99.9547 63.3261L96.5449 61.3578V80.6521L101.594 83.5684L103.023 81.2439L99.9547 63.3261Z" fill="#232530"/>
<path d="M97 80.3925V62.1417L99.6044 63.6444L102.539 80.9016L101.32 82.8867L97 80.3925Z" fill="#473134"/>
<path d="M26.1664 58.139L21.8555 55.6505V56.4225L26.1664 58.9121V58.139Z" fill="#3B3237"/>
<path d="M110.993 96.0781L109.188 95.0368V92.9647L110.993 94.0073V96.0781Z" fill="#434450"/>
<path d="M110.842 95.8145L108.859 93.8472L109.343 93.2289L110.842 94.0944V95.8145Z" fill="#F68A2F"/>
<path d="M110.065 95.9258L108.859 95.2296V93.8472L110.065 94.5422V95.9258Z" fill="#E1622E"/>
<path d="M30.0491 50.8147C30.0491 51.4552 29.5969 51.7125 29.0388 51.3906C28.4807 51.0686 28.0273 50.2889 28.0273 49.6484C28.0273 49.0079 28.4807 48.7505 29.0388 49.0725C29.5969 49.3944 30.0491 50.1741 30.0491 50.8147Z" fill="#434450"/>
<path d="M29.839 50.6933C29.839 51.2002 29.4803 51.4051 29.0392 51.15C28.597 50.895 28.2383 50.2767 28.2383 49.7699C28.2383 49.263 28.597 49.0592 29.0392 49.3143C29.4803 49.5694 29.839 50.1865 29.839 50.6933Z" fill="#DD3435"/>
<path d="M28.4147 49.2946C28.4147 49.2946 28.0527 49.6656 27.9769 49.8516C27.9023 50.0376 28.8302 51.3376 28.8302 51.3376C28.8302 51.3376 29.3036 51.3499 29.5944 51.2117C29.8851 51.0725 28.4147 49.2946 28.4147 49.2946Z" fill="#DD3435"/>
<path d="M29.1483 50.8928C29.1483 51.2916 28.8664 51.452 28.52 51.2515C28.1724 51.051 27.8906 50.5664 27.8906 50.1677C27.8906 49.7689 28.1724 49.6084 28.52 49.809C28.8664 50.0095 29.1483 50.4952 29.1483 50.8928Z" fill="#F14638"/>
<path d="M57.7602 70.5885C57.7602 71.0233 57.4528 71.1991 57.0741 70.9798C56.6953 70.7613 56.3867 70.2313 56.3867 69.7958C56.3867 69.3611 56.6953 69.1853 57.0741 69.4045C57.4528 69.623 57.7602 70.1543 57.7602 70.5885Z" fill="#9195BB"/>
<path d="M78.3411 82.4722C78.3411 82.9065 78.0337 83.0814 77.655 82.863C77.2751 82.6436 76.9688 82.1145 76.9688 81.6789C76.9688 81.2447 77.2751 81.0685 77.655 81.2882C78.0337 81.5062 78.3411 82.0366 78.3411 82.4722Z" fill="#9195BB"/>
<path d="M57.6106 70.655C57.6106 71.0896 57.3032 71.2655 56.9244 71.0462C56.5446 70.8277 56.2383 70.2977 56.2383 69.8622C56.2383 69.4275 56.5446 69.2516 56.9244 69.471C57.3032 69.6903 57.6106 70.2199 57.6106 70.655Z" fill="#F7ECE4"/>
<path d="M78.1938 82.5379C78.1938 82.9721 77.8852 83.1484 77.5065 82.9291C77.1277 82.7107 76.8203 82.1793 76.8203 81.7447C76.8203 81.3104 77.1277 81.1341 77.5065 81.3539C77.8852 81.5719 78.1938 82.1024 78.1938 82.5379Z" fill="#F7ECE4"/>
<path d="M78.0871 82.4771C78.0871 82.8457 77.8253 82.9941 77.5045 82.8091C77.1825 82.6229 76.9219 82.1729 76.9219 81.804C76.9219 81.4346 77.1825 81.2862 77.5045 81.4723C77.8253 81.6581 78.0871 82.1073 78.0871 82.4771Z" fill="#E1622E"/>
<path d="M30.5865 20.4375L28.2383 19.0818V18.0381L30.5865 19.3949V20.4375Z" fill="#C2BCAE"/>
<path d="M30.378 20.1328L28.4453 19.0178V18.2458L30.378 19.362V20.1328Z" fill="#E1622E"/>
<path d="M59.8571 37.3359L57.5078 35.9792V34.9365L59.8571 36.2922V37.3359Z" fill="#C2BCAE"/>
<path d="M59.6475 37.0312L57.7148 35.9162V35.1442L59.6475 36.2593V37.0312Z" fill="#E1622E"/>
<path d="M96.7603 58.6426L94.4121 57.2869V56.2443L96.7603 57.5999V58.6426Z" fill="#C2BCAE"/>
<path d="M96.5507 58.3379L94.6191 57.2217V56.4498L96.5507 57.5659V58.3379Z" fill="#E1622E"/>
<path d="M91.7527 77.8866L83.6232 73.1936C82.761 72.6959 82.0625 71.3622 82.0625 70.2139V59.1459C82.0625 57.9974 82.761 57.4705 83.6232 57.9673L91.7527 62.6615C92.6137 63.1583 93.3122 64.4928 93.3122 65.6401V76.7082C93.3122 77.8566 92.6137 78.3848 91.7527 77.8866Z" fill="#F5691E"/>
<path d="M82.5195 70.5611V59.3237C82.5195 58.5094 83.0153 58.1363 83.6257 58.4883L91.7552 63.1824C92.3656 63.5344 92.8602 64.4801 92.8602 65.2933V76.5307C92.8602 77.344 92.3656 77.717 91.7552 77.3662L83.6257 72.6707C83.0153 72.3192 82.5195 71.3744 82.5195 70.5611Z" fill="#D1C7C2"/>
<path d="M86.1284 87.3266L83.6232 85.8798C82.761 85.3829 82.0625 84.0484 82.0625 82.9V75.853C82.0625 74.7048 82.761 74.1769 83.6232 74.6734L86.1284 76.1207C86.9894 76.6184 87.6879 77.9517 87.6879 79.1005V86.1482C87.6879 87.2966 86.9894 87.8235 86.1284 87.3266Z" fill="#F5691E"/>
<path d="M82.5195 83.2474V76.0299C82.5195 75.2171 83.0153 74.8424 83.6257 75.1944L86.1309 76.6417C86.7402 76.9946 87.236 77.9393 87.236 78.7526V85.9697C87.236 86.7829 86.7402 87.1571 86.1309 86.8051L83.6257 85.3582C83.0153 85.0062 82.5195 84.0603 82.5195 83.2474Z" fill="#D1C7C2"/>
<path d="M102.329 100.315C102.137 99.7332 101.966 99.4312 101.564 98.96C101.421 98.7916 101.33 98.5601 101.375 98.4186C101.419 98.2773 101.626 98.3181 101.816 98.54C102.231 99.01 102.648 99.7462 102.831 100.338C102.921 100.612 102.845 100.802 102.698 100.762C102.55 100.721 102.397 100.521 102.329 100.315Z" fill="#434450"/>
<path d="M101.495 102.853C101.905 102.868 102.081 102.776 102.289 102.435C102.364 102.314 102.52 102.299 102.667 102.435C102.813 102.571 102.881 102.847 102.781 103.008C102.582 103.368 102.148 103.595 101.726 103.561C101.533 103.553 101.329 103.349 101.29 103.157C101.251 102.965 101.349 102.847 101.495 102.853Z" fill="#434450"/>
<path d="M99.6964 97.8397C99.2876 97.8228 99.1105 97.9164 98.9011 98.2575C98.8276 98.3776 98.6705 98.3933 98.5245 98.2575C98.3797 98.1205 98.3107 97.845 98.4098 97.6848C98.6103 97.3237 99.0425 97.0965 99.4658 97.1301C99.6597 97.1379 99.8635 97.3415 99.9025 97.5343C99.9404 97.7262 99.8423 97.845 99.6964 97.8397Z" fill="#434450"/>
<path d="M99.5154 101.967C99.0999 101.497 98.6844 100.76 98.5006 100.169L98.4683 99.9332C98.3402 99.9254 98.2789 100.099 98.3625 100.353C98.5463 100.944 98.9618 101.682 99.3773 102.151C99.5667 102.373 99.7739 102.415 99.8184 102.273L99.8084 102.163C99.7237 102.15 99.619 102.088 99.5154 101.967Z" fill="#A9AA9B"/>
<path d="M102.836 100.578C102.688 100.537 102.535 100.336 102.467 100.13C102.275 99.5488 102.104 99.2482 101.702 98.7756C101.59 98.6442 101.531 98.4806 101.524 98.3443L101.375 98.4192C101.33 98.5606 101.421 98.7921 101.564 98.9605C101.966 99.4317 102.137 99.7337 102.329 100.315C102.397 100.521 102.55 100.721 102.698 100.763C102.795 100.789 102.856 100.708 102.863 100.575L102.836 100.578Z" fill="#A9AA9B"/>
<path d="M101.866 103.377C101.672 103.37 101.468 103.164 101.429 102.973L101.444 102.876C101.334 102.901 101.258 102.994 101.291 103.157C101.33 103.349 101.534 103.553 101.728 103.561C102.149 103.595 102.583 103.368 102.783 103.008L102.787 102.995C102.561 103.25 102.214 103.405 101.866 103.377Z" fill="#A9AA9B"/>
<path d="M98.6638 98.0726C98.5212 97.9399 98.4544 97.6735 98.5446 97.5121L98.4098 97.6836C98.3107 97.845 98.3797 98.1212 98.5245 98.2575C98.6705 98.3933 98.8276 98.3776 98.9011 98.2575L99.028 98.0847C98.9489 98.1918 98.803 98.2018 98.6638 98.0726Z" fill="#A9AA9B"/>
<path d="M99.8344 97.6559C99.4401 97.6402 99.2619 97.7317 99.0625 98.041C99.2185 97.8774 99.3933 97.8287 99.6952 97.8408C99.811 97.8452 99.8734 97.756 99.8868 97.6324L99.8344 97.6559Z" fill="#A9AA9B"/>
<path d="M102.596 92.4883H102.354L102.362 85.514L103.844 81.7954L104.07 81.8846L102.596 85.5819V92.4883Z" fill="#BDB9AB"/>
<path d="M112.263 93.9531L103.125 83.7805L103.305 83.6182L112.442 93.7908L112.263 93.9531Z" fill="#BDB9AB"/>
<path d="M138.718 76.8156L112.352 92.04V103.145L138.718 87.9206V76.8156Z" fill="#F4E3DA"/>
<path d="M133.017 80.6777L118.055 89.3172V100.277L133.017 91.6386V80.6777Z" fill="#F4E3DA"/>
<path d="M132.258 82.4801L118.811 90.2433V92.9746L132.258 85.2106V82.4801Z" fill="#464044"/>
<path d="M112.353 92.0391L138.72 76.8146L130.325 66.6144L103.957 81.8386L112.353 92.0391Z" fill="#F4E3DA"/>
<path d="M103.957 81.8386L112.417 91.5378L117.371 88.8543L138.359 76.6711L130.325 66.6144L138.72 76.8146L112.353 92.0391L103.957 81.8386Z" fill="#F9F7F2"/>
<path d="M99.627 58.6176L125.995 43.3945L130.325 66.6157L103.957 81.8398L99.627 58.6176Z" fill="#F4E3DA"/>
<path d="M117.395 72.6535L117.491 73.1026L104.337 80.6973L101.234 62.8665L114.311 55.3162L114.407 55.7662L117.395 72.6535Z" fill="#464044"/>
<path d="M116.996 72.883L112.215 75.6434L104.644 80.0156L103.956 76.0246L101.809 63.5606L101.727 63.0861L109.037 58.8654L114.008 55.997L115.933 66.8701L116.325 69.0855L116.996 72.883Z" fill="#A37173"/>
<path d="M129.582 66.1211L117.98 72.8203L117.884 72.3703L114.897 55.483L114.801 55.0329L126.48 48.2903L129.582 66.1211Z" fill="#464044"/>
<path d="M129.091 65.9015L125.129 68.1884L119.745 71.296L118.284 72.1406L117.719 68.9446L117.615 68.3619L115.634 57.1637L115.295 55.2533L122.032 51.3646L126.176 48.9718L127.725 57.9747L128.94 65.0203L129.091 65.9015Z" fill="#A37173"/>
<path d="M99.6258 58.6172L125.994 43.3941L125.505 41.7789L99.1367 57.002L99.6258 58.6172Z" fill="#F0EDE7"/>
<path d="M125.506 41.7789L53.1434 0.000617981L26.7754 15.2237L99.1379 57.002L125.506 41.7789Z" fill="#F9EDE2"/>
<path d="M140 88.5639L113.512 103.857V107.535L140 92.2429V88.5639Z" fill="#464044"/>
<path d="M110.842 94.0944L110.064 94.5422V95.9258L110.842 95.8144V94.0944Z" fill="#E06727"/>
<path d="M117.531 89.0487V100.155L118.055 100.277V89.3172L117.531 89.0487Z" fill="#D7D1C6"/>
<path d="M79.2619 76.0957L26.7988 45.8068V44.2852L79.2619 74.5754V76.0957Z" fill="#3B3237"/>
<path d="M133.682 80.7891L136.466 79.4732C136.739 79.3162 136.959 79.4424 136.959 79.7553V85.562C136.959 85.8754 136.739 86.2575 136.466 86.4145L133.682 88.0218C133.409 88.1798 133.188 88.0532 133.188 87.7399V81.9339C133.188 81.6198 133.409 80.9471 133.682 80.7891Z" fill="#A79E8D"/>
<path d="M137.319 79.0651L137.036 78.9007L137.03 78.8971L137.028 78.895V78.8959C136.939 78.8471 136.817 78.8558 136.683 78.9329L133.899 80.5411C133.626 80.6981 133.404 81.0807 133.404 81.3935V87.2003C133.404 87.3466 133.453 87.4509 133.532 87.5059V87.5066L133.567 87.5258L133.841 87.6816L133.929 87.4653L136.683 85.8749C136.956 85.7165 137.178 85.3345 137.178 85.0217V79.415L137.319 79.0651Z" fill="#2D2F3B"/>
<path d="M134.157 80.6908L136.942 79.0834C137.215 78.9254 137.435 79.0512 137.435 79.3655V85.1714C137.435 85.4842 137.215 85.8663 136.942 86.0247L134.157 87.6308C133.884 87.7892 133.662 87.6634 133.662 87.3492V81.5432C133.662 81.2304 133.884 80.8479 134.157 80.6908Z" fill="#4E505C"/>
<path d="M134.298 81.0282L136.802 79.5823C136.987 79.4757 137.139 79.5601 137.139 79.7706V85.1097C137.139 85.3212 136.987 85.5788 136.802 85.6859L134.298 87.1313C134.113 87.2384 133.963 87.1539 133.963 86.9434V81.6043C133.963 81.3924 134.113 81.1352 134.298 81.0282Z" fill="#C6C3D9"/>
<path d="M134.989 81.4331L137.387 80.0498C137.564 79.9471 137.708 80.0276 137.708 80.2303V85.3432C137.708 85.5446 137.564 85.7931 137.387 85.8945L134.989 87.2804C134.812 87.3817 134.668 87.3017 134.668 87.0989V81.9857C134.668 81.7842 134.812 81.5371 134.989 81.4331Z" fill="#F0EDE7"/>
<path d="M134.138 87.0312C134.112 86.9934 134.098 86.9411 134.098 86.8776V81.7644C134.098 81.5629 134.242 81.3157 134.42 81.213L136.817 79.8285C136.869 79.7984 136.919 79.7841 136.963 79.7841C136.967 79.7841 136.972 79.7841 136.975 79.7841L136.722 80.4312L134.987 81.4324C134.809 81.5364 134.666 81.7835 134.666 81.985V85.6823L134.138 87.0312Z" fill="#B6C2D4"/>
<path d="M134.278 87.1035C134.22 87.1035 134.172 87.0792 134.141 87.0322L134.669 85.6832V86.9174L134.422 87.0587C134.37 87.0893 134.321 87.1035 134.278 87.1035ZM136.725 80.4321L136.978 79.7851C137.076 79.7916 137.143 79.8729 137.143 80.0101V80.1915L136.725 80.4321Z" fill="#B6C2D4"/>
<path d="M134.193 89.6074L137.801 87.5245V86.4348L134.193 88.5179V89.6074Z" fill="#E06727"/>
<path d="M117.046 90.7897L116.765 90.6253L116.759 90.6205L116.756 90.6196C116.667 90.5717 116.545 90.5804 116.411 90.6575L113.627 92.2648C113.354 92.4227 113.133 92.8039 113.133 93.1181V98.9241C113.133 99.0698 113.182 99.1756 113.261 99.2305L113.262 99.2313L113.295 99.2504L113.568 99.4062L113.656 99.189L116.411 97.5982C116.684 97.4411 116.906 97.0591 116.906 96.7463V91.1387L117.046 90.7897Z" fill="#2D2F3B"/>
<path d="M113.888 92.4145L116.672 90.8071C116.945 90.6501 117.166 90.7758 117.166 91.0887V96.896C117.166 97.2088 116.945 97.5909 116.672 97.748L113.888 99.3554C113.614 99.5138 113.393 99.388 113.393 99.0738V93.2678C113.393 92.955 113.614 92.5725 113.888 92.4145Z" fill="#4E505C"/>
<path d="M114.717 93.1564L117.116 91.7718C117.293 91.6695 117.436 91.7509 117.436 91.9537V97.0665C117.436 97.2679 117.293 97.5156 117.116 97.6178L114.717 99.0025C114.539 99.1051 114.396 99.0237 114.396 98.8222V93.709C114.396 93.5063 114.539 93.2591 114.717 93.1564Z" fill="#F0EDE7"/>
<path d="M134.193 89.1895V88.5176L137.429 86.6496V87.3202L134.193 89.1895Z" fill="#D6621C"/>
<path d="M134.192 88.5176L133.83 88.3083L137.428 86.2304V86.6495L134.192 88.5176Z" fill="#F6821E"/>
<path d="M133.831 89.3965L133.822 89.3912V88.3131L133.831 88.3074L134.193 88.5167V89.1885L133.831 89.3965Z" fill="#D65E1E"/>
<path d="M113.922 100.912V100.242L117.158 98.3722V99.0441L113.922 100.912Z" fill="#D6621C"/>
<path d="M113.922 100.242L113.475 99.9836L117.083 97.9007L117.53 98.1591L113.922 100.242Z" fill="#F68A2F"/>
<path d="M113.922 100.242L113.475 99.9839V101.074L113.922 101.332V100.242Z" fill="#E1622E"/>
<path d="M116.326 69.0855L116.998 72.883L104.645 80.0156L103.957 76.0246L116.326 69.0855Z" fill="#89686A"/>
<path d="M129.091 65.9015L118.284 72.1406L117.615 68.3619L125.145 64.1381L128.939 65.0203L129.091 65.9015Z" fill="#89686A"/>
<path d="M81.2485 88.267L80.4609 88.7213L90.61 94.582L90.9799 93.8858L81.2485 88.267Z" fill="#F0EDE7"/>
<path d="M90.1176 97.3081L77.8086 90.2011V90.973L90.1176 98.0801V97.3081Z" fill="#3B3237"/>
<path d="M90.1152 97.3081L92.0613 96.1842V96.9573L90.1152 98.0801V97.3081Z" fill="#464044"/>
<path d="M90.1176 97.3066L92.0637 96.1827L79.7547 89.077L77.8086 90.1996L90.1176 97.3066Z" fill="#5B535A"/>
<path d="M113.887 98.7051C113.842 98.6681 113.814 98.6036 113.814 98.5145V93.4025C113.814 93.1998 113.958 92.9526 114.135 92.8499L116.534 91.4653C116.586 91.4353 116.635 91.4209 116.678 91.4209C116.7 91.4209 116.718 91.4244 116.736 91.431L116.453 92.155L114.718 93.1562C114.54 93.2589 114.397 93.5061 114.397 93.7088V97.4049L113.887 98.7051Z" fill="#B6C2D4"/>
<path d="M113.99 98.7402C113.95 98.7402 113.916 98.7281 113.887 98.7046L114.397 97.4044V98.544L114.135 98.6955C114.083 98.7254 114.034 98.7402 113.99 98.7402ZM116.453 92.1545L116.736 91.4305C116.809 91.4561 116.855 91.5305 116.855 91.6455V91.9226L116.453 92.1545Z" fill="#B6C2D4"/>
<path d="M114.396 98.5449V93.7093C114.396 93.5066 114.539 93.2594 114.717 93.1567L116.453 92.1555L116.855 91.9236V96.7592C116.855 96.9619 116.711 97.2095 116.533 97.3118L114.396 98.5449Z" fill="#DCEBE0"/>
<path d="M90.9802 93.8848L90.3264 93.5071L94.6206 85.1225V63.8665L81.25 55.9976V55.307L95.5864 63.5846V85.1983L90.9802 93.8848Z" fill="#B6B0A3"/>
<path d="M131.477 84.7593L132.258 85.2119L118.811 92.9746V92.0727L131.477 84.7593Z" fill="#F0EDE7"/>
<path d="M114.507 58.8184L112.43 56.908L114.008 55.9968L114.507 58.8184Z" fill="#CDA5A4"/>
<path d="M115.295 55.2523L119.226 52.9821V61.3065C119.226 62.1197 118.733 62.4929 118.122 62.1409L116.203 60.3753L115.295 55.2523Z" fill="#CDA5A4"/>
<path d="M99.0271 55.3496L28.6797 14.6775L29.1732 14.3934L99.5195 55.0667L99.0271 55.3496Z" fill="#FCFAF9"/>
<path d="M99.0271 55.5117L28.6797 14.8385V14.677L99.0271 55.3491V55.5117Z" fill="#C2BCAE"/>
<path d="M102.264 53.4805L31.918 12.8084L32.4103 12.5232L102.756 53.1953L102.264 53.4805Z" fill="#FCFAF9"/>
<path d="M102.264 53.6426L31.918 12.9705V12.8089L102.264 53.4811V53.6426Z" fill="#C2BCAE"/>
<path d="M105.5 51.6113L35.1543 10.9392L35.6466 10.654L105.993 51.3273L105.5 51.6113Z" fill="#FCFAF9"/>
<path d="M105.499 51.7734L35.1543 11.1013V10.9398L105.499 51.6119V51.7734Z" fill="#C2BCAE"/>
<path d="M108.738 49.7422L38.3926 9.07008L38.8849 8.78603L109.231 49.4581L108.738 49.7422Z" fill="#FCFAF9"/>
<path d="M108.738 49.9043L38.3926 9.23218V9.07065L108.738 49.7428V49.9043Z" fill="#C2BCAE"/>
<path d="M111.975 47.875L41.6289 7.20177L42.1213 6.91661L112.468 47.5898L111.975 47.875Z" fill="#FCFAF9"/>
<path d="M111.975 48.0352L41.6289 7.36193V7.2004L111.975 47.8736V48.0352Z" fill="#C2BCAE"/>
<path d="M115.212 46.0039L44.8652 5.33179L45.3576 5.04773L115.704 45.7198L115.212 46.0039Z" fill="#FCFAF9"/>
<path d="M115.212 46.166L44.8652 5.49278V5.33127L115.212 46.0034V46.166Z" fill="#C2BCAE"/>
<path d="M118.45 44.1367L48.1035 3.46349L48.5959 3.17943L118.943 43.8515L118.45 44.1367Z" fill="#FCFAF9"/>
<path d="M118.45 44.2969L48.1035 3.62364V3.46213L118.45 44.1354V44.2969Z" fill="#C2BCAE"/>
<path d="M121.686 42.2656L51.3398 1.59351L51.8322 1.30835L122.178 41.9805L121.686 42.2656Z" fill="#FCFAF9"/>
<path d="M121.686 42.4277L51.3398 1.75562V1.59409L121.686 42.2662V42.4277Z" fill="#C2BCAE"/>
<path d="M105.711 52.4355L104.551 51.7716L105.468 51.2247L106.37 52.4355H105.711Z" fill="#E7E2DB"/>
<path d="M106.371 52.4355L107.289 51.8897V51.4341L106.371 51.9811V52.4355Z" fill="#E06727"/>
<path d="M106.372 51.9811L105.211 51.316V51.7716L106.372 52.4355V51.9811Z" fill="#E1622E"/>
<path d="M110.299 49.707L109.139 49.0431L110.055 48.4973L110.958 49.707H110.299Z" fill="#E7E2DB"/>
<path d="M110.957 49.707L111.875 49.1612V48.7067L110.957 49.2514V49.707Z" fill="#E06727"/>
<path d="M110.957 49.252L109.797 48.5892L110.714 48.0422L111.874 48.7072L110.957 49.252Z" fill="#F68A2F"/>
<path d="M110.957 49.2514L109.797 48.5886V49.0431L110.957 49.707V49.2514Z" fill="#E1622E"/>
<path d="M114.882 46.9766L113.723 46.3127L114.639 45.7668L115.542 46.9766H114.882Z" fill="#E7E2DB"/>
<path d="M115.543 46.9766L116.46 46.4307V45.9762L115.543 46.5221V46.9766Z" fill="#E06727"/>
<path d="M115.542 46.5234L114.383 45.8584L115.3 45.3137L116.459 45.9776L115.542 46.5234Z" fill="#F68A2F"/>
<path d="M115.542 46.5221L114.383 45.857V46.3127L115.542 46.9766V46.5221Z" fill="#E1622E"/>
<path d="M112.656 79.5254L118.671 76.0522L117.506 74.6241L111.488 78.0973L112.656 79.5254Z" fill="#C2BCAE"/>
<path d="M121.054 74.6426L127.069 71.1693L125.903 69.7412L119.887 73.2145L121.054 74.6426Z" fill="#C2BCAE"/>
<path d="M115.203 75.0624C115.334 75.1951 115.529 75.1716 115.638 75.0102C115.746 74.8487 115.729 74.6103 115.599 74.4768C115.467 74.344 115.275 74.3675 115.165 74.5289C115.056 74.6916 115.074 74.9301 115.203 75.0624Z" fill="#3B3237"/>
<path d="M115.408 74.4398L115.683 74.4855L115.722 74.9845C115.722 74.9845 115.561 75.0755 115.43 75.099C115.299 75.1225 115.408 74.4398 115.408 74.4398Z" fill="#3B3237"/>
<path d="M115.512 74.9429C115.604 75.0344 115.736 75.0173 115.811 74.9073C115.885 74.7959 115.873 74.6322 115.784 74.5409C115.695 74.4496 115.562 74.466 115.487 74.5765C115.412 74.6879 115.423 74.8516 115.512 74.9429Z" fill="#4C4243"/>
<path d="M109.747 72.7773L101.809 63.5616L101.727 63.0871L109.037 58.8664L115.933 66.8711L116.325 69.0865L109.747 72.7773Z" fill="#B58D8F"/>
<path d="M112.215 75.6426L109.746 72.7755L116.324 69.0847L116.996 72.8821L112.215 75.6426Z" fill="#A18788"/>
<path d="M118.284 72.1406L117.719 68.9446L119.745 71.296L118.284 72.1406Z" fill="#A18788"/>
<path d="M122.783 65.4629L119.227 61.3346C119.227 61.3246 119.227 61.3157 119.227 61.3068V52.9834L122.033 51.3638L123.368 52.9144V65.1343L122.783 65.4629ZM128.94 65.0195L128.789 64.9839L127.564 57.7868L127.726 57.9739L128.94 65.0195Z" fill="#B58D8F"/>
<path d="M125.129 68.1875L122.783 65.4628L123.368 65.1342L125.146 64.1372L128.788 64.9838L128.94 65.0195L129.091 65.9006L125.129 68.1875Z" fill="#A18788"/>
<path d="M121.366 100.986L119.688 101.955V101.21L121.366 100.239V100.986Z" fill="#3B3237"/>
<path d="M121.218 100.941L119.836 101.738V101.186L121.218 100.389V100.941Z" fill="#E1622E"/>
<path d="M133.317 93.7688L131.936 94.5664V94.0151L133.317 93.2175V93.7688Z" fill="#E1622E"/>
<path d="M112.575 74.9331L112.195 75.293L115.389 74.9688L115.354 74.5176L112.575 74.9331Z" fill="#3B3237"/>
<path d="M115.624 73.6062L106.57 78.2891L106.473 78.0041L115.264 73.2498L115.624 73.6062Z" fill="#4C4243"/>
<path d="M52.9446 39.7768C52.8042 39.7768 52.6639 39.8068 52.5302 39.8837C52.127 40.1165 51.8841 40.7403 51.8841 41.5535V49.9927C51.8841 51.7271 52.968 53.8168 54.249 54.5565L69.0432 63.0982C69.3696 63.2864 69.8408 63.4647 70.2362 63.2363C70.6395 63.0024 70.8824 62.3786 70.8824 61.5676V53.1262C70.8824 51.3929 69.7985 49.3032 68.5175 48.5635L53.7243 40.0218C53.5071 39.8971 53.2253 39.7768 52.9446 39.7768ZM69.8241 64.3926C69.4064 64.3937 68.9619 64.2634 68.5175 64.006L53.7243 55.4655C52.1047 54.5309 50.8359 52.1259 50.8359 49.9927V41.5535C50.8359 40.3438 51.2625 39.4036 52.0067 38.9747C52.6516 38.6027 53.4492 38.6506 54.249 39.1129L69.0432 47.6545C70.6629 48.5902 71.9305 50.993 71.9305 53.1262V61.5676C71.9305 62.7762 71.5051 63.7153 70.7621 64.1453C70.4747 64.3101 70.1583 64.3926 69.8241 64.3926Z" fill="#F5691E"/>
<path d="M29.9251 26.4846C29.7836 26.4846 29.6444 26.5158 29.5107 26.5927C29.1075 26.8255 28.8646 27.4493 28.8646 28.2614V36.7017C28.8646 38.435 29.9485 40.5247 31.2295 41.2644L46.0237 49.8061C46.349 49.9943 46.8213 50.1725 47.2168 49.9442C47.62 49.7114 47.8628 49.0864 47.8628 48.2755V39.8352C47.8628 38.1008 46.779 36.0121 45.4979 35.2714L30.7048 26.7308C30.4865 26.6049 30.2058 26.4846 29.9251 26.4846ZM46.8046 51.1016C46.3869 51.1016 45.9424 50.9723 45.4979 50.715L30.7048 42.1733C29.0851 41.2388 27.8164 38.8349 27.8164 36.7017V28.2614C27.8164 27.0516 28.243 26.1126 28.986 25.6826C29.6332 25.3105 30.4297 25.3596 31.2295 25.8218L46.0237 34.3624C47.6434 35.2981 48.9111 37.702 48.9111 39.8352V48.2755C48.9111 49.4841 48.4855 50.4243 47.7414 50.8531C47.4552 51.0191 47.1388 51.1016 46.8046 51.1016Z" fill="#F5691E"/>
<path d="M78.6311 72.3574L26.168 42.0684V40.5468L78.6311 70.8358V72.3574Z" fill="#F3AB31"/>
<path d="M127.222 68.1015C127.352 68.2343 127.546 68.2108 127.655 68.0481C127.764 67.8865 127.747 67.6482 127.616 67.5145C127.486 67.3819 127.292 67.4053 127.183 67.568C127.074 67.7295 127.092 67.968 127.222 68.1015Z" fill="#3B3237"/>
<path d="M127.249 68.0635C127.362 68.1792 127.532 68.1593 127.626 68.0178C127.721 67.8763 127.707 67.668 127.592 67.5522C127.487 67.4453 127.337 67.4542 127.239 67.5667L127.214 67.5979C127.12 67.7393 127.135 67.9478 127.249 68.0635Z" fill="#3B3237"/>
<path d="M127.531 67.98C127.62 68.0715 127.754 68.0544 127.827 67.9444C127.903 67.833 127.891 67.6692 127.802 67.5779C127.713 67.4866 127.579 67.5033 127.504 67.6147C127.43 67.7249 127.441 67.8887 127.531 67.98Z" fill="#4C4243"/>
<path d="M124.591 67.9711L124.211 68.3301L127.405 68.0059L127.37 67.5547L124.591 67.9711Z" fill="#3B3237"/>
<path d="M127.643 66.6433L118.589 71.3262L118.492 71.0412L127.283 66.2868L127.643 66.6433Z" fill="#4C4243"/>
<path d="M127.712 74.4697L132.619 80.5912L118.129 88.9687L110.469 80.4628L118.052 89.3164L133.015 80.6769L127.712 74.4697Z" fill="#F9F7F2"/>
<path d="M123.172 103.442L127.442 100.978C127.86 100.736 128.2 100.088 128.2 99.5302V97.0952C128.2 96.537 127.86 96.2798 127.442 96.5213L123.172 98.9863C122.756 99.2282 122.416 99.8766 122.416 100.435V102.87C122.416 103.428 122.756 103.684 123.172 103.442Z" fill="#F9F7F2"/>
<path d="M128.434 97.1927V99.6324C128.434 100.188 128.09 100.836 127.67 101.077L123.399 103.538C122.98 103.778 122.645 103.526 122.645 102.972V100.534C122.645 99.9775 122.98 99.3291 123.399 99.0885L127.67 96.617C128.09 96.3772 128.434 96.6378 128.434 97.1927Z" fill="#E7E2DB"/>
<path d="M122.645 100.805V100.533C122.645 99.9771 122.98 99.3287 123.399 99.0881L127.67 96.6166C127.776 96.5566 127.877 96.5274 127.969 96.5274C128.241 96.5274 128.434 96.778 128.434 97.1923V97.4656L122.645 100.805Z" fill="#EE6874"/>
<path d="M22.98 46.4788C23.1694 46.5735 23.3866 46.6793 23.6105 46.7873C23.6117 46.5412 23.6117 46.3217 23.6139 46.1379C23.4167 46.2237 23.1705 46.3563 22.98 46.4788ZM23.6194 55.5117C23.6183 55.4482 23.6027 50.5759 23.6072 47.6585C23.0692 47.4011 22.5044 47.1249 22.1869 46.9533L21.8906 46.7952L21.9742 46.3986C22.129 45.9519 23.537 45.1911 24.0071 45.2724C24.2466 45.3158 24.4092 45.5119 24.4036 45.7492C24.3992 46.0165 24.3959 46.52 24.3936 47.165C24.9216 47.4167 25.346 47.615 25.3561 47.6195C25.7181 47.8523 26.1269 47.8534 26.4422 47.6518L26.9791 47.3076L27.4035 47.9692L26.8643 48.3134C26.2884 48.6822 25.5454 48.6777 24.974 48.3034C24.9617 48.299 24.7256 48.1898 24.3925 48.0327C24.3892 50.9646 24.4036 55.4471 24.4036 55.5095L23.6194 55.5117Z" fill="#797379"/>
<defs>
<linearGradient id="paint0_linear_2037_20788" x1="-84.0959" y1="111.474" x2="72.6374" y2="20.2295" gradientUnits="userSpaceOnUse">
<stop stop-color="#F9E146"/>
<stop offset="1" stop-color="#F2596C"/>
</linearGradient>
</defs>
</svg>
