<svg width="158" height="150" viewBox="0 0 158 150" fill="none" xmlns="http://www.w3.org/2000/svg">
<ellipse cx="79" cy="105" rx="79" ry="45" fill="#E2E2E2"/>
<path d="M96.0763 136.367C94.1012 136.367 92.0187 135.886 90.3923 134.947L23.46 96.3033C20.9412 94.8491 20.3244 92.7633 21.7589 91.2558C21.8737 92.7969 22.4151 94.1454 24.0637 95.1592C24.2286 95.2732 24.4024 95.3831 24.5878 95.4905L90.2151 133.381C91.8104 134.301 93.8519 134.774 95.7884 134.774C97.3919 134.774 98.9232 134.45 100.067 133.789L133.736 114.35C133.902 114.255 134.054 114.154 134.195 114.05L134.2 114.047C135.294 113.403 135.675 112.211 135.806 111.364C135.817 111.315 135.826 111.266 135.834 111.22C137.002 112.73 136.684 114.438 134.778 115.538L100.44 135.363C99.2735 136.037 97.7118 136.367 96.0763 136.367Z" fill="#E3E5EF"/>
<path d="M135.87 110.391C135.87 110.391 135.635 110.693 135.315 111.126C135.033 110.249 134.268 109.378 133.03 108.662L67.4017 70.7721C64.4858 69.0883 60.0747 68.9062 57.5493 70.3637L23.8806 89.8026C23.2647 90.1578 22.8209 90.5785 22.5396 91.0354C22.0671 90.3103 21.694 90.0675 21.7473 91.0747C21.8342 92.6914 22.3518 94.1062 24.0644 95.1594C24.2292 95.2734 24.4031 95.3833 24.5885 95.4908L90.2157 133.381C93.1316 135.064 97.5427 135.247 100.068 133.79L133.737 114.351C133.902 114.255 134.054 114.155 134.195 114.05L134.201 114.047C136.019 112.976 135.87 110.391 135.87 110.391Z" fill="#E9A857"/>
<path d="M135.869 110.392C135.869 110.392 135.746 110.537 135.56 110.765C135.366 109.789 134.575 108.8 133.195 108.004L67.3651 69.9969C64.4402 68.3081 60.016 68.1251 57.4824 69.5876L23.7103 89.0864C22.9803 89.5071 22.4956 90.0206 22.2331 90.5767C21.9912 90.0362 21.7927 89.8656 21.7459 90.5972C21.6106 92.7322 23.315 94.0101 23.315 94.0101L23.3125 94.0002C23.6275 94.2783 23.9925 94.5449 24.4198 94.7909L90.2497 132.799C93.1745 134.487 97.5987 134.67 100.132 133.208L133.904 113.71C133.997 113.656 134.077 113.598 134.163 113.542L134.211 113.517C136.146 112.385 135.869 110.392 135.869 110.392Z" fill="#FDCE9A"/>
<path d="M135.869 110.39C135.869 110.39 135.801 109.437 135.44 108.612C135.353 108.412 135.235 108.456 135.108 108.634C134.707 108.149 134.151 107.685 133.439 107.274L67.3135 69.097C64.3764 67.4008 59.9317 67.2162 57.3874 68.6852L23.4644 88.271C23.2044 88.4202 22.983 88.5843 22.7828 88.7549C22.8468 88.3448 22.782 88.102 22.5261 88.3735C21.874 89.0649 21.7461 90.5955 21.7461 90.5955L21.7576 90.5897C21.6698 91.7659 22.4884 93.0274 24.1772 94.0018L90.3007 132.179C93.2387 133.875 97.6834 134.059 100.228 132.59L134.151 113.004C135.353 112.31 135.908 111.371 135.857 110.394L135.869 110.39Z" fill="#F4A658"/>
<path d="M135.519 108.85L135.527 108.827C135.527 108.827 135.217 107.858 134.92 107.528C134.843 107.442 134.84 107.515 134.877 107.666C134.477 107.174 133.916 106.705 133.196 106.29L67.3657 68.282C64.4409 66.594 60.0167 66.4103 57.4831 67.8728L23.711 87.3716C23.6265 87.42 23.5527 87.4732 23.474 87.5249C23.6544 87.2501 23.6864 87.1189 23.3813 87.3387C22.1756 88.2065 22.0657 89.3105 22.0657 89.3105L22.0731 89.3015C21.7573 90.5736 22.557 92.0008 24.4205 93.0769L90.2504 131.084C93.1752 132.773 97.5994 132.955 100.133 131.493L133.905 111.995C135.326 111.175 135.849 110.012 135.519 108.85Z" fill="#F4B05B"/>
<path d="M134.998 107.647H134.998C134.998 107.647 134.355 106.315 132.279 105.117C131.804 104.842 131.621 104.871 131.623 105.058L67.4018 67.9786C64.486 66.2955 60.0749 66.1126 57.5494 67.5709L24.6796 86.5481C24.6181 86.5555 24.5484 86.576 24.459 86.6276C23.4985 87.187 23.1393 87.5373 23.1393 87.5373L23.1442 87.5389C21.4644 89.0284 21.9992 91.2019 24.5886 92.6972L90.2159 130.587C93.1317 132.271 97.5428 132.454 100.068 130.996L133.737 111.557C135.47 110.556 135.864 109.043 134.998 107.647Z" fill="#FF9D00"/>
<path d="M132.277 105.118L67.5566 67.7519C64.6809 66.0918 60.3314 65.9113 57.8412 67.3491L24.6384 86.5182C22.1482 87.9561 22.4599 90.4675 25.3356 92.1276L90.0557 129.494C92.9313 131.154 97.2809 131.334 99.771 129.897L132.974 110.727C135.464 109.29 135.152 106.778 132.277 105.118Z" fill="#F4B05B"/>
<path d="M39.1577 80.2139C38.7049 79.9522 37.9676 79.9539 37.5115 80.2172C37.0555 80.4804 37.0531 80.9061 37.5066 81.1678C37.9594 81.4294 38.6967 81.4286 39.1528 81.1645C39.6088 80.9012 39.6113 80.4763 39.1577 80.2139Z" fill="#82767A"/>
<path d="M42.0702 78.7742C41.7331 78.579 41.1844 78.5807 40.8457 78.7767C40.5061 78.9719 40.5044 79.2885 40.8415 79.4837C41.1787 79.6781 41.7274 79.6773 42.0669 79.4813C42.4057 79.2852 42.4073 78.9686 42.0702 78.7742Z" fill="#82767A"/>
<path d="M46.0424 76.0305L44.9622 76.6547C44.758 76.7719 44.7834 76.9778 45.0188 77.114C45.2542 77.2501 45.611 77.2649 45.8144 77.1468L46.8955 76.5226C47.0997 76.4053 47.0743 76.1994 46.8389 76.0633C46.6026 75.928 46.2467 75.9124 46.0424 76.0305Z" fill="#82767A"/>
<path d="M131.604 105.374L66.8837 68.0079C65.5714 67.2508 63.8145 66.8161 62.0634 66.8161C60.66 66.8161 59.4018 67.0958 58.5201 67.6052L52.1241 71.2978C51.6943 71.5463 51.6943 72.1664 52.1241 72.4141L52.4957 72.629C53.4906 73.2031 53.4914 74.6401 52.4965 75.2151L40.1712 82.3312C38.8056 83.1202 37.1225 83.1202 35.7569 82.332L35.6781 82.2861C34.8776 81.8243 33.8917 81.8243 33.0912 82.2861L25.3173 86.7751C24.9416 86.9916 24.3125 87.4444 24.3125 88.0407C24.3125 88.6689 24.9646 89.4367 26.0144 90.0428L90.7346 127.409C92.0469 128.167 93.8038 128.602 95.5541 128.602H95.5549C96.9575 128.602 98.2165 128.321 99.0982 127.812L132.301 108.642C132.677 108.425 133.307 107.972 133.307 107.376C133.307 106.748 132.655 105.98 131.604 105.374Z" fill="#FDCE9A"/>
<path d="M67.2198 113.832L52.1895 105.154L67.2198 113.832Z" fill="#7B6D77"/>
<path d="M123.308 113.832H118.314L119.342 113.237C121.709 111.872 121.966 109.806 119.917 108.622L115.377 106.001C114.448 105.465 113.206 105.203 111.905 105.203C110.333 105.203 108.677 105.585 107.382 106.332L94.3926 113.832H67.2199L52.1896 105.154L46.248 101.723H48.0607L54.4255 105.391C55.9528 106.277 57.6899 106.736 59.4542 106.736H89.715L94.0202 109.222L97.9507 106.953L88.8931 101.723H125.283L131.603 105.372C132.654 105.979 133.306 106.746 133.306 107.375C133.306 107.971 132.676 108.424 132.3 108.64L123.308 113.832Z" fill="#CBCBCB"/>
<path d="M113.32 94.8164L81.7508 76.5906L113.32 94.8164ZM34.2838 94.8164L26.0144 90.042C24.9646 89.4358 24.3125 88.6681 24.3125 88.0398C24.3125 88.6681 24.9646 89.4358 26.0144 90.042L34.2846 94.8164H34.2838ZM40.1031 82.3681C40.1072 82.3665 40.1114 82.364 40.1155 82.3615C40.1114 82.364 40.1072 82.3665 40.1031 82.3681ZM40.1277 82.355C40.1417 82.3468 40.1565 82.3386 40.1712 82.3304C40.1565 82.3386 40.1417 82.3468 40.1277 82.355ZM40.1712 82.3304L50.1121 76.5906L40.1712 82.3304Z" fill="#7B6D77"/>
<path d="M113.32 94.8164H76.9288L51.4187 80.0888L47.4891 82.3574L47.6277 82.4378L39.9284 82.4657H39.9178C39.9801 82.4345 40.0416 82.4026 40.1031 82.3681C40.1072 82.3665 40.1114 82.364 40.1155 82.3615C40.1196 82.3591 40.1236 82.3566 40.1277 82.355C40.1417 82.3468 40.1565 82.3386 40.1712 82.3304L50.113 76.5906H81.7508L113.32 94.8164ZM36.0726 94.8164H34.2838L26.0144 90.042C24.9646 89.4358 24.3125 88.6681 24.3125 88.0398C24.3125 87.5707 24.7021 87.1901 25.0515 86.9441C24.7046 87.1934 24.315 87.5731 24.315 88.0415L36.0726 94.8164ZM30.5764 83.7378L33.0912 82.2853C33.4914 82.0548 33.9385 81.9391 34.3847 81.9391C34.8317 81.9391 35.2779 82.0548 35.6781 82.2853L35.7569 82.3312C35.8487 82.3837 35.9414 82.4329 36.0357 82.4788H36.0284L32.7369 82.4928L30.5764 83.7378Z" fill="#CBCBCB"/>
<path d="M133.642 106.443C133.642 106.443 135.783 108.687 132.185 110.765C128.587 112.843 99.1857 129.826 99.1857 129.826C99.1857 129.826 95.4431 131.982 91.4462 129.679C86.8678 127.04 24.5771 90.8184 24.5771 90.8184C23.4174 90.0524 22.1789 88.3414 25.016 86.6657C22.9589 88.0773 23.4789 89.2404 25.1447 90.2082C26.8106 91.1761 91.8949 128.999 91.8949 128.999C91.8949 128.999 95.9713 130.899 98.9183 129.19C102.251 127.259 132.439 109.837 132.439 109.837C132.439 109.837 135.021 108.158 133.642 106.443Z" fill="#F4B05B"/>
<path d="M98.4955 129.894C98.6612 129.837 96.632 130.978 94.3551 130.613C92.5179 130.32 91.039 129.313 91.1949 129.392C92.0627 129.835 94.2928 130.273 94.853 130.299C95.4132 130.326 96.769 130.499 98.4955 129.894Z" fill="#F4B05B"/>
<path d="M94.0203 109.223L47.4883 82.3576L51.4179 80.0889L97.9507 106.954L94.0203 109.223Z" fill="#95898D"/>
<path d="M25.0508 86.9434C25.1443 86.8753 25.2353 86.8178 25.3141 86.7703L30.5757 83.7371L25.3165 86.7736C25.237 86.8195 25.1451 86.8761 25.0508 86.9434ZM37.9625 82.9219C37.3031 82.9219 36.6436 82.7734 36.035 82.4782L39.917 82.465C39.3011 82.7693 38.6318 82.921 37.9625 82.9219Z" fill="#4F434C"/>
<path d="M81.0334 101.723H48.061L36.0721 94.8149H69.0682L81.0334 101.723ZM37.9626 82.921C37.3032 82.921 36.6429 82.7726 36.0352 82.4773C36.6438 82.7726 37.3032 82.921 37.9626 82.921C38.6319 82.9202 39.3012 82.7685 39.9172 82.4642C39.3012 82.7685 38.6319 82.921 37.9626 82.921Z" fill="#737373"/>
<path d="M89.7148 106.736H59.454C57.6898 106.736 55.9526 106.277 54.4254 105.391L48.0605 101.723H81.0329L89.7148 106.736Z" fill="#6D6D6D"/>
<path d="M69.0663 94.8164H36.0702L24.3125 88.0415C24.3125 87.5731 24.7021 87.1934 25.049 86.9441C25.1434 86.8768 25.2352 86.8202 25.3148 86.7742L30.574 83.7378L32.7344 82.4928L36.0259 82.4788H36.0333C36.6411 82.7741 37.3013 82.9226 37.9608 82.9226C38.6301 82.9226 39.2993 82.77 39.9153 82.4657H39.926L47.6253 82.4378L69.0663 94.8164Z" fill="#A7A7A7"/>
<path d="M92.2216 106.736H89.7151L81.0332 101.723L69.068 94.8154L47.627 82.4369L52.9386 82.4172V84.0592L92.2216 106.736Z" fill="#726A75"/>
<path d="M95.4432 106.949L94.0234 107.777L92.9825 107.175L92.2239 106.736L90.7073 105.86L62.3347 89.4851L56.015 85.8384L53.6979 84.4949L52.9392 84.0569L49.9922 82.3574L51.4185 81.5364L52.9392 82.4141L53.6979 82.8528L56.941 84.7246L61.4087 87.3L89.851 103.724L92.2239 105.094L92.9825 105.533L95.4432 106.949Z" fill="#67565B"/>
<path d="M92.9819 48.6695C92.9819 67.627 92.9893 86.5763 92.9819 105.534V107.176L92.2232 106.737L90.7067 105.86L62.3341 89.4856L56.0144 85.8389L53.6973 84.4954V25.99C53.6973 25.5512 53.7875 25.1829 53.9474 24.9114L54.0311 24.7859C54.4346 24.2364 55.1794 24.1388 56.0283 24.6326C67.567 31.2927 79.1122 37.9593 90.6575 44.6267C91.9452 45.3641 92.9819 47.18 92.9819 48.6695Z" fill="#D0D0D9"/>
<path d="M92.2222 49.1097V106.738L90.7056 105.861L62.333 89.4869L56.0133 85.8402L53.6962 84.4967L52.9375 84.0587V26.4293C52.9375 25.7682 53.1466 25.2745 53.4879 25.003L53.6757 24.8848L53.8775 24.8077L53.884 24.8152L54.03 24.7872C54.3852 24.7241 54.81 24.8077 55.262 25.0727C66.8072 31.7328 78.3525 38.3994 89.8977 45.0661C91.1854 45.8108 92.2222 47.6202 92.2222 49.1097Z" fill="#F66A1E"/>
<path d="M90.7089 105.863L68.6519 93.1328L68.5428 93.0623L68.3713 92.9688L68.332 92.945L68.2229 92.8827L68.0506 92.781L66.489 91.8829L66.3791 91.8205L66.2076 91.7188L66.1683 91.6958L66.0592 91.6327L65.8878 91.5318L62.6381 89.6568L62.3338 89.4854L56.0149 85.8379L55.7106 85.6583L53.6954 84.4944L52.9375 84.0573V26.4319C52.9375 25.7684 53.1483 25.2762 53.4846 25.0023L53.6716 24.8858L53.875 24.8079L53.8824 24.8153L53.9455 24.9088C61.3184 35.6248 66.4496 45.7002 68.6757 57.4858C70.1676 65.3352 70.5966 72.9582 75.4866 80.7608C80.1569 88.2042 86.3191 95.6476 89.8493 103.723C90.1544 104.434 90.4431 105.145 90.7089 105.863Z" fill="#F3671B"/>
<path d="M85.9195 52.5761C86.1328 52.946 86.4387 53.2225 86.7192 53.2971C86.8382 53.3274 86.9382 53.3201 87.0194 53.2733L87.8946 52.7607C88.1792 52.595 88.1554 51.9946 87.8421 51.45L86.9669 49.9268C86.7537 49.5577 86.4477 49.2813 86.168 49.2059C86.0491 49.1739 85.9474 49.1829 85.867 49.2305L84.9919 49.7423C84.7064 49.908 84.731 50.5084 85.0443 51.053L85.9195 52.5761ZM86.8521 53.6055L86.6446 53.5776C86.287 53.4825 85.922 53.1626 85.6677 52.7205L84.7926 51.1982C84.3882 50.4944 84.4112 49.7448 84.8459 49.4905L85.7202 48.9795C85.8695 48.8926 86.0483 48.8745 86.2427 48.9254C86.6003 49.0213 86.9653 49.3412 87.2187 49.7825L88.0939 51.3048C88.4983 52.0085 88.4753 52.7582 88.0414 53.0125L87.1654 53.5234C87.0727 53.5784 86.9661 53.6055 86.8521 53.6055Z" fill="white"/>
<path d="M85.9195 51.005C86.1328 51.3757 86.4395 51.6513 86.7192 51.7259C86.8382 51.7571 86.9382 51.7489 87.0194 51.7021L87.8946 51.1904C88.1792 51.0239 88.1554 50.4234 87.8421 49.8788L86.9669 48.3557C86.7537 47.9866 86.4477 47.7102 86.1672 47.6356C86.0483 47.6036 85.9474 47.6118 85.867 47.6594L84.9919 48.1712C84.7072 48.3377 84.731 48.9381 85.0443 49.4819L85.9195 51.005ZM86.8521 52.0352L86.6454 52.0073C86.2878 51.9121 85.922 51.5914 85.6677 51.1501L84.7926 49.627C84.3882 48.9233 84.4112 48.1736 84.8459 47.9202L85.7202 47.4084C85.8695 47.3223 86.0507 47.3026 86.2419 47.3542C86.5995 47.4502 86.9653 47.7701 87.2187 48.2114L88.0939 49.7345C88.4983 50.4374 88.4753 51.1871 88.0414 51.4413L87.1654 51.9531C87.0727 52.0073 86.9661 52.0352 86.8521 52.0352Z" fill="white"/>
<path d="M86.2647 55.3055C85.9103 55.1004 85.7323 54.9979 85.378 54.7929C85.378 54.9405 85.378 55.0135 85.378 55.1611C85.378 55.4597 85.378 55.6549 85.5084 55.8731C85.5757 55.9854 85.6872 56.106 85.8218 56.1839C85.9554 56.2619 86.067 56.2692 86.1342 56.2348C86.2647 56.1667 86.2647 55.9715 86.2647 55.6729C86.2647 55.5261 86.2647 55.4523 86.2647 55.3055ZM87.3383 55.9247C87.0135 55.7369 86.8511 55.6434 86.5255 55.4564C86.5255 55.586 86.5255 55.6508 86.5255 55.7804C86.5255 56.0749 86.5255 56.275 86.66 56.4767C86.7379 56.5965 86.8347 56.6826 86.9323 56.7384C87.0291 56.7942 87.1259 56.8196 87.2038 56.7917C87.3383 56.7433 87.3383 56.544 87.3383 56.2495C87.3383 56.1199 87.3383 56.0552 87.3383 55.9247ZM87.454 57.0829C87.3342 57.192 87.1447 57.1813 86.9323 57.0591C86.7043 56.9279 86.5222 56.7097 86.4139 56.4431C86.3024 56.6301 86.0932 56.6613 85.8218 56.5046C85.6093 56.3816 85.4338 56.1847 85.3181 55.9846C85.1172 55.6344 85.1172 55.3317 85.1172 55.011C85.1172 54.7354 85.1172 54.5976 85.1172 54.322C86.1096 54.8954 86.6059 55.1816 87.5991 55.755C87.5991 56.0133 87.5991 56.1421 87.5991 56.4004C87.5991 56.708 87.5991 56.95 87.454 57.0829Z" fill="white"/>
<path d="M85.4177 57.1997C85.362 57.2456 85.339 57.3457 85.339 57.44C85.339 57.6271 85.4136 57.8173 85.5145 57.9527C85.6375 58.1192 85.7794 58.2012 85.9689 58.3111C85.9689 58.1684 85.9689 58.097 85.9689 57.9551C85.9689 57.8083 85.9689 57.6565 85.891 57.4859C85.8426 57.3801 85.7639 57.2694 85.6523 57.2054C85.5629 57.1538 85.4735 57.1538 85.4177 57.1997ZM86.7219 58.8754C86.5545 58.9509 86.3347 58.8246 86.174 58.7319C85.7507 58.4874 85.5391 58.3652 85.1159 58.1208C85.1159 57.9994 85.1159 57.9387 85.1159 57.8181C85.2004 57.8674 85.243 57.8919 85.3283 57.9403C85.1791 57.7418 85.0938 57.4892 85.0938 57.2768C85.0938 57.1251 85.1266 56.984 85.2201 56.8995C85.3136 56.815 85.4694 56.797 85.6408 56.8962C85.8385 57.0102 85.9878 57.2128 86.0739 57.4007C86.2002 57.6771 86.2002 57.9198 86.2002 58.0888C86.2002 58.2307 86.2002 58.3021 86.2002 58.444C86.3159 58.5104 86.4651 58.5965 86.5652 58.5514C86.6366 58.5186 86.6735 58.4276 86.6735 58.2627C86.6735 58.0724 86.6366 57.8559 86.5767 57.6393C86.6702 57.6574 86.7178 57.6664 86.8113 57.6845C86.8744 57.9199 86.9195 58.1618 86.9195 58.4046C86.9195 58.6646 86.8482 58.818 86.7219 58.8754Z" fill="white"/>
<path d="M86.8987 60.0769C86.824 60.0335 86.7863 60.0121 86.7125 59.9686C86.8347 60.1401 86.9208 60.3623 86.9208 60.5666C86.9208 60.8217 86.824 60.9472 86.7305 60.9931C86.5484 61.0866 86.3319 60.9619 86.0711 60.8118C85.6897 60.5912 85.4986 60.4813 85.1172 60.2606C85.1172 60.1393 85.1172 60.0786 85.1172 59.958C85.4986 60.1778 85.6897 60.2885 86.0711 60.5083C86.3024 60.642 86.459 60.7323 86.5665 60.6691C86.6296 60.6322 86.6748 60.5453 86.6748 60.4025C86.6748 60.259 86.6296 60.1212 86.5665 60.0105C86.459 59.8227 86.3024 59.7324 86.0711 59.5988C85.6897 59.3789 85.4986 59.269 85.1172 59.0484C85.1172 58.927 85.1172 58.8663 85.1172 58.7449C85.8299 59.1566 86.1859 59.3625 86.8987 59.7734C86.8987 59.8948 86.8987 59.9555 86.8987 60.0769Z" fill="white"/>
<path d="M87.5991 62.6225C86.9479 62.2468 86.6223 62.059 85.9702 61.6825C86.3417 62.2206 86.5271 62.4896 86.8987 63.0277C86.8987 63.1704 86.8987 63.2409 86.8987 63.3828C86.5747 62.9071 86.4131 62.6692 86.0899 62.1927C85.7003 62.2837 85.506 62.3288 85.1172 62.4191C85.1172 62.2796 85.1172 62.2091 85.1172 62.0688C85.4346 61.9975 85.5929 61.9622 85.9111 61.89C85.7988 61.7293 85.743 61.6481 85.6315 61.4865C85.4256 61.3676 85.3231 61.3085 85.1172 61.1896C85.1172 61.0682 85.1172 61.0075 85.1172 60.8869C86.1096 61.4594 86.6059 61.7465 87.5991 62.3198C87.5991 62.4412 87.5991 62.5011 87.5991 62.6225Z" fill="white"/>
<path d="M87.3706 65.9453C87.2886 65.8198 87.2476 65.7575 87.1656 65.632C87.2771 65.5713 87.3592 65.4236 87.3592 65.1809C87.3592 64.9692 87.2919 64.7527 87.173 64.5755C87.0016 64.3205 86.785 64.1958 86.3569 63.9481C85.9279 63.7012 85.7155 63.5782 85.544 63.6307C85.4284 63.6676 85.3546 63.7939 85.3546 64.0236C85.3546 64.2745 85.444 64.5427 85.5744 64.7478C85.4998 64.7937 85.462 64.8159 85.3882 64.861C85.2201 64.587 85.0938 64.2155 85.0938 63.8726C85.0938 63.5265 85.2168 63.3379 85.3915 63.2829C85.6302 63.2083 85.891 63.3592 86.3569 63.6282C86.808 63.8882 87.0869 64.0498 87.3255 64.4041C87.4937 64.6527 87.62 64.9857 87.62 65.3318C87.62 65.6435 87.5158 65.8559 87.3706 65.9453Z" fill="white"/>
<path d="M85.4177 65.6763C85.362 65.7222 85.339 65.8215 85.339 65.9166C85.339 66.1036 85.4136 66.2939 85.5145 66.4292C85.6375 66.5957 85.7794 66.6777 85.9689 66.7868C85.9689 66.6449 85.9689 66.5736 85.9689 66.4317C85.9689 66.2849 85.9689 66.1331 85.891 65.9625C85.8426 65.8567 85.7639 65.746 85.6523 65.6812C85.5629 65.6303 85.4735 65.6303 85.4177 65.6763ZM86.7219 67.352C86.5545 67.4274 86.3339 67.3011 86.174 67.2084C85.7507 66.964 85.5391 66.8418 85.1159 66.5974C85.1159 66.476 85.1159 66.4153 85.1159 66.2947C85.2004 66.3439 85.243 66.3677 85.3283 66.4169C85.1791 66.2185 85.0938 65.9658 85.0938 65.7534C85.0938 65.6016 85.1266 65.4606 85.2201 65.3761C85.3136 65.2908 85.4694 65.2727 85.6408 65.372C85.8385 65.486 85.9878 65.6894 86.0739 65.8772C86.2002 66.1536 86.2002 66.3964 86.2002 66.5654C86.2002 66.7073 86.2002 66.7786 86.2002 66.9205C86.3159 66.987 86.4651 67.0731 86.5652 67.0272C86.6357 66.9952 86.6735 66.9033 86.6735 66.7393C86.6735 66.5481 86.6366 66.3316 86.5767 66.1159C86.6702 66.1339 86.7178 66.143 86.8113 66.1602C86.8744 66.3964 86.9195 66.6384 86.9195 66.8812C86.9195 67.1412 86.8482 67.2946 86.7219 67.352Z" fill="white"/>
<path d="M86.8839 69.3281C86.788 69.242 86.7404 69.1985 86.6452 69.1124C86.6633 69.0673 86.6748 69.0082 86.6748 68.9221C86.6748 68.7572 86.6223 68.6014 86.5443 68.4784C86.4139 68.2733 86.2089 68.1544 86.0079 68.0387C85.6511 67.8329 85.4732 67.7303 85.1172 67.5245C85.1172 67.4031 85.1172 67.3424 85.1172 67.2218C85.8299 67.6327 86.1859 67.8386 86.8987 68.2504C86.8987 68.3709 86.8987 68.4316 86.8987 68.553C86.8167 68.5054 86.7756 68.4817 86.6936 68.4349C86.8347 68.6334 86.9208 68.8729 86.9208 69.0853C86.9208 69.1682 86.9093 69.2518 86.8839 69.3281Z" fill="white"/>
<path d="M86.5431 69.8742C86.4126 69.6691 86.2076 69.551 86.0066 69.4345C85.8049 69.3181 85.5998 69.1999 85.4694 69.2541C85.3915 69.2869 85.339 69.3828 85.339 69.5469C85.339 69.7117 85.3915 69.8676 85.4694 69.9906C85.5998 70.1957 85.8049 70.3146 86.0066 70.4302C86.2076 70.5467 86.4126 70.6648 86.5431 70.6099C86.621 70.5771 86.6735 70.4819 86.6735 70.3171C86.6735 70.153 86.621 69.9972 86.5431 69.8742ZM86.6923 70.8264C87.054 71.0356 87.2353 71.1397 87.5978 71.3489C87.5978 71.4703 87.5978 71.531 87.5978 71.6523C86.6046 71.079 86.1083 70.792 85.1159 70.2195C85.1159 70.0981 85.1159 70.0374 85.1159 69.916C85.1979 69.9635 85.2389 69.9873 85.3209 70.0349C85.1791 69.8356 85.0938 69.5961 85.0938 69.3837C85.0938 69.1278 85.1831 68.976 85.3127 68.926C85.5145 68.8473 85.7606 68.9892 86.0066 69.131C86.2527 69.2729 86.498 69.4148 86.6997 69.7265C86.8301 69.9274 86.9195 70.1826 86.9195 70.4377C86.9195 70.6501 86.8334 70.7911 86.6923 70.8264Z" fill="white"/>
<path d="M62.6386 85.4082V89.6602L62.3327 89.4863L56.013 85.8397L55.707 85.6584V81.4064C55.707 80.815 56.118 80.5715 56.633 80.8708C58.6647 82.0396 59.6809 82.631 61.7126 83.8006C62.2277 84.1 62.6386 84.8168 62.6386 85.4082Z" fill="#E5E5E6"/>
<path d="M66.4878 74.2814C67.226 74.7079 67.5951 74.9211 68.3341 75.3468C68.3341 74.9162 68.3341 74.7005 68.3341 74.2691C67.5951 73.8426 67.226 73.6294 66.4878 73.2028C66.4878 73.6343 66.4878 73.85 66.4878 74.2814ZM68.654 75.5314C68.654 75.7332 68.5097 75.816 68.3341 75.7143C67.5951 75.2878 67.226 75.0745 66.4878 74.648C66.3082 74.5447 66.168 74.306 66.168 74.0969C66.168 73.6654 66.168 73.4497 66.168 73.0183C66.168 72.81 66.3082 72.7337 66.4878 72.837C67.226 73.2635 67.5951 73.4768 68.3341 73.9033C68.5097 74.0042 68.654 74.2527 68.654 74.4537C68.654 74.8851 68.654 75.1008 68.654 75.5314Z" fill="#56638D"/>
<path d="M66.4878 77.3476C67.226 77.7742 67.5951 77.9874 68.3341 78.4139C68.3341 77.9825 68.3341 77.7668 68.3341 77.3361C67.5951 76.9096 67.226 76.6964 66.4878 76.2699C66.4878 76.7013 66.4878 76.917 66.4878 77.3476ZM68.654 78.5985C68.654 78.8002 68.5097 78.8822 68.3341 78.7805C67.5951 78.354 67.226 78.1408 66.4878 77.7143C66.3082 77.6109 66.168 77.3722 66.168 77.1631C66.168 76.7325 66.168 76.5168 66.168 76.0853C66.168 75.8762 66.3082 75.7999 66.4878 75.9032C67.226 76.3297 67.5951 76.543 68.3341 76.9695C68.5097 77.0712 68.654 77.3189 68.654 77.5207C68.654 77.9513 68.654 78.167 68.654 78.5985Z" fill="#56638D"/>
<path d="M66.4878 80.4121C67.226 80.8394 67.5951 81.0526 68.3341 81.4783C68.3341 81.0477 68.3341 80.832 68.3341 80.4006C67.5951 79.9741 67.226 79.7608 66.4878 79.3343C66.4878 79.7658 66.4878 79.9815 66.4878 80.4121ZM68.654 81.6629C68.654 81.8647 68.5097 81.9467 68.3341 81.845C67.5951 81.4185 67.226 81.206 66.4878 80.7795C66.3082 80.6762 66.168 80.4375 66.168 80.2284C66.168 79.7969 66.168 79.5812 66.168 79.1498C66.168 78.9415 66.3082 78.8652 66.4878 78.9685C67.226 79.3942 67.5951 79.6083 68.3341 80.0348C68.5097 80.1357 68.654 80.3834 68.654 80.5852C68.654 81.0166 68.654 81.2323 68.654 81.6629Z" fill="#56638D"/>
<path d="M66.4878 71.2148C67.226 71.6413 67.5951 71.8546 68.3341 72.2811C68.3341 71.8505 68.3341 71.6348 68.3341 71.2033C67.5951 70.7768 67.226 70.5636 66.4878 70.1371C66.4878 70.5685 66.4878 70.7842 66.4878 71.2148ZM68.654 72.4656C68.654 72.6674 68.5097 72.7494 68.3341 72.6477C67.5951 72.2212 67.226 72.0088 66.4878 71.5814C66.3082 71.4781 66.168 71.2394 66.168 71.0303C66.168 70.5997 66.168 70.3839 66.168 69.9525C66.168 69.7434 66.3082 69.6671 66.4878 69.7704C67.226 70.1969 67.5951 70.4102 68.3341 70.8367C68.5097 70.9384 68.654 71.1861 68.654 71.3879C68.654 71.8185 68.654 72.035 68.654 72.4656Z" fill="#56638D"/>
<path d="M66.4878 89.6099C67.226 90.0364 67.5951 90.2496 68.3341 90.6753C68.3341 90.2447 68.3341 90.029 68.3341 89.5976C67.5951 89.1711 67.226 88.9578 66.4878 88.5313C66.4878 88.9627 66.4878 89.1785 66.4878 89.6099ZM68.654 90.8599C68.654 91.0616 68.5097 91.1437 68.3341 91.0428C67.5951 90.6163 67.226 90.403 66.4878 89.9765C66.3082 89.8732 66.168 89.6337 66.168 89.4253C66.168 88.9939 66.168 88.7782 66.168 88.3467C66.168 88.1384 66.3082 88.0621 66.4878 88.1655C67.226 88.592 67.5951 88.8052 68.3341 89.2317C68.5097 89.3326 68.654 89.5803 68.654 89.7821C68.654 90.2135 68.654 90.4293 68.654 90.8599Z" fill="#56638D"/>
<path d="M68.3317 92.297C67.5976 91.8672 67.2227 91.6565 66.4887 91.2349C66.3558 91.157 66.2467 91.1725 66.1991 91.2742L66.1835 91.321L66.168 91.4145V91.6958L66.2073 91.7188L66.3788 91.8205L66.4887 91.8828V91.5941C67.199 92.0083 67.5738 92.2191 68.2693 92.6251L68.3317 92.6645V92.945L68.371 92.9688L68.5425 93.0623L68.6516 93.1328V92.8515C68.6516 92.6481 68.5113 92.3987 68.3317 92.297Z" fill="#56638D"/>
<path d="M66.4878 86.5429C67.226 86.9694 67.5951 87.1827 68.3341 87.6092C68.3341 87.1778 68.3341 86.9621 68.3341 86.5315C67.5951 86.105 67.226 85.8917 66.4878 85.4652C66.4878 85.8966 66.4878 86.1123 66.4878 86.5429ZM68.654 87.7937C68.654 87.9955 68.5097 88.0775 68.3341 87.9758C67.5951 87.5493 67.226 87.3361 66.4878 86.9096C66.3082 86.8062 66.168 86.5675 66.168 86.3584C66.168 85.9278 66.168 85.7121 66.168 85.2807C66.168 85.0715 66.3082 84.9952 66.4878 85.0985C67.226 85.5251 67.5951 85.7383 68.3341 86.1648C68.5097 86.2665 68.654 86.5142 68.654 86.716C68.654 87.1466 68.654 87.3623 68.654 87.7937Z" fill="#56638D"/>
<path d="M66.4878 58.9336C67.226 59.3601 67.5951 59.5733 68.3341 59.9998C68.3341 59.5692 68.3341 59.3535 68.3341 58.9221C67.5951 58.4956 67.226 58.2823 66.4878 57.8558C66.4878 58.2872 66.4878 58.503 66.4878 58.9336ZM68.654 60.1844C68.654 60.3862 68.5097 60.4682 68.3341 60.3665C67.5951 59.94 67.226 59.7267 66.4878 59.301C66.3082 59.1969 66.168 58.9582 66.168 58.749C66.168 58.3184 66.168 58.1027 66.168 57.6713C66.168 57.4629 66.3082 57.3866 66.4878 57.4892C67.226 57.9157 67.5951 58.1289 68.3341 58.5554C68.5097 58.6571 68.654 58.9049 68.654 59.1066C68.654 59.5381 68.654 59.7538 68.654 60.1844Z" fill="#56638D"/>
<path d="M66.4878 62.0002C67.226 62.4267 67.5951 62.6391 68.3341 63.0656C68.3341 62.635 68.3341 62.4193 68.3341 61.9879C67.5951 61.5614 67.226 61.3481 66.4878 60.9216C66.4878 61.353 66.4878 61.5687 66.4878 62.0002ZM68.654 63.2501C68.654 63.4519 68.5097 63.5347 68.3341 63.433C67.5951 63.0065 67.226 62.7933 66.4878 62.3668C66.3082 62.2634 66.168 62.0239 66.168 61.8156C66.168 61.3842 66.168 61.1685 66.168 60.737C66.168 60.5287 66.3082 60.4524 66.4878 60.5558C67.226 60.9823 67.5951 61.1955 68.3341 61.6221C68.5097 61.7229 68.654 61.9715 68.654 62.1724C68.654 62.6038 68.654 62.8195 68.654 63.2501Z" fill="#56638D"/>
<path d="M66.4878 65.0664C67.226 65.4929 67.5951 65.7062 68.3341 66.1327C68.3341 65.7012 68.3341 65.4863 68.3341 65.0549C67.5951 64.6284 67.226 64.4151 66.4878 63.9886C66.4878 64.4201 66.4878 64.6358 66.4878 65.0664ZM68.654 66.3172C68.654 66.519 68.5097 66.601 68.3341 66.4993C67.5951 66.0728 67.226 65.8595 66.4878 65.433C66.3082 65.3297 66.168 65.091 66.168 64.8818C66.168 64.4512 66.168 64.2355 66.168 63.8041C66.168 63.5949 66.3082 63.5186 66.4878 63.622C67.226 64.0485 67.5951 64.2617 68.3341 64.6882C68.5097 64.79 68.654 65.0377 68.654 65.2394C68.654 65.6701 68.654 65.8858 68.654 66.3172Z" fill="#56638D"/>
<path d="M66.4878 55.8712C67.226 56.2977 67.5951 56.511 68.3341 56.9375C68.3341 56.5061 68.3341 56.2904 68.3341 55.8589C67.5951 55.4324 67.226 55.22 66.4878 54.7935C66.4878 55.2241 66.4878 55.4398 66.4878 55.8712ZM68.654 57.122C68.654 57.323 68.5097 57.4058 68.3341 57.3041C67.5951 56.8776 67.226 56.6643 66.4878 56.2378C66.3082 56.1345 66.168 55.895 66.168 55.6867C66.168 55.2553 66.168 55.0403 66.168 54.6089C66.168 54.3998 66.3082 54.3235 66.4878 54.4269C67.226 54.8534 67.5951 55.0666 68.3341 55.4931C68.5097 55.594 68.654 55.8425 68.654 56.0435C68.654 56.4749 68.654 56.6906 68.654 57.122Z" fill="#56638D"/>
<path d="M66.4878 43.625C67.226 44.0515 67.5951 44.2647 68.3341 44.6912C68.3341 44.2598 68.3341 44.0441 68.3341 43.6135C67.5951 43.187 67.226 42.9737 66.4878 42.5472C66.4878 42.9787 66.4878 43.1935 66.4878 43.625ZM68.654 44.8758C68.654 45.0775 68.5097 45.1596 68.3341 45.0579C67.5951 44.6314 67.226 44.4181 66.4878 43.9916C66.3082 43.8891 66.168 43.6496 66.168 43.4404C66.168 43.0098 66.168 42.7941 66.168 42.3627C66.168 42.1535 66.3082 42.0772 66.4878 42.1806C67.226 42.6071 67.5951 42.8203 68.3341 43.2468C68.5097 43.3486 68.654 43.5963 68.654 43.798C68.654 44.2287 68.654 44.4443 68.654 44.8758Z" fill="#56638D"/>
<path d="M66.4878 46.6922C67.226 47.1179 67.5951 47.3319 68.3341 47.7584C68.3341 47.327 68.3341 47.1113 68.3341 46.6798C67.5951 46.2533 67.226 46.0401 66.4878 45.6136C66.4878 46.045 66.4878 46.2607 66.4878 46.6922ZM68.654 47.943C68.654 48.1439 68.5097 48.226 68.3341 48.1243C67.5951 47.6986 67.226 47.4853 66.4878 47.0588C66.3082 46.9554 66.168 46.716 66.168 46.5076C66.168 46.0762 66.168 45.8605 66.168 45.4299C66.168 45.2207 66.3082 45.1444 66.4878 45.2478C67.226 45.6743 67.5951 45.8875 68.3341 46.314C68.5097 46.4149 68.654 46.6626 68.654 46.8644C68.654 47.2958 68.654 47.5116 68.654 47.943Z" fill="#56638D"/>
<path d="M66.4878 49.7579C67.226 50.1844 67.5951 50.3977 68.3341 50.8242C68.3341 50.3928 68.3341 50.1771 68.3341 49.7465C67.5951 49.32 67.226 49.1067 66.4878 48.6802C66.4878 49.1108 66.4878 49.3265 66.4878 49.7579ZM68.654 51.0087C68.654 51.2097 68.5097 51.2925 68.3341 51.1908C67.5951 50.7643 67.226 50.5511 66.4878 50.1246C66.3082 50.0212 66.168 49.7825 66.168 49.5734C66.168 49.1419 66.168 48.9263 66.168 48.4956C66.168 48.2865 66.3082 48.2102 66.4878 48.3135C67.226 48.74 67.5951 48.9533 68.3341 49.3798C68.5097 49.4815 68.654 49.7292 68.654 49.931C68.654 50.3616 68.654 50.5773 68.654 51.0087Z" fill="#56638D"/>
<path d="M66.4878 40.561C67.226 40.9875 67.5951 41.2008 68.3341 41.6273C68.3341 41.1959 68.3341 40.9801 68.3341 40.5487C67.5951 40.1222 67.226 39.909 66.4878 39.4833C66.4878 39.9139 66.4878 40.1296 66.4878 40.561ZM68.654 41.8119C68.654 42.0128 68.5097 42.0948 68.3341 41.9939C67.5951 41.5674 67.226 41.3542 66.4878 40.9277C66.3082 40.8243 66.168 40.5856 66.168 40.3765C66.168 39.9451 66.168 39.7293 66.168 39.2987C66.168 39.0896 66.3082 39.0133 66.4878 39.1166C67.226 39.5431 67.5951 39.7564 68.3341 40.1829C68.5097 40.2838 68.654 40.5323 68.654 40.7333C68.654 41.1647 68.654 41.3804 68.654 41.8119Z" fill="#56638D"/>
<path d="M63.2696 39.9761C63.7314 40.2426 63.9619 40.3755 64.4237 40.6421C64.4237 40.3723 64.4237 40.2377 64.4237 39.9687C63.9619 39.7021 63.7314 39.5693 63.2696 39.3027C63.2696 39.5717 63.2696 39.7062 63.2696 39.9761ZM64.623 40.7577C64.623 40.8832 64.5336 40.9349 64.4237 40.8709C63.9619 40.6052 63.7314 40.4715 63.2696 40.2049C63.1581 40.1409 63.0703 39.9917 63.0703 39.8613C63.0703 39.5914 63.0703 39.4569 63.0703 39.187C63.0703 39.0566 63.1581 39.0091 63.2696 39.0739C63.7314 39.3404 63.9619 39.4733 64.4237 39.7399C64.5336 39.803 64.623 39.958 64.623 40.0843C64.623 40.3534 64.623 40.4879 64.623 40.7577Z" fill="#56638D"/>
<path d="M63.2696 41.8902C63.7314 42.1567 63.9619 42.2896 64.4237 42.5562C64.4237 42.2871 64.4237 42.1526 64.4237 41.8828C63.9619 41.6162 63.7314 41.4834 63.2696 41.2168C63.2696 41.4858 63.2696 41.6211 63.2696 41.8902ZM64.623 42.6718C64.623 42.7973 64.5336 42.849 64.4237 42.785C63.9619 42.5192 63.7314 42.3856 63.2696 42.119C63.1581 42.055 63.0703 41.9057 63.0703 41.7745C63.0703 41.5055 63.0703 41.371 63.0703 41.1011C63.0703 40.9707 63.1581 40.9232 63.2696 40.9879C63.7314 41.2545 63.9619 41.3874 64.4237 41.6539C64.5336 41.7171 64.623 41.8721 64.623 41.9984C64.623 42.2675 64.623 42.402 64.623 42.6718Z" fill="#56638D"/>
<path d="M63.2696 43.8059C63.7314 44.0725 63.9619 44.2053 64.4237 44.4719C64.4237 44.2028 64.4237 44.0683 64.4237 43.7985C63.9619 43.5319 63.7314 43.399 63.2696 43.1325C63.2696 43.4015 63.2696 43.5369 63.2696 43.8059ZM64.623 44.5875C64.623 44.713 64.5336 44.7647 64.4237 44.7015C63.9619 44.435 63.7314 44.3013 63.2696 44.0355C63.1581 43.9707 63.0703 43.8214 63.0703 43.691C63.0703 43.4212 63.0703 43.2867 63.0703 43.0168C63.0703 42.8864 63.1581 42.8389 63.2696 42.9037C63.7314 43.1702 63.9619 43.3031 64.4237 43.5696C64.5336 43.6328 64.623 43.7878 64.623 43.9133C64.623 44.1831 64.623 44.3177 64.623 44.5875Z" fill="#56638D"/>
<path d="M63.2696 38.0604C63.7314 38.327 63.9619 38.4599 64.4237 38.7265C64.4237 38.4566 64.4237 38.3221 64.4237 38.0531C63.9619 37.7865 63.7314 37.6536 63.2696 37.3871C63.2696 37.6561 63.2696 37.7906 63.2696 38.0604ZM64.623 38.8413C64.623 38.9676 64.5336 39.0185 64.4237 38.9553C63.9619 38.6896 63.7314 38.5559 63.2696 38.2893C63.1581 38.2253 63.0703 38.0752 63.0703 37.9448C63.0703 37.6758 63.0703 37.5412 63.0703 37.2714C63.0703 37.141 63.1581 37.0934 63.2696 37.1582C63.7314 37.424 63.9619 37.5577 64.4237 37.8242C64.5336 37.8874 64.623 38.0424 64.623 38.1679C64.623 38.4377 64.623 38.5723 64.623 38.8413Z" fill="#56638D"/>
<path d="M61.1454 63.4327C61.6064 63.6993 61.8377 63.8321 62.2995 64.0987C62.2995 63.8297 62.2995 63.6952 62.2995 63.4253C61.8377 63.1596 61.6064 63.0259 61.1454 62.7593C61.1454 63.0291 61.1454 63.1637 61.1454 63.4327ZM62.4988 64.2143C62.4988 64.3406 62.4086 64.3915 62.2995 64.3283C61.8377 64.0618 61.6064 63.9281 61.1454 63.6615C61.0331 63.5976 60.9453 63.4483 60.9453 63.3179C60.9453 63.048 60.9453 62.9135 60.9453 62.6445C60.9453 62.5141 61.0331 62.4657 61.1454 62.5305C61.6064 62.797 61.8377 62.9299 62.2995 63.1965C62.4086 63.2596 62.4988 63.4146 62.4988 63.5409C62.4988 63.81 62.4988 63.9453 62.4988 64.2143Z" fill="#56638D"/>
<path d="M61.1454 65.136C61.6064 65.4025 61.8377 65.5354 62.2995 65.802C62.2995 65.533 62.2995 65.3984 62.2995 65.1286C61.8377 64.8628 61.6064 64.7291 61.1454 64.4626C61.1454 64.7324 61.1454 64.8669 61.1454 65.136ZM62.4988 65.9176C62.4988 66.0431 62.4086 66.0948 62.2995 66.0316C61.8377 65.7651 61.6064 65.6314 61.1454 65.3648C61.0331 65.3008 60.9453 65.1516 60.9453 65.0211C60.9453 64.7513 60.9453 64.6168 60.9453 64.3478C60.9453 64.2173 61.0331 64.1689 61.1454 64.2337C61.6064 64.5003 61.8377 64.6332 62.2995 64.8998C62.4086 64.9629 62.4988 65.1179 62.4988 65.2442C62.4988 65.5132 62.4988 65.6478 62.4988 65.9176Z" fill="#56638D"/>
<path d="M61.0158 66.0901L60.9453 65.9375L61.0396 65.8768L61.143 65.9875C61.6548 66.6257 61.9107 66.9447 62.4225 67.5828L62.4988 67.7386L62.4053 67.7969L62.3274 67.7272C61.8024 67.0718 61.54 66.7446 61.0158 66.0901Z" fill="#56638D"/>
<path d="M61.1435 68.5468C61.6044 68.8134 61.8357 68.9462 62.2975 69.2128C62.2975 68.9438 62.2975 68.8092 62.2975 68.5394C61.8357 68.2728 61.6044 68.14 61.1435 67.8734C61.1435 68.1424 61.1435 68.2778 61.1435 68.5468ZM62.4968 69.3276C62.4968 69.454 62.4066 69.5048 62.2975 69.4416C61.8357 69.1751 61.6044 69.0422 61.1435 68.7756C61.0311 68.7108 60.9434 68.5616 60.9434 68.4311C60.9434 68.1621 60.9434 68.0276 60.9434 67.7578C60.9434 67.6273 61.0311 67.5798 61.1435 67.6446C61.6044 67.9111 61.8357 68.044 62.2975 68.3106C62.4066 68.3737 62.4968 68.5287 62.4968 68.6551C62.4968 68.9241 62.4968 69.0586 62.4968 69.3276Z" fill="#56638D"/>
<path d="M61.1454 70.2519C61.6072 70.5184 61.8377 70.6513 62.2995 70.9179C62.2995 70.6488 62.2995 70.5135 62.2995 70.2445C61.8377 69.9779 61.6064 69.8442 61.1454 69.5785C61.1454 69.8475 61.1454 69.982 61.1454 70.2519ZM62.4988 71.0327C62.4988 71.159 62.4086 71.2099 62.2995 71.1467C61.8377 70.8801 61.6072 70.7473 61.1454 70.4807C61.0331 70.4159 60.9453 70.2666 60.9453 70.1362C60.9453 69.8672 60.9453 69.7327 60.9453 69.4628C60.9453 69.3324 61.0331 69.2849 61.1454 69.3497C61.6064 69.6162 61.8377 69.7491 62.2995 70.0156C62.4086 70.0788 62.4988 70.2338 62.4988 70.3601C62.4988 70.6292 62.4988 70.7637 62.4988 71.0327Z" fill="#56638D"/>
<path d="M66.3765 74.3598C67.1155 74.7863 67.4846 74.9996 68.2228 75.4261C68.2228 74.9947 68.2228 74.779 68.2228 74.3475C67.4846 73.921 67.1155 73.7086 66.3765 73.2821C66.3765 73.7127 66.3765 73.9284 66.3765 74.3598ZM68.5427 75.6107C68.5427 75.8116 68.3992 75.8936 68.2228 75.7928C67.4846 75.3662 67.1155 75.153 66.3765 74.7265C66.1977 74.6231 66.0566 74.3844 66.0566 74.1753C66.0566 73.7439 66.0566 73.5282 66.0566 73.0976C66.0566 72.8884 66.1977 72.8121 66.3765 72.9155C67.1155 73.342 67.4846 73.5552 68.2228 73.9817C68.3992 74.0834 68.5427 74.3311 68.5427 74.5321C68.5427 74.9635 68.5427 75.1792 68.5427 75.6107Z" fill="#56638D"/>
<path d="M66.3765 77.4257C67.1155 77.8522 67.4846 78.0655 68.2228 78.492C68.2228 78.0606 68.2228 77.8457 68.2228 77.4143C67.4846 76.9878 67.1155 76.7745 66.3765 76.348C66.3765 76.7794 66.3765 76.9943 66.3765 77.4257ZM68.5427 78.6766C68.5427 78.8783 68.3992 78.9604 68.2228 78.8587C67.4846 78.4321 67.1155 78.2189 66.3765 77.7932C66.1977 77.689 66.0566 77.4504 66.0566 77.242C66.0566 76.8106 66.0566 76.5949 66.0566 76.1635C66.0566 75.9551 66.1977 75.8788 66.3765 75.9814C67.1155 76.4079 67.4846 76.6211 68.2228 77.0476C68.3992 77.1493 68.5427 77.3971 68.5427 77.5988C68.5427 78.0303 68.5427 78.2451 68.5427 78.6766Z" fill="#56638D"/>
<path d="M66.3765 80.4907C67.1155 80.9172 67.4846 81.1305 68.2228 81.557C68.2228 81.1255 68.2228 80.9098 68.2228 80.4784C67.4846 80.0519 67.1155 79.8386 66.3765 79.4121C66.3765 79.8436 66.3765 80.0593 66.3765 80.4907ZM68.5427 81.7415C68.5427 81.9425 68.3992 82.0245 68.2228 81.9236C67.4846 81.4971 67.1155 81.2839 66.3765 80.8573C66.1977 80.754 66.0566 80.5145 66.0566 80.3061C66.0566 79.8747 66.0566 79.659 66.0566 79.2284C66.0566 79.0193 66.1977 78.943 66.3765 79.0463C67.1155 79.4728 67.4846 79.6861 68.2228 80.1126C68.3992 80.2135 68.5427 80.462 68.5427 80.6629C68.5427 81.0944 68.5427 81.3101 68.5427 81.7415Z" fill="#56638D"/>
<path d="M66.3765 71.2935C67.1155 71.72 67.4846 71.9324 68.2228 72.3589C68.2228 71.9275 68.2228 71.7126 68.2228 71.2812C67.4846 70.8547 67.1155 70.6414 66.3765 70.2149C66.3765 70.6464 66.3765 70.8621 66.3765 71.2935ZM68.5427 72.5435C68.5427 72.7452 68.3992 72.8273 68.2228 72.7264C67.4846 72.2999 67.1155 72.0858 66.3765 71.6601C66.1977 71.5568 66.0566 71.3173 66.0566 71.1089C66.0566 70.6775 66.0566 70.4618 66.0566 70.0304C66.0566 69.822 66.1977 69.7457 66.3765 69.8491C67.1155 70.2756 67.4846 70.488 68.2228 70.9145C68.3992 71.0162 68.5427 71.2648 68.5427 71.4657C68.5427 71.8972 68.5427 72.112 68.5427 72.5435Z" fill="#56638D"/>
<path d="M66.3765 89.688C67.1155 90.1145 67.4846 90.3277 68.2228 90.7542C68.2228 90.3228 68.2228 90.1071 68.2228 89.6757C67.4846 89.25 67.1155 89.0359 66.3765 88.6102C66.3765 89.0408 66.3765 89.2565 66.3765 89.688ZM68.5427 90.9388C68.5427 91.1397 68.3992 91.2218 68.2228 91.1209C67.4846 90.6944 67.1155 90.4811 66.3765 90.0546C66.1977 89.9513 66.0566 89.7126 66.0566 89.5034C66.0566 89.072 66.0566 88.8563 66.0566 88.4257C66.0566 88.2165 66.1977 88.1402 66.3765 88.2436C67.1155 88.6701 67.4846 88.8833 68.2228 89.3099C68.3992 89.4107 68.5427 89.6593 68.5427 89.8602C68.5427 90.2916 68.5427 90.5073 68.5427 90.9388Z" fill="#56638D"/>
<path d="M68.2243 92.3752C67.482 91.9454 67.1145 91.7346 66.3804 91.313L66.2008 91.2745L66.1385 91.2974C66.0917 91.3286 66.0605 91.3991 66.0605 91.4926V91.6329L66.1696 91.696L66.209 91.719L66.3804 91.8207V91.6722L66.4903 91.7346C67.1539 92.125 67.5213 92.3366 68.2243 92.7426V92.8829L68.3333 92.9452L68.3727 92.969L68.5441 93.0625V92.9296C68.5441 92.727 68.3957 92.4769 68.2243 92.3752Z" fill="#56638D"/>
<path d="M66.3765 86.621C67.1155 87.0476 67.4846 87.2608 68.2228 87.6873C68.2228 87.2567 68.2228 87.041 68.2228 86.6096C67.4846 86.183 67.1155 85.9698 66.3765 85.5433C66.3765 85.9747 66.3765 86.1904 66.3765 86.621ZM68.5427 87.8719C68.5427 88.0736 68.3992 88.1557 68.2228 88.054C67.4846 87.6275 67.1155 87.4142 66.3765 86.9885C66.1977 86.8843 66.0566 86.6457 66.0566 86.4365C66.0566 86.0059 66.0566 85.7902 66.0566 85.3587C66.0566 85.1496 66.1977 85.0741 66.3765 85.1775C67.1155 85.6032 67.4846 85.8164 68.2228 86.2429C68.3992 86.3446 68.5427 86.5923 68.5427 86.7941C68.5427 87.2255 68.5427 87.4404 68.5427 87.8719Z" fill="#56638D"/>
<path d="M66.3765 59.0125C67.1155 59.439 67.4846 59.6515 68.2228 60.0788C68.2228 59.6474 68.2228 59.4316 68.2228 59.0002C67.4846 58.5737 67.1155 58.3604 66.3765 57.9339C66.3765 58.3653 66.3765 58.5811 66.3765 59.0125ZM68.5427 60.2625C68.5427 60.4643 68.3992 60.5463 68.2228 60.4446C67.4846 60.0189 67.1155 59.8048 66.3765 59.3783C66.1977 59.2758 66.0566 59.0363 66.0566 58.828C66.0566 58.3965 66.0566 58.1808 66.0566 57.7502C66.0566 57.5411 66.1977 57.4648 66.3765 57.5681C67.1155 57.9946 67.4846 58.2079 68.2228 58.6336C68.3992 58.7353 68.5427 58.983 68.5427 59.1847C68.5427 59.6162 68.5427 59.8319 68.5427 60.2625Z" fill="#56638D"/>
<path d="M66.3765 62.0786C67.1155 62.5051 67.4846 62.7183 68.2228 63.1449C68.2228 62.7134 68.2228 62.4977 68.2228 62.0671C67.4846 61.6406 67.1155 61.4274 66.3765 61.0009C66.3765 61.4315 66.3765 61.6472 66.3765 62.0786ZM68.5427 63.3294C68.5427 63.5304 68.3992 63.6124 68.2228 63.5115C67.4846 63.085 67.1155 62.8717 66.3765 62.4452C66.1977 62.3419 66.0566 62.1032 66.0566 61.894C66.0566 61.4626 66.0566 61.2469 66.0566 60.8163C66.0566 60.6072 66.1977 60.5309 66.3765 60.6342C67.1155 61.0607 67.4846 61.274 68.2228 61.7005C68.3992 61.8022 68.5427 62.0499 68.5427 62.2517C68.5427 62.6823 68.5427 62.898 68.5427 63.3294Z" fill="#56638D"/>
<path d="M66.3765 65.1445C67.1155 65.5718 67.4846 65.7842 68.2228 66.2108C68.2228 65.7793 68.2228 65.5644 68.2228 65.133C67.4846 64.7065 67.1155 64.4932 66.3765 64.0667C66.3765 64.4982 66.3765 64.7139 66.3765 65.1445ZM68.5427 66.3953C68.5427 66.5971 68.3992 66.6791 68.2228 66.5774C67.4846 66.1517 67.1155 65.9376 66.3765 65.5111C66.1977 65.4078 66.0566 65.1691 66.0566 64.9608C66.0566 64.5294 66.0566 64.3136 66.0566 63.8822C66.0566 63.673 66.1977 63.5976 66.3765 63.7001C67.1155 64.1266 67.4846 64.3399 68.2228 64.7664C68.3992 64.8681 68.5427 65.1158 68.5427 65.3175C68.5427 65.749 68.5427 65.9639 68.5427 66.3953Z" fill="#56638D"/>
<path d="M66.3765 55.9493C67.1155 56.3758 67.4846 56.5891 68.2228 57.0156C68.2228 56.5842 68.2228 56.3685 68.2228 55.9379C67.4846 55.5114 67.1155 55.2981 66.3765 54.8716C66.3765 55.3022 66.3765 55.5179 66.3765 55.9493ZM68.5427 57.2001C68.5427 57.4011 68.3992 57.4839 68.2228 57.3822C67.4846 56.9557 67.1155 56.7425 66.3765 56.316C66.1977 56.2126 66.0566 55.9739 66.0566 55.7648C66.0566 55.3333 66.0566 55.1177 66.0566 54.6871C66.0566 54.4779 66.1977 54.4016 66.3765 54.5049C67.1155 54.9315 67.4846 55.1447 68.2228 55.5712C68.3992 55.6729 68.5427 55.9206 68.5427 56.1224C68.5427 56.553 68.5427 56.7687 68.5427 57.2001Z" fill="#56638D"/>
<path d="M66.3765 43.7031C67.1155 44.1296 67.4846 44.3428 68.2228 44.7693C68.2228 44.3387 68.2228 44.123 68.2228 43.6916C67.4846 43.2651 67.1155 43.0518 66.3765 42.6253C66.3765 43.0567 66.3765 43.2725 66.3765 43.7031ZM68.5427 44.9539C68.5427 45.1557 68.3992 45.2377 68.2228 45.136C67.4846 44.7095 67.1155 44.497 66.3765 44.0705C66.1977 43.9664 66.0566 43.7277 66.0566 43.5193C66.0566 43.0879 66.0566 42.8722 66.0566 42.4408C66.0566 42.2324 66.1977 42.1562 66.3765 42.2587C67.1155 42.6852 67.4846 42.8993 68.2228 43.325C68.3992 43.4267 68.5427 43.6744 68.5427 43.8761C68.5427 44.3076 68.5427 44.5233 68.5427 44.9539Z" fill="#56638D"/>
<path d="M66.3765 46.7696C67.1155 47.1962 67.4846 47.4094 68.2228 47.8359C68.2228 47.4045 68.2228 47.1888 68.2228 46.7574C67.4846 46.3317 67.1155 46.1176 66.3765 45.6911C66.3765 46.1225 66.3765 46.3382 66.3765 46.7696ZM68.5427 48.0197C68.5427 48.2214 68.3992 48.3043 68.2228 48.2026C67.4846 47.7761 67.1155 47.5628 66.3765 47.1363C66.1977 47.033 66.0566 46.7943 66.0566 46.5851C66.0566 46.1537 66.0566 45.938 66.0566 45.5065C66.0566 45.2982 66.1977 45.2219 66.3765 45.3253C67.1155 45.7518 67.4846 45.965 68.2228 46.3915C68.3992 46.4924 68.5427 46.741 68.5427 46.9419C68.5427 47.3733 68.5427 47.5891 68.5427 48.0197Z" fill="#56638D"/>
<path d="M66.3765 49.8339C67.1155 50.2604 67.4846 50.4737 68.2228 50.9002C68.2228 50.4688 68.2228 50.2539 68.2228 49.8224C67.4846 49.3959 67.1155 49.1827 66.3765 48.7562C66.3765 49.1876 66.3765 49.4033 66.3765 49.8339ZM68.5427 51.0848C68.5427 51.2865 68.3992 51.3686 68.2228 51.2669C67.4846 50.8404 67.1155 50.6271 66.3765 50.2006C66.1977 50.0972 66.0566 49.8585 66.0566 49.6494C66.0566 49.2188 66.0566 49.0031 66.0566 48.5716C66.0566 48.3625 66.1977 48.2862 66.3765 48.3896C67.1155 48.8161 67.4846 49.0293 68.2228 49.4558C68.3992 49.5575 68.5427 49.8052 68.5427 50.007C68.5427 50.4376 68.5427 50.6533 68.5427 51.0848Z" fill="#56638D"/>
<path d="M66.3765 40.6388C67.1155 41.0653 67.4846 41.2785 68.2228 41.705C68.2228 41.2736 68.2228 41.0579 68.2228 40.6265C67.4846 40.2008 67.1155 39.9876 66.3765 39.561C66.3765 39.9917 66.3765 40.2073 66.3765 40.6388ZM68.5427 41.8896C68.5427 42.0905 68.3992 42.1734 68.2228 42.0717C67.4846 41.6452 67.1155 41.4319 66.3765 41.0054C66.1977 40.9021 66.0566 40.6634 66.0566 40.4542C66.0566 40.0228 66.0566 39.8079 66.0566 39.3765C66.0566 39.1674 66.1977 39.0911 66.3765 39.1944C67.1155 39.6209 67.4846 39.8342 68.2228 40.2607C68.3992 40.3624 68.5427 40.6101 68.5427 40.811C68.5427 41.2425 68.5427 41.4582 68.5427 41.8896Z" fill="#56638D"/>
<path d="M63.1611 40.0539C63.6229 40.3205 63.8533 40.4533 64.3143 40.7199C64.3143 40.4509 64.3143 40.3164 64.3143 40.0465C63.8533 39.78 63.622 39.6471 63.1611 39.3805C63.1611 39.6504 63.1611 39.7849 63.1611 40.0539ZM64.5144 40.8356C64.5144 40.9611 64.4242 41.0127 64.3143 40.9496C63.8533 40.683 63.6229 40.5501 63.1611 40.2836C63.0487 40.2188 62.9609 40.0695 62.9609 39.9391C62.9609 39.6692 62.9609 39.5347 62.9609 39.2649C62.9609 39.1353 63.0487 39.0869 63.1611 39.1517C63.622 39.4183 63.8533 39.5511 64.3143 39.8177C64.4242 39.8808 64.5144 40.0359 64.5144 40.1622C64.5144 40.4312 64.5144 40.5657 64.5144 40.8356Z" fill="#56638D"/>
<path d="M63.1611 41.968C63.6229 42.2346 63.8533 42.3674 64.3143 42.634C64.3143 42.365 64.3143 42.2305 64.3143 41.9606C63.8533 41.694 63.622 41.5612 63.1611 41.2946C63.1611 41.5636 63.1611 41.699 63.1611 41.968ZM64.5144 42.7497C64.5144 42.8752 64.4242 42.9268 64.3143 42.8636C63.8533 42.5971 63.6229 42.4642 63.1611 42.1977C63.0487 42.1329 62.9609 41.9836 62.9609 41.8532C62.9609 41.5833 62.9609 41.4488 62.9609 41.1798C62.9609 41.0494 63.0487 41.001 63.1611 41.0658C63.622 41.3323 63.8533 41.4652 64.3143 41.7318C64.4242 41.7949 64.5144 41.95 64.5144 42.0763C64.5144 42.3453 64.5144 42.4806 64.5144 42.7497Z" fill="#56638D"/>
<path d="M63.1611 43.8829C63.6229 44.1486 63.8533 44.2823 64.3143 44.5489C64.3143 44.279 64.3143 44.1445 64.3143 43.8747C63.8533 43.6089 63.622 43.4752 63.1611 43.2087C63.1611 43.4785 63.1611 43.613 63.1611 43.8829ZM64.5144 44.6637C64.5144 44.7892 64.4242 44.8409 64.3143 44.7777C63.8533 44.5111 63.6229 44.3775 63.1611 44.1117C63.0487 44.0469 62.9609 43.8976 62.9609 43.7672C62.9609 43.4974 62.9609 43.3629 62.9609 43.0938C62.9609 42.9626 63.0487 42.9158 63.1611 42.9798C63.622 43.2464 63.8533 43.3793 64.3143 43.6458C64.4242 43.7098 64.5144 43.864 64.5144 43.9903C64.5144 44.2593 64.5144 44.3947 64.5144 44.6637Z" fill="#56638D"/>
<path d="M63.1611 38.1382C63.6229 38.4048 63.8533 38.5385 64.3143 38.8042C64.3143 38.5352 64.3143 38.4007 64.3143 38.1308C63.8533 37.8642 63.622 37.7314 63.1611 37.4648C63.1611 37.7339 63.1611 37.8692 63.1611 38.1382ZM64.5144 38.9199C64.5144 39.0454 64.4242 39.097 64.3143 39.033C63.8533 38.7673 63.6229 38.6336 63.1611 38.3671C63.0487 38.3031 62.9609 38.1538 62.9609 38.0226C62.9609 37.7535 62.9609 37.619 62.9609 37.3492C62.9609 37.2188 63.0487 37.1712 63.1611 37.236C63.622 37.5026 63.8533 37.6354 64.3143 37.902C64.4242 37.9651 64.5144 38.1202 64.5144 38.2465C64.5144 38.5155 64.5144 38.65 64.5144 38.9199Z" fill="#56638D"/>
<path d="M61.0333 63.5108C61.4951 63.7774 61.7256 63.9111 62.1873 64.1776C62.1873 63.9078 62.1873 63.7733 62.1873 63.5042C61.7256 63.2377 61.4951 63.1048 61.0333 62.8382C61.0333 63.1073 61.0333 63.2418 61.0333 63.5108ZM62.3866 64.2925C62.3866 64.4188 62.2972 64.4696 62.1873 64.4065C61.7256 64.1399 61.4951 64.007 61.0333 63.7405C60.9217 63.6757 60.834 63.5264 60.834 63.396C60.834 63.1269 60.834 62.9916 60.834 62.7226C60.834 62.5922 60.9217 62.5438 61.0333 62.6086C61.4951 62.8752 61.7256 63.0088 62.1873 63.2746C62.2972 63.3385 62.3866 63.4928 62.3866 63.6191C62.3866 63.8881 62.3866 64.0234 62.3866 64.2925Z" fill="#56638D"/>
<path d="M61.0333 65.2139C61.4951 65.4805 61.7256 65.6142 62.1873 65.8808C62.1873 65.6109 62.1873 65.4764 62.1873 65.2074C61.7256 64.9408 61.4951 64.8071 61.0333 64.5405C61.0333 64.8104 61.0333 64.9449 61.0333 65.2139ZM62.3866 65.9956C62.3866 66.1219 62.2972 66.1728 62.1873 66.1096C61.7256 65.843 61.4951 65.7093 61.0333 65.4427C60.9217 65.3788 60.834 65.2295 60.834 65.0991C60.834 64.8292 60.834 64.6947 60.834 64.4257C60.834 64.2953 60.9217 64.2469 61.0333 64.3117C61.4951 64.5782 61.7256 64.7119 62.1873 64.9777C62.2972 65.0417 62.3866 65.1959 62.3866 65.3222C62.3866 65.5912 62.3866 65.7257 62.3866 65.9956Z" fill="#56638D"/>
<path d="M60.9037 66.1681L60.834 66.0156L60.9275 65.9549L61.0316 66.0656C61.5435 66.7037 61.7994 67.0228 62.3112 67.6609L62.3866 67.8168L62.2931 67.875L62.2152 67.8053C61.6911 67.1499 61.4286 66.8235 60.9037 66.1681Z" fill="#56638D"/>
<path d="M61.0333 68.6245C61.4951 68.8911 61.7256 69.024 62.1873 69.2905C62.1873 69.0215 62.1873 68.887 62.1873 68.6171C61.7256 68.3506 61.4951 68.2177 61.0333 67.9511C61.0333 68.2202 61.0333 68.3555 61.0333 68.6245ZM62.3866 69.4062C62.3866 69.5317 62.2972 69.5833 62.1873 69.5194C61.7256 69.2536 61.4951 69.1199 61.0333 68.8534C60.9217 68.7886 60.834 68.6401 60.834 68.5089C60.834 68.2399 60.834 68.1053 60.834 67.8363C60.834 67.7051 60.9217 67.6575 61.0333 67.7223C61.4951 67.9889 61.7256 68.1217 62.1873 68.3883C62.2972 68.4515 62.3866 68.6065 62.3866 68.7328C62.3866 69.0018 62.3866 69.1363 62.3866 69.4062Z" fill="#56638D"/>
<path d="M61.0333 70.3296C61.4951 70.5953 61.7256 70.729 62.1873 70.9956C62.1873 70.7266 62.1873 70.5912 62.1873 70.3222C61.7256 70.0557 61.4951 69.9228 61.0333 69.6562C61.0333 69.9252 61.0333 70.0597 61.0333 70.3296ZM62.3875 71.1113C62.3875 71.2368 62.2972 71.2884 62.1873 71.2244C61.7256 70.9579 61.4951 70.825 61.0333 70.5584C60.9217 70.4936 60.834 70.3452 60.834 70.214C60.834 69.9449 60.834 69.8104 60.834 69.5414C60.834 69.4101 60.9217 69.3626 61.0333 69.4266C61.4951 69.6931 61.7256 69.8268 62.1873 70.0934C62.2972 70.1565 62.3875 70.3116 62.3875 70.4379C62.3875 70.7069 62.3875 70.8414 62.3875 71.1113Z" fill="#56638D"/>
<path d="M66.2085 74.3829C66.9467 74.8095 67.3166 75.0227 68.0548 75.4492C68.0548 75.0178 68.0548 74.8021 68.0548 74.3707C67.3158 73.9441 66.9467 73.7309 66.2085 73.3044C66.2085 73.7358 66.2085 73.9515 66.2085 74.3829ZM68.3747 75.6338C68.3747 75.8347 68.2304 75.9175 68.0548 75.8158C67.3166 75.3893 66.9467 75.1761 66.2085 74.7496C66.0297 74.6462 65.8887 74.4076 65.8887 74.1984C65.8887 73.767 65.8887 73.5521 65.8887 73.1198C65.8887 72.9115 66.0297 72.8352 66.2085 72.9386C66.9467 73.3651 67.3158 73.5783 68.0548 74.0048C68.2304 74.1057 68.3747 74.3542 68.3747 74.5552C68.3747 74.9866 68.3747 75.2023 68.3747 75.6338Z" fill="white"/>
<path d="M66.2085 77.4492C66.9467 77.8757 67.3166 78.089 68.0548 78.5155C68.0548 78.0849 68.0548 77.8683 68.0548 77.4377C67.3158 77.0112 66.9467 76.7979 66.2085 76.3714C66.2085 76.8029 66.2085 77.0186 66.2085 77.4492ZM68.3747 78.7C68.3747 78.9018 68.2304 78.9838 68.0548 78.8821C67.3166 78.4556 66.9467 78.2423 66.2085 77.8158C66.0297 77.7125 65.8887 77.4738 65.8887 77.2647C65.8887 76.834 65.8887 76.6183 65.8887 76.1869C65.8887 75.9777 66.0297 75.9014 66.2085 76.0048C66.9467 76.4313 67.3158 76.6446 68.0548 77.0711C68.2304 77.1728 68.3747 77.4205 68.3747 77.6223C68.3747 78.0529 68.3747 78.2686 68.3747 78.7Z" fill="white"/>
<path d="M66.2085 80.5161C66.9467 80.9427 67.3166 81.1559 68.0548 81.5816C68.0548 81.151 68.0548 80.9353 68.0548 80.5038C67.3158 80.0773 66.9467 79.8641 66.2085 79.4376C66.2085 79.869 66.2085 80.0847 66.2085 80.5161ZM68.3747 81.7661C68.3747 81.9679 68.2304 82.0499 68.0548 81.949C67.3166 81.5225 66.9467 81.3093 66.2085 80.8828C66.0297 80.7794 65.8887 80.5407 65.8887 80.3316C65.8887 79.9002 65.8887 79.6845 65.8887 79.253C65.8887 79.0447 66.0297 78.9684 66.2085 79.0718C66.9467 79.4983 67.3158 79.7115 68.0548 80.138C68.2304 80.2389 68.3747 80.4874 68.3747 80.6884C68.3747 81.1198 68.3747 81.3355 68.3747 81.7661Z" fill="white"/>
<path d="M66.2085 71.3183C66.9467 71.7449 67.3166 71.9581 68.0548 72.3846C68.0548 71.954 68.0548 71.7383 68.0548 71.3069C67.3158 70.8803 66.9467 70.6671 66.2085 70.2406C66.2085 70.672 66.2085 70.8877 66.2085 71.3183ZM68.3747 72.5692C68.3747 72.7709 68.2304 72.8529 68.0548 72.7512C67.3166 72.3247 66.9467 72.1123 66.2085 71.6858C66.0297 71.5816 65.8887 71.343 65.8887 71.1338C65.8887 70.7032 65.8887 70.4875 65.8887 70.056C65.8887 69.8477 66.0297 69.7714 66.2085 69.8739C66.9467 70.3004 67.3158 70.5137 68.0548 70.9402C68.2304 71.0419 68.3747 71.2896 68.3747 71.4914C68.3747 71.9228 68.3747 72.1386 68.3747 72.5692Z" fill="white"/>
<path d="M66.2085 89.7114C66.9467 90.1379 67.3166 90.3512 68.0548 90.7777C68.0548 90.3463 68.0548 90.1305 68.0548 89.6991C67.3158 89.2726 66.9467 89.0593 66.2085 88.6328C66.2085 89.0643 66.2085 89.28 66.2085 89.7114ZM68.3747 90.9622C68.3747 91.1632 68.2304 91.2452 68.0548 91.1443C67.3166 90.7178 66.9467 90.5045 66.2085 90.078C66.0297 89.9747 65.8887 89.736 65.8887 89.5269C65.8887 89.0955 65.8887 88.8797 65.8887 88.4491C65.8887 88.24 66.0297 88.1637 66.2085 88.267C66.9467 88.6935 67.3158 88.9068 68.0548 89.3333C68.2304 89.4342 68.3747 89.6827 68.3747 89.8836C68.3747 90.3151 68.3747 90.5308 68.3747 90.9622Z" fill="white"/>
<path d="M68.3329 92.7653L68.2705 92.6251C68.2156 92.5308 68.1377 92.4455 68.0515 92.3987C67.3175 91.9763 66.95 91.7581 66.2085 91.3365L66.1848 91.321L66.138 91.2972C65.9895 91.2504 65.8887 91.3365 65.8887 91.5162V91.5317L66.0601 91.6326L66.1692 91.6958L66.2085 91.7188V91.7032L66.38 91.7975L66.4899 91.8598C67.0517 92.1879 67.4192 92.3905 68.0515 92.7653V92.7809L68.2238 92.8826L68.3329 92.945L68.3722 92.9688V92.9532L68.3329 92.7653Z" fill="white"/>
<path d="M66.2085 86.6445C66.9467 87.071 67.3166 87.2842 68.0548 87.7108C68.0548 87.2793 68.0548 87.0645 68.0548 86.633C67.3158 86.2065 66.9467 85.9933 66.2085 85.5668C66.2085 85.9982 66.2085 86.2139 66.2085 86.6445ZM68.3747 87.8953C68.3747 88.0971 68.2304 88.1791 68.0548 88.0774C67.3166 87.6509 66.9467 87.4376 66.2085 87.0111C66.0297 86.9078 65.8887 86.6691 65.8887 86.4599C65.8887 86.0293 65.8887 85.8136 65.8887 85.3822C65.8887 85.1731 66.0297 85.0968 66.2085 85.2001C66.9467 85.6266 67.3158 85.8399 68.0548 86.2664C68.2304 86.3681 68.3747 86.6158 68.3747 86.8176C68.3747 87.249 68.3747 87.4639 68.3747 87.8953Z" fill="white"/>
<path d="M66.2085 59.0387C66.9467 59.4661 67.3166 59.6785 68.0548 60.105C68.0548 59.6744 68.0548 59.4587 68.0548 59.0272C67.3158 58.6007 66.9467 58.3875 66.2085 57.961C66.2085 58.3924 66.2085 58.6081 66.2085 59.0387ZM68.3747 60.2896C68.3747 60.4913 68.2304 60.5733 68.0548 60.4725C67.3166 60.046 66.9467 59.8319 66.2085 59.4062C66.0297 59.302 65.8887 59.0633 65.8887 58.855C65.8887 58.4236 65.8887 58.2079 65.8887 57.7764C65.8887 57.5681 66.0297 57.4918 66.2085 57.5952C66.9467 58.0209 67.3158 58.2341 68.0548 58.6606C68.2304 58.7623 68.3747 59.0108 68.3747 59.2118C68.3747 59.6432 68.3747 59.8589 68.3747 60.2896Z" fill="white"/>
<path d="M66.2085 62.1036C66.9467 62.5302 67.3166 62.7434 68.0548 63.1699C68.0548 62.7385 68.0548 62.5228 68.0548 62.0914C67.3158 61.6648 66.9467 61.4524 66.2085 61.0259C66.2085 61.4565 66.2085 61.6722 66.2085 62.1036ZM68.3747 63.3545C68.3747 63.5554 68.2304 63.6382 68.0548 63.5365C67.3166 63.11 66.9467 62.8968 66.2085 62.4703C66.0297 62.3669 65.8887 62.1274 65.8887 61.9191C65.8887 61.4877 65.8887 61.2728 65.8887 60.8413C65.8887 60.6322 66.0297 60.5559 66.2085 60.6593C66.9467 61.0858 67.3158 61.299 68.0548 61.7255C68.2304 61.8264 68.3747 62.075 68.3747 62.2759C68.3747 62.7073 68.3747 62.923 68.3747 63.3545Z" fill="white"/>
<path d="M66.2085 65.168C66.9467 65.5945 67.3166 65.8077 68.0548 66.2342C68.0548 65.8036 68.0548 65.5879 68.0548 65.1565C67.3158 64.73 66.9467 64.5167 66.2085 64.0902C66.2085 64.5216 66.2085 64.7373 66.2085 65.168ZM68.3747 66.4188C68.3747 66.6205 68.2304 66.7025 68.0548 66.6008C67.3166 66.1743 66.9467 65.9611 66.2085 65.5354C66.0297 65.4312 65.8887 65.1926 65.8887 64.9834C65.8887 64.5528 65.8887 64.3371 65.8887 63.9056C65.8887 63.6973 66.0297 63.6202 66.2085 63.7235C66.9467 64.15 67.3158 64.3633 68.0548 64.7898C68.2304 64.8915 68.3747 65.1392 68.3747 65.341C68.3747 65.7724 68.3747 65.9882 68.3747 66.4188Z" fill="white"/>
<path d="M66.2085 55.9726C66.9467 56.3992 67.3166 56.6124 68.0548 57.0389C68.0548 56.6075 68.0548 56.3918 68.0548 55.9603C67.3158 55.5338 66.9467 55.3214 66.2085 54.8949C66.2085 55.3263 66.2085 55.5412 66.2085 55.9726ZM68.3747 57.2235C68.3747 57.4252 68.2304 57.5072 68.0548 57.4055C67.3166 56.979 66.9467 56.7658 66.2085 56.3393C66.0297 56.2359 65.8887 55.9972 65.8887 55.7881C65.8887 55.3567 65.8887 55.1418 65.8887 54.7103C65.8887 54.5012 66.0297 54.4249 66.2085 54.5283C66.9467 54.9548 67.3158 55.168 68.0548 55.5945C68.2304 55.6962 68.3747 55.9439 68.3747 56.1449C68.3747 56.5763 68.3747 56.792 68.3747 57.2235Z" fill="white"/>
<path d="M66.2085 43.7285C66.9467 44.155 67.3166 44.3682 68.0548 44.7947C68.0548 44.3633 68.0548 44.1476 68.0548 43.717C67.3158 43.2905 66.9467 43.0773 66.2085 42.6507C66.2085 43.0822 66.2085 43.2979 66.2085 43.7285ZM68.3747 44.9793C68.3747 45.1811 68.2304 45.2631 68.0548 45.1614C67.3166 44.7349 66.9467 44.5216 66.2085 44.0951C66.0297 43.9926 65.8887 43.7531 65.8887 43.5439C65.8887 43.1133 65.8887 42.8976 65.8887 42.4662C65.8887 42.257 66.0297 42.1808 66.2085 42.2849C66.9467 42.7106 67.3158 42.9239 68.0548 43.3504C68.2304 43.4521 68.3747 43.6998 68.3747 43.9016C68.3747 44.3322 68.3747 44.5479 68.3747 44.9793Z" fill="white"/>
<path d="M66.2085 46.7935C66.9467 47.2192 67.3166 47.4332 68.0548 47.8597C68.0548 47.4283 68.0548 47.2126 68.0548 46.7811C67.3158 46.3546 66.9467 46.1414 66.2085 45.7157C66.2085 46.1463 66.2085 46.362 66.2085 46.7935ZM68.3747 48.0443C68.3747 48.2452 68.2304 48.3272 68.0548 48.2263C67.3166 47.7998 66.9467 47.5866 66.2085 47.1601C66.0297 47.0567 65.8887 46.8181 65.8887 46.6089C65.8887 46.1775 65.8887 45.9618 65.8887 45.5312C65.8887 45.322 66.0297 45.2457 66.2085 45.349C66.9467 45.7756 67.3158 45.9888 68.0548 46.4153C68.2304 46.5162 68.3747 46.7639 68.3747 46.9657C68.3747 47.3971 68.3747 47.6129 68.3747 48.0443Z" fill="white"/>
<path d="M66.2085 49.8595C66.9467 50.286 67.3166 50.4992 68.0548 50.9257C68.0548 50.4943 68.0548 50.2786 68.0548 49.848C67.3158 49.4215 66.9467 49.2083 66.2085 48.7818C66.2085 49.2124 66.2085 49.428 66.2085 49.8595ZM68.3747 51.1103C68.3747 51.3112 68.2304 51.3941 68.0548 51.2924C67.3166 50.8659 66.9467 50.6526 66.2085 50.2261C66.0297 50.1228 65.8887 49.8841 65.8887 49.6749C65.8887 49.2435 65.8887 49.0286 65.8887 48.5972C65.8887 48.3881 66.0297 48.3118 66.2085 48.4151C66.9467 48.8416 67.3158 49.0549 68.0548 49.4814C68.2304 49.5831 68.3747 49.8308 68.3747 50.0326C68.3747 50.4632 68.3747 50.6789 68.3747 51.1103Z" fill="white"/>
<path d="M66.2085 40.6642C66.9467 41.0907 67.3166 41.304 68.0548 41.7305C68.0548 41.299 68.0548 41.0833 68.0548 40.6527C67.3158 40.2262 66.9467 40.0121 66.2085 39.5864C66.2085 40.017 66.2085 40.2328 66.2085 40.6642ZM68.3747 41.915C68.3747 42.116 68.2304 42.1988 68.0548 42.0971C67.3166 41.6706 66.9467 41.4573 66.2085 41.0308C66.0297 40.9275 65.8887 40.6888 65.8887 40.4796C65.8887 40.0482 65.8887 39.8325 65.8887 39.4019C65.8887 39.1927 66.0297 39.1164 66.2085 39.2198C66.9467 39.6463 67.3158 39.8595 68.0548 40.2861C68.2304 40.3869 68.3747 40.6355 68.3747 40.8372C68.3747 41.2679 68.3747 41.4836 68.3747 41.915Z" fill="white"/>
<path d="M62.9923 40.0776C63.4541 40.3442 63.6845 40.4771 64.1463 40.7437C64.1463 40.4738 64.1463 40.3393 64.1463 40.0703C63.6845 39.8037 63.4541 39.6708 62.9923 39.4043C62.9923 39.6733 62.9923 39.8086 62.9923 40.0776ZM64.3456 40.8593C64.3456 40.9848 64.2562 41.0365 64.1463 40.9725C63.6845 40.7068 63.4541 40.5731 62.9923 40.3065C62.8807 40.2425 62.793 40.0932 62.793 39.9628C62.793 39.693 62.793 39.5585 62.793 39.2894C62.793 39.1582 62.8807 39.1106 62.9923 39.1754C63.4541 39.442 63.6845 39.5749 64.1463 39.8414C64.2562 39.9046 64.3456 40.0596 64.3456 40.1859C64.3456 40.4549 64.3456 40.5894 64.3456 40.8593Z" fill="white"/>
<path d="M62.9923 41.9917C63.4541 42.2583 63.6845 42.392 64.1463 42.6577C64.1463 42.3887 64.1463 42.2542 64.1463 41.9843C63.6845 41.7178 63.4541 41.5849 62.9923 41.3184C62.9923 41.5874 62.9923 41.7227 62.9923 41.9917ZM64.3456 42.7734C64.3456 42.8989 64.2562 42.9505 64.1463 42.8866C63.6845 42.6208 63.4541 42.4871 62.9923 42.2206C62.8807 42.1566 62.793 42.0073 62.793 41.8761C62.793 41.607 62.793 41.4725 62.793 41.2027C62.793 41.0723 62.8807 41.0247 62.9923 41.0895C63.4541 41.3561 63.6845 41.4889 64.1463 41.7555C64.2562 41.8195 64.3456 41.9737 64.3456 42.1C64.3456 42.369 64.3456 42.5035 64.3456 42.7734Z" fill="white"/>
<path d="M62.9923 43.9094C63.4541 44.176 63.6845 44.3088 64.1463 44.5754C64.1463 44.3063 64.1463 44.1718 64.1463 43.902C63.6845 43.6354 63.4541 43.5025 62.9923 43.236C62.9923 43.5058 62.9923 43.6404 62.9923 43.9094ZM64.3456 44.691C64.3456 44.8165 64.2562 44.8682 64.1463 44.8051C63.6845 44.5385 63.4541 44.4056 62.9923 44.139C62.8807 44.0742 62.793 43.925 62.793 43.7945C62.793 43.5247 62.793 43.3902 62.793 43.1203C62.793 42.9908 62.8807 42.9424 62.9923 43.0072C63.4541 43.2737 63.6845 43.4066 64.1463 43.6731C64.2562 43.7363 64.3456 43.8913 64.3456 44.0177C64.3456 44.2867 64.3456 44.4212 64.3456 44.691Z" fill="white"/>
<path d="M62.9923 38.1637C63.4541 38.4302 63.6845 38.5631 64.1463 38.8297C64.1463 38.5607 64.1463 38.4253 64.1463 38.1563C63.6845 37.8897 63.4541 37.7569 62.9923 37.4903C62.9923 37.7593 62.9923 37.8947 62.9923 38.1637ZM64.3456 38.9445C64.3456 39.0708 64.2562 39.1217 64.1463 39.0593C63.6845 38.7928 63.4541 38.6591 62.9923 38.3925C62.8807 38.3285 62.793 38.1785 62.793 38.0489C62.793 37.779 62.793 37.6445 62.793 37.3746C62.793 37.2442 62.8807 37.1967 62.9923 37.2615C63.4541 37.528 63.6845 37.6609 64.1463 37.9275C64.2562 37.9906 64.3456 38.1456 64.3456 38.2711C64.3456 38.541 64.3456 38.6755 64.3456 38.9445Z" fill="white"/>
<path d="M60.8653 63.5343C61.3271 63.8008 61.5576 63.9337 62.0194 64.2003C62.0194 63.9312 62.0194 63.7967 62.0194 63.5277C61.5576 63.2611 61.3271 63.1274 60.8653 62.8609C60.8653 63.1307 60.8653 63.2652 60.8653 63.5343ZM62.2187 64.3159C62.2187 64.4422 62.1284 64.4931 62.0194 64.4299C61.5576 64.1633 61.3271 64.0296 60.8653 63.7639C60.7538 63.6991 60.666 63.5498 60.666 63.4194C60.666 63.1496 60.666 63.0151 60.666 62.746C60.666 62.6156 60.7538 62.5672 60.8653 62.632C61.3271 62.8986 61.5576 63.0315 62.0194 63.298C62.1284 63.3612 62.2187 63.5162 62.2187 63.6425C62.2187 63.9115 62.2187 64.0469 62.2187 64.3159Z" fill="white"/>
<path d="M60.8653 65.2395C61.3271 65.506 61.5576 65.6389 62.0194 65.9055C62.0194 65.6365 62.0194 65.5019 62.0194 65.2329C61.5576 64.9663 61.3271 64.8327 60.8653 64.5661C60.8653 64.8359 60.8653 64.9704 60.8653 65.2395ZM62.2187 66.0211C62.2187 66.1466 62.1284 66.1983 62.0194 66.1351C61.5576 65.8686 61.3271 65.7349 60.8653 65.4691C60.7538 65.4043 60.666 65.2551 60.666 65.1247C60.666 64.8548 60.666 64.7203 60.666 64.4513C60.666 64.3209 60.7538 64.2725 60.8653 64.3372C61.3271 64.6038 61.5576 64.7367 62.0194 65.0033C62.1284 65.0664 62.2187 65.2214 62.2187 65.3477C62.2187 65.6168 62.2187 65.7513 62.2187 66.0211Z" fill="white"/>
<path d="M60.7357 66.1955L60.666 66.0429L60.7595 65.9831L60.8637 66.093C61.3755 66.7311 61.6314 67.0502 62.1432 67.6883L62.2187 67.8441L62.1252 67.9023L62.0473 67.8327C61.5223 67.1781 61.2599 66.8501 60.7357 66.1955Z" fill="white"/>
<path d="M60.8653 68.6484C61.3271 68.9149 61.5576 69.0478 62.0194 69.3143C62.0194 69.0453 62.0194 68.9108 62.0194 68.641C61.5576 68.3744 61.3271 68.2415 60.8653 67.975C60.8653 68.244 60.8653 68.3793 60.8653 68.6484ZM62.2187 69.4292C62.2187 69.5555 62.1284 69.6063 62.0194 69.5432C61.5576 69.2766 61.3271 69.1438 60.8653 68.8772C60.7538 68.8124 60.666 68.6631 60.666 68.5327C60.666 68.2637 60.666 68.1292 60.666 67.8593C60.666 67.7289 60.7538 67.6813 60.8653 67.7461C61.3271 68.0127 61.5576 68.1455 62.0194 68.4121C62.1284 68.4753 62.2187 68.6303 62.2187 68.7566C62.2187 69.0256 62.2187 69.1602 62.2187 69.4292Z" fill="white"/>
<path d="M60.8653 70.3554C61.3271 70.622 61.5576 70.7548 62.0194 71.0214C62.0194 70.7523 62.0194 70.617 62.0194 70.348C61.5576 70.0814 61.3271 69.9486 60.8653 69.682C60.8653 69.951 60.8653 70.0855 60.8653 70.3554ZM62.2187 71.1362C62.2187 71.2625 62.1293 71.3134 62.0194 71.2502C61.5576 70.9836 61.3271 70.8508 60.8653 70.5842C60.7538 70.5194 60.666 70.3701 60.666 70.2397C60.666 69.9707 60.666 69.8362 60.666 69.5663C60.666 69.4359 60.7538 69.3884 60.8653 69.4532C61.3271 69.7197 61.5576 69.8526 62.0194 70.1191C62.1284 70.1823 62.2187 70.3373 62.2187 70.4636C62.2187 70.7327 62.2187 70.8672 62.2187 71.1362Z" fill="white"/>
<path d="M56.7617 32.3322C56.7617 32.1665 56.8191 32.1041 56.943 32.105C57.0841 32.1058 57.1554 32.1058 57.2965 32.1058C57.3613 32.1058 57.422 32.1189 57.4966 32.1615C57.5803 32.2099 57.6311 32.2575 57.7074 32.3452C57.8485 32.5077 57.9182 32.5889 58.0593 32.7521C58.1905 32.903 58.2422 33.0277 58.2422 33.1975C58.2422 33.3476 58.2422 33.423 58.2422 33.5731L58.147 33.6289L58.0519 33.4632C58.0519 33.3156 58.0519 33.2426 58.0519 33.0941C58.0519 32.999 58.0437 32.9793 57.9715 32.8956C57.8395 32.7423 57.773 32.666 57.641 32.5126L57.4966 32.3822L57.3646 32.3535C57.2333 32.3526 57.1677 32.3518 57.0357 32.351C56.9577 32.3502 56.952 32.369 56.952 32.4683C56.952 32.6126 56.952 32.684 56.952 32.8284L56.8569 32.8842L56.7617 32.7185C56.7617 32.5643 56.7617 32.4864 56.7617 32.3322Z" fill="white"/>
<path d="M57.7911 34.5252V34.5202C57.5852 34.3324 57.4819 34.2381 57.2752 34.0503C57.2752 34.1897 57.2752 34.2586 57.2752 34.3981C57.4819 34.4489 57.5852 34.4735 57.7911 34.5252ZM58.1446 34.6138L58.2422 34.7827L58.1446 34.8418C57.6295 34.7155 57.3719 34.6515 56.8569 34.5252L56.7617 34.3636L56.8569 34.2996C56.9487 34.3193 56.9938 34.33 57.0857 34.3497C57.0857 34.161 57.0857 34.0675 57.0857 33.8789C56.9938 33.7927 56.9487 33.7493 56.8569 33.6631L56.7617 33.4885L56.8569 33.4376C57.3719 33.9084 57.6295 34.1438 58.1446 34.6138Z" fill="white"/>
<path d="M57.753 35.8206C57.753 36.0175 57.753 36.1151 57.753 36.3111C57.753 36.3735 57.7563 36.4727 57.8326 36.517L57.9638 36.5925C58.0401 36.6359 58.05 36.5515 58.05 36.485C58.05 36.2882 58.05 36.1889 58.05 35.9921C57.931 35.924 57.872 35.8895 57.753 35.8206ZM56.8549 35.3023C56.7942 35.2678 56.7598 35.217 56.7598 35.1374C56.7598 35.0578 56.7942 35.0464 56.8549 35.0817C57.4094 35.4015 57.6858 35.5615 58.2402 35.8814C58.2402 36.1783 58.2402 36.3267 58.2402 36.6236C58.2402 36.7983 58.1336 36.9115 57.9638 36.8131L57.8326 36.7377C57.6538 36.6343 57.5628 36.4096 57.5628 36.2324C57.5628 36.1512 57.5628 36.1102 57.5628 36.029C57.3175 36.0864 57.1953 36.1159 56.95 36.1734L56.8492 36.1701L56.7598 36.006L56.8131 35.9396C57.1133 35.8682 57.2634 35.833 57.5628 35.7616V35.7108C57.2798 35.5475 57.1379 35.4655 56.8549 35.3023Z" fill="white"/>
<path d="M56.952 37.2207V37.2625C56.952 37.3552 56.9619 37.3831 57.0324 37.4634C57.1677 37.6193 57.235 37.698 57.3703 37.8538L57.4942 37.967L57.65 38.0015C57.7788 38.0023 57.8428 38.0031 57.9715 38.0039C58.0535 38.0048 58.0519 37.9834 58.0519 37.8817V37.8555C57.6123 37.602 57.3916 37.4749 56.952 37.2207ZM58.0519 37.6348V37.5528L58.147 37.4732L58.2422 37.6562C58.2422 37.8038 58.2422 37.8776 58.2422 38.0252C58.2422 38.1975 58.1807 38.2484 58.0519 38.2492C57.9174 38.2492 57.8509 38.25 57.7164 38.25C57.6385 38.2492 57.5836 38.2393 57.4966 38.1893C57.4203 38.145 57.3555 38.0835 57.2866 38.0039C57.1488 37.844 57.0791 37.7636 56.9405 37.6028C56.806 37.4478 56.7617 37.3232 56.7617 37.1509C56.7617 37.0041 56.7617 36.9303 56.7617 36.7835L56.8569 36.7285L56.952 36.8934V37C57.3916 37.2542 57.6123 37.3806 58.0519 37.6348Z" fill="white"/>
<path d="M57.4064 38.9098C57.1866 38.7827 57.0767 38.7195 56.8569 38.5924C56.7962 38.5571 56.7617 38.5063 56.7617 38.4267C56.7617 38.3472 56.7962 38.3365 56.8569 38.3717C57.3728 38.6695 57.6311 38.818 58.147 39.1157C58.2077 39.151 58.2422 39.2018 58.2422 39.2814C58.2422 39.3609 58.2077 39.3724 58.147 39.3371C57.9272 39.21 57.8165 39.1469 57.5967 39.0197C57.5967 39.2797 57.5967 39.4093 57.5967 39.6693C57.8165 39.7965 57.9272 39.8596 58.147 39.9868C58.2077 40.022 58.2422 40.0729 58.2422 40.1524C58.2422 40.232 58.2077 40.2427 58.147 40.2074C57.6311 39.9097 57.3728 39.7612 56.8569 39.4634C56.7962 39.4282 56.7617 39.3773 56.7617 39.2978C56.7617 39.2182 56.7962 39.2067 56.8569 39.242C57.0767 39.3691 57.1866 39.4323 57.4064 39.5594C57.4064 39.2994 57.4064 39.1698 57.4064 38.9098Z" fill="white"/>
<path d="M57.9945 41.2953L58.0519 41.2534L57.9945 41.1452C57.8567 40.986 57.7878 40.9065 57.65 40.7474L57.4966 40.6079L57.3703 40.5727C57.2259 40.5743 57.1538 40.5751 57.0094 40.5759L56.952 40.6186L57.0094 40.7268C57.1538 40.895 57.2259 40.9795 57.3703 41.1476L57.4966 41.2575L57.65 41.2953C57.7878 41.2953 57.8567 41.2953 57.9945 41.2953ZM57.7074 41.543C57.6328 41.5421 57.5778 41.5257 57.4966 41.4782C57.4048 41.4257 57.3482 41.3642 57.2702 41.2748C57.13 41.1132 57.0594 41.032 56.92 40.8696C56.829 40.7638 56.7617 40.6366 56.7617 40.5087C56.7617 40.3799 56.829 40.3307 56.92 40.3299C57.0594 40.3299 57.13 40.3299 57.2702 40.329C57.3482 40.3299 57.4048 40.334 57.4966 40.3873C57.5778 40.434 57.6328 40.4816 57.7074 40.5661C57.8592 40.7416 57.9346 40.8302 58.0855 41.0057C58.1749 41.1107 58.2422 41.2395 58.2422 41.3633C58.2422 41.4872 58.1749 41.5388 58.0855 41.5405C57.9346 41.5413 57.8592 41.5421 57.7074 41.543Z" fill="white"/>
<path d="M56.952 42.6989L56.8569 42.7539L56.7617 42.589C56.7617 42.1961 56.7617 42.0001 56.7617 41.6073C57.3162 41.928 57.5926 42.0871 58.147 42.407C58.2077 42.4422 58.2422 42.4931 58.2422 42.5726C58.2422 42.6522 58.2077 42.6628 58.147 42.6284C57.6689 42.3528 57.4302 42.2142 56.952 41.9386C56.952 42.2429 56.952 42.3946 56.952 42.6989Z" fill="white"/>
<path d="M56.952 43.8026V43.8445C56.952 43.9372 56.9619 43.965 57.0324 44.0454C57.1677 44.2013 57.235 44.2792 57.3703 44.4359L57.4942 44.549L57.65 44.5835C57.7788 44.5843 57.8436 44.5851 57.9715 44.5851C58.0535 44.5868 58.0519 44.5654 58.0519 44.4637V44.4375C57.6123 44.1832 57.3916 44.0569 56.952 43.8026ZM58.0519 44.216V44.134L58.147 44.0544L58.2422 44.2374C58.2422 44.385 58.2422 44.4596 58.2422 44.6073C58.2422 44.7795 58.1807 44.8304 58.0519 44.8312C57.9174 44.8312 57.8509 44.8312 57.7173 44.832C57.6393 44.8312 57.5836 44.8214 57.4966 44.7705C57.4203 44.727 57.3555 44.6655 57.2875 44.586C57.1488 44.4252 57.0791 44.3448 56.9405 44.1849C56.806 44.0299 56.7617 43.9052 56.7617 43.7321C56.7617 43.5853 56.7617 43.5123 56.7617 43.3655L56.8569 43.3097L56.952 43.4754V43.582C57.3916 43.8355 57.6123 43.9626 58.0519 44.216Z" fill="white"/>
<path d="M56.952 45.9886L56.8569 46.0443L56.7617 45.8795C56.7617 45.4866 56.7617 45.2905 56.7617 44.8977C57.3539 45.2397 57.65 45.4103 58.2422 45.7523C58.2422 46.1444 58.2422 46.3413 58.2422 46.7333L58.147 46.7891L58.0519 46.6234C58.0519 46.3199 58.0519 46.1674 58.0519 45.8639C57.8698 45.7589 57.7788 45.7064 57.5967 45.6006C57.5967 45.731 57.5967 45.7958 57.5967 45.9262L57.5015 45.982L57.4064 45.8163C57.4064 45.6859 57.4064 45.6211 57.4064 45.4915C57.2251 45.3865 57.1341 45.334 56.952 45.229C56.952 45.5325 56.952 45.6851 56.952 45.9886Z" fill="white"/>
<path d="M57.755 47.3387C57.755 47.5347 57.755 47.6332 57.755 47.8292C57.755 47.8907 57.7591 47.9899 57.8345 48.0342L57.9658 48.1097C58.0421 48.154 58.0519 48.0687 58.0519 48.0023C58.0519 47.8054 58.0519 47.707 58.0519 47.5102C57.933 47.4413 57.8739 47.4068 57.755 47.3387ZM56.8569 46.8203C56.7962 46.7851 56.7617 46.7342 56.7617 46.6547C56.7617 46.5751 56.7962 46.5636 56.8569 46.5989C57.4113 46.9188 57.6877 47.0787 58.2422 47.3986C58.2422 47.6955 58.2422 47.844 58.2422 48.1409C58.2422 48.3156 58.1356 48.4288 57.9658 48.3312L57.8345 48.2549C57.6557 48.1516 57.5647 47.9268 57.5647 47.7504C57.5647 47.6684 57.5647 47.6282 57.5647 47.547C57.3195 47.6045 57.1972 47.6332 56.952 47.6906L56.8511 47.6873L56.7617 47.5233L56.815 47.4568C57.1152 47.3855 57.2653 47.3502 57.5647 47.2797V47.2288C57.2817 47.0648 57.1398 46.9836 56.8569 46.8203Z" fill="white"/>
<path d="M58.1423 51.5057C58.2038 51.541 58.2375 51.5918 58.2375 51.6714C58.2375 51.7509 58.2038 51.7624 58.1423 51.7272C57.5887 51.4073 57.3115 51.2473 56.7578 50.9275C56.7578 50.811 56.7578 50.7527 56.7578 50.6355C57.2147 50.6683 57.4427 50.6847 57.8987 50.7175L57.9012 50.7191V50.7142C57.4829 50.4731 57.2737 50.3517 56.8546 50.1105C56.7939 50.0753 56.7595 50.0244 56.7595 49.9449C56.7595 49.8653 56.7939 49.8546 56.8546 49.8899C57.4091 50.209 57.6855 50.3689 58.2399 50.6888C58.2399 50.8052 58.2399 50.8635 58.2399 50.9808C57.7782 50.9447 57.5469 50.9266 57.0851 50.8905V50.8889V50.893C57.5083 51.1383 57.7199 51.2604 58.1423 51.5057Z" fill="white"/>
<path d="M57.7911 52.624V52.6191C57.5852 52.4313 57.4819 52.3377 57.276 52.1499C57.276 52.2885 57.276 52.3582 57.276 52.4969C57.4819 52.5477 57.5852 52.5732 57.7911 52.624ZM58.1446 52.7126L58.2422 52.8824L58.1446 52.9414C57.6295 52.8143 57.3719 52.7511 56.8569 52.624L56.7617 52.4632L56.8569 52.3985C56.9487 52.419 56.9938 52.4288 57.0857 52.4493C57.0857 52.2606 57.0857 52.1663 57.0857 51.9777C56.9938 51.8915 56.9487 51.8489 56.8569 51.762L56.7617 51.5881L56.8569 51.5364C57.3719 52.0072 57.6295 52.2426 58.1446 52.7126Z" fill="white"/>
<path d="M58.2422 54.7958C58.2422 54.9066 58.2422 54.9615 58.2422 55.0723C57.6877 54.7524 57.4113 54.5924 56.8569 54.2726C56.7962 54.2373 56.7617 54.1864 56.7617 54.1077C56.7617 54.0273 56.7962 54.0167 56.8569 54.0519C57.3063 54.3111 57.5302 54.4407 57.9797 54.6999V54.695C57.8723 54.5498 57.8181 54.4768 57.7115 54.3308L57.6812 54.3127C57.6221 54.2791 57.5663 54.2201 57.5663 54.1364C57.5663 54.0568 57.6221 54.0577 57.6812 54.0921L57.7115 54.1093C57.8181 54.0872 57.8723 54.0765 57.9797 54.0544V54.0503C57.5302 53.7911 57.3063 53.6607 56.8569 53.4015C56.7962 53.367 56.7617 53.3162 56.7617 53.2367C56.7617 53.1571 56.7962 53.1456 56.8569 53.1809C57.4113 53.5007 57.6877 53.6607 58.2422 53.9806C58.2422 54.0913 58.2422 54.1463 58.2422 54.257C58.1077 54.2873 58.0412 54.3021 57.9067 54.3332C58.0412 54.5186 58.1077 54.6113 58.2422 54.7958Z" fill="white"/>
<path d="M56.952 55.8616L56.8569 55.9174L56.7617 55.7517C56.7617 55.3596 56.7617 55.1636 56.7617 54.7707C57.3539 55.1127 57.65 55.2833 58.2422 55.6254C58.2422 56.0174 58.2422 56.2143 58.2422 56.6063L58.147 56.6621L58.0519 56.4964C58.0519 56.1929 58.0519 56.0404 58.0519 55.7361C57.8698 55.6319 57.7788 55.5794 57.5967 55.4736C57.5967 55.604 57.5967 55.6688 57.5967 55.7984L57.5015 55.8542L57.4064 55.6893C57.4064 55.5589 57.4064 55.4941 57.4064 55.3637C57.2251 55.2595 57.1341 55.207 56.952 55.1012C56.952 55.4055 56.952 55.5581 56.952 55.8616Z" fill="white"/>
<path d="M71.8516 48.8509C71.8516 45.8777 71.8516 44.3914 71.8516 41.4182C71.8516 40.8842 72.2239 40.666 72.6841 40.9318C74.2039 41.8086 74.9634 42.2474 76.4825 43.1251C76.9426 43.39 77.3158 44.0388 77.3158 44.5727C77.3158 47.546 77.3158 49.0322 77.3158 52.0054C77.3158 52.5402 76.9426 52.7576 76.4825 52.4926C74.9634 51.615 74.2039 51.1762 72.6841 50.2994C72.2239 50.0336 71.8516 49.3857 71.8516 48.8509Z" fill="#FBE090"/>
<path d="M72.3148 40.9455L72.1607 40.9849C72.0442 41.0522 71.9794 41.2064 71.9794 41.418V48.8507C71.9794 49.3355 72.3321 49.9473 72.7479 50.1876L76.5463 52.3817C76.7259 52.485 76.8875 52.5064 77.0056 52.4383C77.1221 52.371 77.1869 52.2177 77.1869 52.0052V44.5725C77.1869 44.0804 76.8424 43.4808 76.4183 43.2355L72.62 41.0423C72.5092 40.9784 72.4059 40.9455 72.3148 40.9455ZM76.8531 52.7344C76.7169 52.7344 76.5684 52.6901 76.4183 52.6032L72.62 50.4099C72.1164 50.1196 71.7227 49.4347 71.7227 48.8507V41.418C71.7227 41.1104 71.8326 40.8783 72.0327 40.7626C72.2312 40.6486 72.4854 40.6683 72.7479 40.8201L76.5463 43.0133C77.0499 43.3036 77.4436 43.9885 77.4436 44.5725V52.0052C77.4436 52.3128 77.3337 52.5458 77.1336 52.6614C77.0491 52.7098 76.9539 52.7344 76.8531 52.7344Z" fill="#68575C"/>
<path d="M76.3809 52.3594H76.125V45.7461L77.3799 46.4711L77.252 46.6934L76.3809 46.1906V52.3594Z" fill="#68575C"/>
<path d="M75.1938 51.6738H74.9371V48.7703L73.788 48.1067V50.8626H73.5312V47.663L75.1938 48.6226V51.6738Z" fill="#68575C"/>
<path d="M75.1938 45.5039L73.5312 44.5434V41.4923H73.788V44.3958L74.9371 45.0594V42.3043H75.1938V45.5039Z" fill="#68575C"/>
<path d="M73.5935 44.582L71.7734 43.5313L71.9014 43.3091L73.7223 44.3606L73.5935 44.582Z" fill="#68575C"/>
<path d="M76.1891 49.4922L74.9375 48.7696V45.2829H75.1942V48.622L76.3171 49.2708L76.1891 49.4922Z" fill="#68575C"/>
<path d="M73.5935 47.9961L71.7734 46.9446L71.9014 46.7231L73.7223 47.7738L73.5935 47.9961Z" fill="#68575C"/>
<path d="M62.3334 89.4863L56.0137 85.8397C56.1949 85.3041 56.5148 84.921 56.9397 84.7258C57.5311 84.4412 58.3103 84.5175 59.1731 85.0113C60.0294 85.5059 60.816 86.3334 61.4074 87.3013C61.8248 87.9829 62.1521 88.7416 62.3334 89.4863Z" fill="#EFEFF0"/>
<path d="M133.163 44.2871C128.123 37.6344 123.133 34.9884 115.081 33.8483C107.082 32.7148 101.978 29.9778 97 23.4087C97 15.6061 97 7.80265 97 1.90735e-05C101.978 6.56906 107.082 9.30608 115.081 10.4396C123.133 11.5797 128.123 14.2265 133.163 20.8784C133.163 28.6818 133.163 36.4845 133.163 44.2871Z" fill="#A4E2A9"/>
<path d="M101.652 27.8767C101.652 27.6463 101.652 27.5314 101.652 27.3009C101.631 24.5516 99.8101 21.8244 98.1828 19.764C97.9827 19.5147 97.8826 19.3867 97.6816 19.1235C97.6816 15.2045 97.6816 11.2848 97.6816 7.36582C97.8826 7.6291 97.9827 7.75702 98.1828 8.00636C100.096 10.3833 101.652 9.77638 101.652 7.58068C101.652 7.35102 101.652 7.23537 101.652 7.00489C111.15 13.9127 117.279 9.21291 127.656 16.4094C127.656 16.6399 127.656 16.7555 127.656 16.9852C127.816 19.7329 129.4 22.4437 131.126 24.5221C131.327 24.7714 131.427 24.8994 131.628 25.1627C131.628 29.0816 131.628 33.0014 131.628 36.9203C131.427 36.657 131.327 36.5291 131.126 36.2798C129.213 33.9028 127.656 34.5106 127.656 36.7055C127.656 36.9359 127.656 37.0508 127.656 37.2812C117.569 30.7122 109.774 34.3539 101.652 27.8767Z" fill="#7CC281"/>
<path d="M131.126 35.7035C131.126 32.1684 131.126 28.6325 131.126 25.0974C129.19 22.6999 127.312 19.7529 127.155 16.5845C116.94 9.97113 111.487 14.2067 102.154 7.98049C102.482 11.021 99.3204 10.4526 98.1836 8.58167C98.1836 12.1168 98.1836 15.6527 98.1836 19.1878C100.109 21.5188 102.069 24.5848 102.154 27.6999C109.838 33.6653 117.747 30.4369 127.155 36.3047C126.827 33.265 129.989 33.8326 131.126 35.7035Z" fill="#8ACF8F"/>
<path d="M122.249 23.735C122.296 27.9197 118.941 31.4237 114.654 30.8578C109.901 30.2311 107.11 24.9646 107.061 20.5535C107.014 16.3688 110.369 12.8657 114.654 13.4308C119.409 14.0574 122.2 19.324 122.249 23.735Z" fill="#7CC281"/>
<path d="M114.655 13.8127C110.525 13.2845 107.354 16.6752 107.396 20.6713C107.441 24.883 110.129 29.874 114.655 30.4728C118.766 31.0157 121.957 27.6094 121.915 23.6133C121.871 19.4016 119.198 14.4328 114.655 13.8127ZM114.655 31.2396C109.661 30.5597 106.782 25.0299 106.727 20.4252C106.676 16.0601 110.21 12.4602 114.655 13.045C119.63 13.6995 122.529 19.2548 122.583 23.8594C122.635 28.2254 119.124 31.8064 114.655 31.2396Z" fill="#97DB9D"/>
<path d="M101.834 19.2109C100.686 18.2874 100.112 17.7444 98.9629 16.4354C98.9629 16.168 98.9629 16.0351 98.9629 15.7669C100.112 17.0768 100.686 17.6189 101.834 18.5433C101.834 18.8098 101.834 18.9435 101.834 19.2109Z" fill="#A4E2A9"/>
<path d="M101.834 21.0352C100.686 20.1116 100.112 19.5694 98.9629 18.2604C98.9629 17.993 98.9629 17.8593 98.9629 17.5919C100.112 18.9018 100.686 19.4431 101.834 20.3675C101.834 20.6349 101.834 20.7686 101.834 21.0352Z" fill="#7CC281"/>
<path d="M113.804 25.4251L117.828 26.3298V27.9316L110.646 26.3166V24.7148L111.836 24.9822V22.2935L110.646 22.0253V20.6154L111.836 20.8827V19.5302C111.836 17.4149 112.996 16.47 115.067 16.9367C116.197 17.1902 117.255 17.8989 118.019 18.9077L117.255 20.2643C116.638 19.4351 115.948 18.897 115.258 18.7428C114.318 18.5312 113.804 18.9594 113.804 20.0174V21.3257L116.359 21.8998V23.3106L113.804 22.7364V25.4251Z" fill="#97DB9D"/>
<path d="M129.789 38.8876L130.824 40.0506V40.5723L128.977 38.4955V37.9747L129.282 38.3192V37.4448L128.977 37.1004V36.6418L129.282 36.9855V36.5459C129.282 35.8577 129.581 35.8003 130.114 36.3999C130.405 36.7272 130.677 37.1856 130.873 37.6786L130.677 37.955C130.519 37.5523 130.341 37.2275 130.163 37.029C129.921 36.7567 129.789 36.7845 129.789 37.129V37.5539L130.446 38.2929V38.7514L129.789 38.0124V38.8876Z" fill="#8ACF8F"/>
<path d="M129.789 21.0321L130.824 22.196V22.7168L128.977 20.6408V20.12L129.282 20.4637V19.5894L128.977 19.2457V18.7864L129.282 19.1308V18.6912C129.282 18.0031 129.581 17.9456 130.114 18.5444C130.405 18.8717 130.677 19.3301 130.873 19.8231L130.677 20.0995C130.519 19.6968 130.341 19.3728 130.163 19.1735C129.921 18.9012 129.789 18.9291 129.789 19.2736V19.6984L130.446 20.4382V20.8968L129.789 20.1577V21.0321Z" fill="#8ACF8F"/>
<path d="M98.4166 24.0127L99.4509 25.0338V25.5547L97.6055 23.733V23.2122L97.9114 23.514V22.6397L97.6055 22.3378V21.8785L97.9114 22.1803V21.7407C97.9114 21.0534 98.2099 20.9549 98.7414 21.4807C99.0318 21.7678 99.3033 22.1894 99.5001 22.6552L99.3033 22.9579C99.145 22.5765 98.9678 22.278 98.7907 22.1032C98.5495 21.8646 98.4166 21.9097 98.4166 22.2542V22.679L99.0736 23.3286V23.7871L98.4166 23.1383V24.0127Z" fill="#9999C3"/>
<path d="M98.4166 6.48146L99.4509 7.5018V8.02344L97.6055 6.20092V5.68012L97.9114 5.98193V5.10762L97.6055 4.80576V4.34644L97.9114 4.64909V4.20947C97.9114 3.5205 98.2099 3.4237 98.7414 3.94863C99.0318 4.2357 99.3033 4.65732 99.5001 5.12319L99.3033 5.42665C99.145 5.04443 98.9678 4.7459 98.7907 4.5712C98.5495 4.33252 98.4166 4.37843 98.4166 4.7221V5.14778L99.0736 5.79658V6.25591L98.4166 5.60627V6.48146Z" fill="#8ACF8F"/>
<path d="M118.479 52.1484C113.438 45.4957 108.448 42.8497 100.398 41.7097C92.3976 40.5761 87.2934 37.8391 82.3164 31.27C82.3164 23.4674 82.3164 15.6648 82.3164 7.86131C87.2934 14.4304 92.3976 17.1674 100.398 18.3009C108.448 19.441 113.438 22.0878 118.479 28.7405C118.479 36.5432 118.479 44.3458 118.479 52.1484Z" fill="#A4E2A9"/>
<path d="M87.3972 35.7381C87.3972 35.5076 87.3972 35.3928 87.3972 35.1623C87.3751 32.4129 85.5542 29.6866 83.9278 27.6262C83.7268 27.3769 83.6267 27.2481 83.4258 26.9848C83.4258 23.0659 83.4258 19.1469 83.4258 15.2271C83.6267 15.4904 83.7268 15.6184 83.9278 15.8677C85.8405 18.2455 87.3972 17.6377 87.3972 15.4421C87.3972 15.2124 87.3972 15.0967 87.3972 14.8671C96.8944 21.774 103.023 17.0743 113.401 24.2716C113.401 24.5012 113.401 24.6169 113.401 24.8465C113.56 27.5942 115.144 30.3058 116.871 32.3834C117.071 32.6328 117.171 32.7607 117.372 33.024C117.372 36.943 117.372 40.8627 117.372 44.7817C117.171 44.5192 117.071 44.3904 116.871 44.1419C114.957 41.7649 113.401 42.3719 113.401 44.5668C113.401 44.7973 113.401 44.9121 113.401 45.1426C103.314 38.5735 95.5181 42.2152 87.3972 35.7381Z" fill="#7CC281"/>
<path d="M116.871 43.5668C116.871 40.0308 116.871 36.4958 116.871 32.9598C114.934 30.5624 113.057 27.6162 112.899 24.4477C102.684 17.8336 97.2315 22.0691 87.8984 15.8429C88.2264 18.8826 85.0645 18.3159 83.9277 16.4441C83.9277 19.9801 83.9277 23.5151 83.9277 27.0511C85.8528 29.3813 87.8131 32.448 87.8984 35.5632C95.5829 41.5277 103.491 38.3002 112.899 44.168C112.571 41.1275 115.734 41.695 116.871 43.5668Z" fill="#8ACF8F"/>
<path d="M107.993 31.5938C108.04 35.7793 104.685 39.2824 100.399 38.7173C95.6447 38.0898 92.8544 32.8233 92.8052 28.4122C92.7592 24.2275 96.1131 20.7244 100.399 21.2895C105.154 21.917 107.944 27.1827 107.993 31.5938Z" fill="#7CC281"/>
<path d="M100.397 21.6738C96.2661 21.1456 93.096 24.5364 93.1378 28.5324C93.1821 32.7442 95.8715 37.7352 100.397 38.3339C104.508 38.8777 107.699 35.4714 107.656 31.4753C107.612 27.2635 104.94 22.2947 100.397 21.6738ZM100.397 39.1008C95.4032 38.4217 92.5234 32.891 92.4693 28.2864C92.4176 23.9212 95.9519 20.3221 100.397 20.9061C105.372 21.5607 108.271 27.1168 108.326 31.7206C108.376 36.0865 104.866 39.6684 100.397 39.1008Z" fill="#97DB9D"/>
<path d="M103.806 32.5887C103.793 34.1922 102.716 35.0403 101.172 35.0592C101.172 35.8638 101.172 36.2665 101.172 37.0703C100.686 37.0063 100.444 36.9752 99.9588 36.9112C99.9588 36.1123 99.9588 35.7128 99.9588 34.9148C98.7941 34.6064 97.691 33.8682 96.8945 32.9086C97.1693 32.3221 97.3063 32.0277 97.581 31.4371C98.4636 32.4812 99.6274 33.1834 100.547 33.3039C101.466 33.4245 102.095 33.0136 102.018 32.4189C101.725 30.1839 97.3858 30.6423 97.4096 27.3869C97.4203 25.8933 98.4021 25.0067 99.9588 24.9862C99.9588 24.2267 99.9588 23.8477 99.9588 23.0882C100.444 23.1464 100.686 23.1743 101.172 23.2334C101.172 23.9929 101.172 24.3727 101.172 25.1322C102.115 25.37 103.035 25.8859 103.72 26.5265C103.456 27.1327 103.323 27.437 103.059 28.0472C102.14 27.2672 101.147 26.8152 100.485 26.7291C99.7136 26.6274 99.1394 26.9711 99.2108 27.4878C99.5167 29.7024 103.833 29.3062 103.806 32.5887Z" fill="#97DB9D"/>
<path d="M85.8504 15.8807C85.8504 16.3942 85.5117 16.3417 85.0712 15.9324C85.0712 16.1858 85.0712 16.313 85.0712 16.5664C84.8629 16.3384 84.7587 16.2211 84.5496 15.9792C84.5496 15.7224 84.5496 15.5945 84.5496 15.3377C84.2248 14.9006 83.9 14.351 83.6621 13.8343C83.7712 13.7203 83.8261 13.662 83.9352 13.5439C84.1862 14.1009 84.5955 14.7685 84.8473 15.0507C85.0007 15.2229 85.0991 15.2688 85.0991 15.1409C85.0991 14.7152 83.8196 13.4841 83.8196 12.4933C83.8196 12.0405 84.0993 12.0873 84.5496 12.5179C84.5496 12.271 84.5496 12.1471 84.5496 11.9002C84.7587 12.1422 84.8629 12.2595 85.0712 12.4867C85.0712 12.7295 85.0712 12.85 85.0712 13.0928C85.3649 13.4537 85.6478 13.8573 85.857 14.2231C85.7495 14.3724 85.6954 14.4462 85.588 14.5922C85.3362 14.1681 84.9802 13.6334 84.7735 13.3996C84.6513 13.2618 84.5709 13.2159 84.5709 13.32C84.5709 13.7334 85.8504 14.8661 85.8504 15.8807Z" fill="#8ACF8F"/>
<path d="M85.8504 32.8983C85.8504 33.4117 85.5117 33.3592 85.0712 32.95C85.0712 33.2034 85.0712 33.3305 85.0712 33.584C84.8629 33.356 84.7587 33.2387 84.5496 32.9967C84.5496 32.74 84.5496 32.612 84.5496 32.3553C84.2248 31.9181 83.9 31.3686 83.6621 30.8519C83.7712 30.7379 83.8261 30.6796 83.9352 30.5615C84.1862 31.1193 84.5955 31.7861 84.8473 32.0682C85.0007 32.2413 85.0991 32.2864 85.0991 32.1585C85.0991 31.7328 83.8196 30.5016 83.8196 29.5108C83.8196 29.0581 84.0993 29.1048 84.5496 29.5354C84.5496 29.2885 84.5496 29.1647 84.5496 28.9178C84.7587 29.1598 84.8629 29.2771 85.0712 29.5043C85.0712 29.747 85.0712 29.8676 85.0712 30.1104C85.3649 30.4713 85.6478 30.8748 85.857 31.2406C85.7495 31.3899 85.6954 31.4637 85.588 31.6097C85.3362 31.1865 84.9802 30.6509 84.7735 30.418C84.6513 30.2794 84.5709 30.2334 84.5709 30.3376C84.5709 30.751 85.8504 31.8837 85.8504 32.8983Z" fill="#8ACF8F"/>
<path d="M116.966 30.3659C116.966 30.8793 116.627 30.7292 116.186 30.2945C116.186 30.548 116.186 30.6743 116.186 30.9277C115.978 30.6882 115.874 30.5718 115.666 30.3454C115.666 30.0887 115.666 29.9599 115.666 29.7031C115.34 29.2906 115.015 28.8116 114.777 28.367C114.886 28.2202 114.941 28.1472 115.05 28.0045C115.301 28.5032 115.711 29.1233 115.963 29.4063C116.116 29.5785 116.214 29.6326 116.214 29.5039C116.214 29.079 114.935 27.9725 114.935 26.9817C114.935 26.529 115.215 26.4863 115.666 26.8841C115.666 26.6364 115.666 26.5134 115.666 26.2657C115.874 26.4929 115.978 26.6085 116.186 26.8488C116.186 27.0908 116.186 27.2122 116.186 27.4541C116.48 27.8331 116.763 28.2899 116.972 28.7099C116.865 28.8321 116.811 28.8936 116.703 29.0183C116.451 28.5467 116.095 27.9856 115.889 27.7552C115.767 27.619 115.686 27.5805 115.686 27.6846C115.686 28.098 116.966 29.3513 116.966 30.3659Z" fill="#8ACF8F"/>
<path d="M116.966 47.3835C116.966 47.8969 116.627 47.7468 116.186 47.3121C116.186 47.5655 116.186 47.6919 116.186 47.9453C115.978 47.7058 115.874 47.5893 115.666 47.363C115.666 47.1062 115.666 46.9783 115.666 46.7207C115.34 46.3082 115.015 45.8292 114.777 45.3846C114.886 45.2378 114.941 45.1648 115.05 45.0212C115.301 45.5207 115.711 46.1408 115.963 46.4238C116.116 46.596 116.214 46.6502 116.214 46.5214C116.214 46.0965 114.935 44.9901 114.935 43.9993C114.935 43.5465 115.215 43.5039 115.666 43.9017C115.666 43.654 115.666 43.5309 115.666 43.2832C115.874 43.5096 115.978 43.6261 116.186 43.8664C116.186 44.1092 116.186 44.2297 116.186 44.4725C116.48 44.8506 116.763 45.3075 116.972 45.7275C116.865 45.8489 116.811 45.9104 116.703 46.0367C116.451 45.5651 116.095 45.0024 115.889 44.7735C115.767 44.6366 115.686 44.598 115.686 44.7022C115.686 45.1156 116.966 46.3689 116.966 47.3835Z" fill="#8ACF8F"/>
<path d="M87.5786 27.0742C86.4303 26.1507 85.8561 25.6085 84.707 24.2986C84.707 24.0312 84.707 23.8983 84.707 23.6309C85.8561 24.94 86.4303 25.4822 87.5786 26.4066C87.5786 26.6739 87.5786 26.8068 87.5786 27.0742Z" fill="#A4E2A9"/>
<path d="M87.5786 28.8965C86.4303 27.9721 85.8561 27.4299 84.707 26.1209C84.707 25.8535 84.707 25.7198 84.707 25.4524C85.8561 26.7623 86.4303 27.3044 87.5786 28.228C87.5786 28.4954 87.5786 28.6291 87.5786 28.8965Z" fill="#7CC281"/>
<path d="M100.802 122.461C99.5004 122.461 98.2586 122.198 97.3302 121.662L92.7895 119.041C90.7406 117.858 90.9974 115.792 93.3637 114.425L94.393 113.831H118.314L105.324 121.331C104.03 122.078 102.373 122.461 100.802 122.461Z" fill="#78947A"/>
<path d="M118.314 113.832H94.3926L107.382 106.332C108.676 105.585 110.333 105.203 111.905 105.203C113.206 105.203 114.448 105.465 115.377 106.001L119.917 108.622C121.965 109.806 121.709 111.872 119.342 113.237L118.314 113.832Z" fill="#949DD4"/>
<path d="M123.273 107.389L120.734 107.955L117.349 106C115.301 104.817 111.721 104.966 109.355 106.331L97.6423 113.094L93.3789 114.043V117.106L93.3814 117.105C93.4076 117.832 93.8628 118.521 94.7626 119.041L99.3024 121.662C101.351 122.845 104.931 122.697 107.297 121.331L121.316 113.237C122.572 112.512 123.227 111.59 123.265 110.707L123.273 110.705V107.389Z" fill="url(#paint0_linear_2038_20792)"/>
<path d="M121.318 110.112L107.299 118.206C104.932 119.572 101.353 119.72 99.3041 118.537L94.7642 115.916C92.7153 114.733 92.972 112.666 95.3375 111.301L109.357 103.207C111.723 101.841 115.302 101.693 117.351 102.875L121.891 105.497C123.941 106.679 123.683 108.746 121.318 110.112Z" fill="#A4E2A9"/>
<path d="M102.775 118.879C101.463 118.879 100.266 118.606 99.4047 118.108L94.8648 115.487C94.0381 115.009 93.582 114.36 93.582 113.657C93.582 112.79 94.2587 111.904 95.4382 111.222L109.457 103.128C110.671 102.428 112.283 102.025 113.878 102.025C115.19 102.025 116.387 102.3 117.248 102.797L121.789 105.418C122.616 105.896 123.07 106.545 123.07 107.248C123.07 108.114 122.394 109.002 121.214 109.683L107.195 117.777C105.982 118.477 104.371 118.879 102.775 118.879Z" fill="#B8F5BD"/>
<path d="M102.359 113.459L103.208 112.968C103.626 112.727 103.648 112.353 103.248 112.122C102.848 111.891 102.193 111.899 101.775 112.141L100.925 112.631L102.359 113.459ZM98.4453 112.785L100.648 111.514C101.706 110.902 103.397 110.881 104.411 111.467C105.418 112.047 105.387 113.019 104.348 113.619L103.492 114.113L104.819 114.88L103.446 115.672L98.4453 112.785Z" fill="white"/>
<path d="M108.148 110.925L109.215 110.309L107.586 109.98L108.148 110.925ZM107.687 113.225L105.125 108.929L105.745 108.571L113.204 110.038L111.832 110.83L110.858 110.638L108.719 111.874L109.059 112.431L107.687 113.225Z" fill="white"/>
<path d="M114.521 107.153L116.361 108.215L115.003 109L113.163 107.937L108.094 107.215L109.675 106.302L112.345 106.685L111.689 105.139L113.27 104.226L114.521 107.153Z" fill="white"/>
<defs>
<linearGradient id="paint0_linear_2038_20792" x1="93.3789" y1="113.831" x2="123.273" y2="113.831" gradientUnits="userSpaceOnUse">
<stop stop-color="#5AA362"/>
<stop offset="0.265848" stop-color="#5AA362"/>
<stop offset="0.301423" stop-color="#67AD6D"/>
<stop offset="0.329439" stop-color="#67AD6D"/>
<stop offset="0.335092" stop-color="#67AD6D"/>
<stop offset="0.386562" stop-color="#7CC281"/>
<stop offset="0.408574" stop-color="#7CC281"/>
<stop offset="0.980891" stop-color="#7CC281"/>
<stop offset="1" stop-color="#73B978"/>
</linearGradient>
</defs>
</svg>
