<svg width="158" height="145" viewBox="0 0 158 145" fill="none" xmlns="http://www.w3.org/2000/svg">
<ellipse cx="79" cy="100" rx="79" ry="45" fill="#E2E2E2"/>
<path d="M69.3379 128.644L141.184 87.1641V90.638L69.3379 132.115V128.644Z" fill="#FFDDB7"/>
<path d="M20.014 100.168L69.3379 128.644V132.115L20.014 103.639V100.168Z" fill="#E79C51"/>
<path d="M69.3382 128.633L141.182 87.1533L91.86 58.6796L20.0143 100.159L69.3382 128.633Z" fill="#F4B05B"/>
<path d="M91.7082 67.9141L95.7363 65.5869L93.7223 64.4244L89.6942 66.7516L91.7082 67.9141Z" fill="white"/>
<path d="M86.7317 70.7891L90.7598 68.4619L88.7457 67.2994L84.7154 69.6243L86.7317 70.7891Z" fill="white"/>
<path d="M81.7529 73.6621L85.7832 71.3349L83.7691 70.1724L79.7388 72.4996L81.7529 73.6621Z" fill="white"/>
<path d="M76.7766 76.5332L80.8047 74.2082L78.7906 73.0458L74.7625 75.373L76.7766 76.5332Z" fill="white"/>
<path d="M71.802 79.4082L75.8301 77.0832L73.816 75.9185L69.7857 78.2457L71.802 79.4082Z" fill="white"/>
<path d="M66.8212 82.2812L70.8516 79.9563L68.8375 78.7916L64.8072 81.121L66.8212 82.2812Z" fill="white"/>
<path d="M61.8469 85.1543L65.875 82.8271L63.8609 81.6669L59.8328 83.9918L61.8469 85.1543Z" fill="white"/>
<path d="M56.8703 88.0293L60.8984 85.7021L58.8844 84.5396L54.854 86.8646L56.8703 88.0293Z" fill="white"/>
<path d="M51.8915 90.9023L55.9219 88.5774L53.9078 87.4127L49.8775 89.7399L51.8915 90.9023Z" fill="white"/>
<path d="M46.913 93.7773L50.9434 91.4501L48.9271 90.2877L44.899 92.6126L46.913 93.7773Z" fill="white"/>
<path d="M41.9364 96.6484L45.9668 94.3235L43.9505 93.1587L39.9202 95.486L41.9364 96.6484Z" fill="white"/>
<path d="M36.9579 99.5215L40.9883 97.1965L38.9742 96.034L34.9439 98.3613L36.9579 99.5215Z" fill="white"/>
<path d="M31.9814 102.398L36.0117 100.071L33.9977 98.9088L29.9673 101.234L31.9814 102.398Z" fill="white"/>
<path d="M96.6864 70.7891L100.717 68.4619L96.6864 66.1347L92.6583 68.4619L96.6864 70.7891Z" fill="white"/>
<path d="M91.7082 73.6621L95.7363 71.3349L91.7082 69.01L87.6801 71.3349L91.7082 73.6621Z" fill="white"/>
<path d="M86.7317 76.5332L90.7598 74.2082L86.7317 71.8811L82.7013 74.2082L86.7317 76.5332Z" fill="white"/>
<path d="M81.7529 79.4082L85.7832 77.0832L81.7529 74.7561L77.7248 77.0832L81.7529 79.4082Z" fill="white"/>
<path d="M76.7766 82.2812L80.8047 79.9563L76.7766 77.6314L72.7485 79.9563L76.7766 82.2812Z" fill="white"/>
<path d="M71.802 85.1543L75.8301 82.8271L71.802 80.5022L67.7716 82.8271L71.802 85.1543Z" fill="white"/>
<path d="M66.8212 88.0293L70.8516 85.7021L66.8212 83.3749L62.7931 85.7021L66.8212 88.0293Z" fill="white"/>
<path d="M61.8469 90.9023L65.875 88.5774L61.8469 86.2502L57.8188 88.5774L61.8469 90.9023Z" fill="white"/>
<path d="M56.8703 93.7773L60.8984 91.4501L56.8703 89.1229L52.84 91.4501L56.8703 93.7773Z" fill="white"/>
<path d="M51.8915 96.6484L55.9219 94.3235L51.8915 91.9986L47.8634 94.3235L51.8915 96.6484Z" fill="white"/>
<path d="M46.913 99.5215L50.9434 97.1965L46.913 94.8716L42.8849 97.1965L46.913 99.5215Z" fill="white"/>
<path d="M41.9367 102.398L45.9648 100.071L41.9367 97.7441L37.9064 100.071L41.9367 102.398Z" fill="white"/>
<path d="M36.9579 105.271L40.9883 102.944L36.9579 100.619L32.9298 102.944L36.9579 105.271Z" fill="white"/>
<path d="M101.663 73.6621L105.691 71.3349L101.663 69.01L97.633 71.3349L101.663 73.6621Z" fill="white"/>
<path d="M96.6864 76.5332L100.717 74.2082L96.6864 71.8811L92.6583 74.2082L96.6864 76.5332Z" fill="white"/>
<path d="M91.7082 79.4082L95.7363 77.0832L91.7082 74.7561L87.6801 77.0832L91.7082 79.4082Z" fill="white"/>
<path d="M86.7317 82.2812L90.7598 79.9563L86.7317 77.6314L82.7013 79.9563L86.7317 82.2812Z" fill="white"/>
<path d="M81.7529 85.1543L85.7832 82.8271L81.7529 80.5022L77.7248 82.8271L81.7529 85.1543Z" fill="white"/>
<path d="M76.7766 88.0293L80.8047 85.7021L76.7766 83.3749L72.7462 85.7021L76.7766 88.0293Z" fill="white"/>
<path d="M71.802 90.9023L75.8301 88.5774L71.802 86.2502L67.7716 88.5774L71.802 90.9023Z" fill="white"/>
<path d="M66.8212 93.7773L70.8516 91.4501L66.8212 89.1229L62.7931 91.4501L66.8212 93.7773Z" fill="white"/>
<path d="M61.8469 96.6484L65.875 94.3235L61.8469 91.9986L57.8166 94.3235L61.8469 96.6484Z" fill="white"/>
<path d="M56.8681 99.5215L60.8984 97.1965L56.8703 94.8716L52.84 97.1965L56.8681 99.5215Z" fill="white"/>
<path d="M51.8915 102.398L55.9219 100.071L51.8915 97.7441L47.8634 100.071L51.8915 102.398Z" fill="white"/>
<path d="M46.913 105.271L50.9434 102.944L46.913 100.619L42.8827 102.944L46.913 105.271Z" fill="#5D7280"/>
<path d="M41.9342 108.145L50.9434 102.943L46.913 100.618L37.9061 105.817L41.9342 108.145Z" fill="white"/>
<path d="M106.642 76.5332L110.67 74.2082L106.642 71.8811L102.611 74.2082L106.642 76.5332Z" fill="white"/>
<path d="M101.661 79.4082L105.691 77.0832L101.663 74.7561L97.633 77.0832L101.661 79.4082Z" fill="white"/>
<path d="M96.6864 82.2812L100.717 79.9563L96.6864 77.6314L92.6583 79.9563L96.6864 82.2812Z" fill="white"/>
<path d="M91.7082 85.1543L95.7363 82.8271L91.7082 80.5022L87.6779 82.8271L91.7082 85.1543Z" fill="white"/>
<path d="M86.7294 88.0293L90.7598 85.7021L86.7317 83.3749L82.7013 85.7021L86.7294 88.0293Z" fill="white"/>
<path d="M81.7529 90.9023L85.7832 88.5751L81.7529 86.2502L77.7248 88.5774L81.7529 90.9023Z" fill="white"/>
<path d="M76.7766 93.7773L80.8047 91.4501L76.7766 89.1229L72.7462 91.4501L76.7766 93.7773Z" fill="white"/>
<path d="M71.7997 96.6484L75.8301 94.3235L71.7997 91.9963L67.7716 94.3235L71.7997 96.6484Z" fill="white"/>
<path d="M66.8212 99.5215L70.8516 97.1965L66.8212 94.8716L62.7931 97.1965L66.8212 99.5215Z" fill="white"/>
<path d="M61.8469 102.398L65.875 100.071L61.8469 97.7441L57.8166 100.071L61.8469 102.398Z" fill="white"/>
<path d="M56.8681 105.271L60.8984 102.944L56.8681 100.619L52.84 102.944L56.8681 105.271Z" fill="white"/>
<path d="M51.8915 108.145L55.9219 105.815L51.8915 103.49L47.8634 105.817L51.8915 108.145Z" fill="white"/>
<path d="M46.913 111.018L50.9434 108.693L46.913 106.365L42.8827 108.693L46.913 111.018Z" fill="white"/>
<path d="M111.618 79.4082L115.648 77.0832L111.618 74.7538L107.59 77.0832L111.618 79.4082Z" fill="white"/>
<path d="M106.642 82.2812L110.67 79.9563L106.642 77.6314L102.611 79.9563L106.642 82.2812Z" fill="white"/>
<path d="M101.661 85.1543L105.691 82.8271L101.661 80.5022L97.633 82.8271L101.661 85.1543Z" fill="white"/>
<path d="M96.6848 88.0293L100.713 85.7021L96.6848 83.3749L92.6567 85.7021L96.6848 88.0293Z" fill="white"/>
<path d="M76.7764 99.5215L95.7363 88.5749L91.7082 86.2499L72.746 97.1965L76.7764 99.5215Z" fill="white"/>
<path d="M86.7294 93.7773L90.7598 91.4501L86.7294 89.1229L82.7013 91.4501L86.7294 93.7773Z" fill="white"/>
<path d="M81.7532 96.6484L85.7812 94.3235L81.7532 91.9963L77.7251 94.3235L81.7532 96.6484Z" fill="white"/>
<path d="M76.7766 99.5215L80.8047 97.1965L76.7766 94.8716L72.7462 97.1965L76.7766 99.5215Z" fill="white"/>
<path d="M71.7997 102.396L75.8301 100.072L71.7997 97.7444L67.7716 100.072L71.7997 102.396Z" fill="white"/>
<path d="M66.8235 105.271L70.8516 102.944L66.8235 100.619L62.7954 102.944L66.8235 105.271Z" fill="white"/>
<path d="M61.8469 108.145L65.875 105.815L61.8469 103.49L57.8166 105.815L61.8469 108.145Z" fill="white"/>
<path d="M56.8681 111.018L60.8984 108.693L56.8681 106.365L52.84 108.693L56.8681 111.018Z" fill="white"/>
<path d="M51.8899 113.891L55.918 111.566L51.8899 109.239L47.8618 111.566L51.8899 113.891Z" fill="white"/>
<path d="M92.5516 111.247L111.066 100.557C111.998 100.019 111.881 99.0792 110.806 98.4596L100.939 92.7622C99.8644 92.1427 98.2378 92.0751 97.3074 92.6135L78.7934 103.301C77.863 103.839 77.9779 104.779 79.0548 105.401L88.92 111.096C89.9946 111.718 91.6212 111.783 92.5516 111.247Z" fill="#E9A857"/>
<path d="M17.0006 41.4799L88.844 0.00038147L91.8516 1.73732L20.0082 43.2168L17.0006 41.4799Z" fill="#FFDDB7"/>
<path d="M17.0003 98.431V41.4767L20.0078 43.2136V100.168L17.0003 98.431Z" fill="#F4A658"/>
<path d="M20.0082 100.168L91.8516 58.6885V1.73417L20.0082 43.2136V100.168Z" fill="#FDCE9A"/>
<path d="M22.1717 44.2138V96.6602L89.6738 57.6881V5.2395L22.1717 44.2138Z" fill="#F6F6F9"/>
<path d="M32.3802 49.9062L53.6426 37.6282V34.1003L32.3802 46.3761V49.9062Z" fill="#D7DAFF"/>
<path d="M58.9993 34.8047L80.2617 22.5267V18.9987L58.9993 31.2745V34.8047Z" fill="#D7DAFF"/>
<path d="M43.0114 49.7832L53.6426 43.6464V40.1185L43.0114 46.2552V49.7832Z" fill="#D7DAFF"/>
<path d="M69.6305 34.6816L80.2617 28.5449V25.0169L69.6305 31.1537V34.6816Z" fill="#D7DAFF"/>
<path d="M37.9988 73.7793L56.373 63.1706V62.0014L37.9988 72.6101V73.7793Z" fill="#D7DAFF"/>
<path d="M64.9988 56.7793L83.373 46.1706V45.0014L64.9988 55.6101V56.7793Z" fill="#D7DAFF"/>
<path d="M62.9988 44.7773L81.373 34.1687V32.9994L62.9988 43.6081V44.7773Z" fill="#D7DAFF"/>
<path d="M35.9988 58.7793L54.373 48.1706V47.0014L35.9988 57.6101V58.7793Z" fill="#D7DAFF"/>
<path d="M37.9988 76.0059L56.373 65.3972V64.228L37.9988 74.8389V76.0059Z" fill="#D7DAFF"/>
<path d="M64.9988 59.0059L83.373 48.3972V47.228L64.9988 57.8389V59.0059Z" fill="#D7DAFF"/>
<path d="M62.9988 47.0059L81.373 36.3972V35.228L62.9988 45.8389V47.0059Z" fill="#D7DAFF"/>
<path d="M35.9988 61.0059L54.373 50.3972V49.228L35.9988 59.8389V61.0059Z" fill="#D7DAFF"/>
<path d="M44.2392 74.6309L56.373 67.6268V66.4575L44.2392 73.4616V74.6309Z" fill="#D7DAFF"/>
<path d="M71.2392 57.6309L83.373 50.6268V49.4575L71.2392 56.4616V57.6309Z" fill="#D7DAFF"/>
<path d="M69.2392 45.6289L81.373 38.6248V37.4556L69.2392 44.4597V45.6289Z" fill="#D7DAFF"/>
<path d="M42.2392 59.6309L54.373 52.6268V51.4575L42.2392 58.4616V59.6309Z" fill="#D7DAFF"/>
<path d="M60.2544 74.6758L64.4199 72.272L60.2544 74.6758ZM22.1745 44.215L38.8028 34.6134L22.1745 44.215Z" fill="#CED1F8"/>
<path d="M32.3798 49.9062L48.8301 40.4083L45.7752 38.642L32.3798 46.3761V49.9062Z" fill="#E7E9FF"/>
<path d="M59.0009 34.8047L75.4512 25.3067L72.3963 23.5404L59.0009 31.2745V34.8047Z" fill="#E7E9FF"/>
<path d="M43.0114 49.7832L53.6426 43.6464V43.1914L50.9842 41.6527L43.0114 46.2552V49.7832Z" fill="#E7E9FF"/>
<path d="M69.6305 34.6816L80.2617 28.5449V28.0898L77.6034 26.5511L69.6305 31.1537V34.6816Z" fill="#E7E9FF"/>
</svg>
