<svg width="163" height="107" viewBox="0 0 163 107" fill="none" xmlns="http://www.w3.org/2000/svg">
<ellipse cx="83" cy="62" rx="79" ry="45" fill="#E2E2E2"/>
<path d="M-4.57764e-05 41.9906L96.5684 97.7441V93.9909L-4.57764e-05 38.2374V41.9906Z" fill="#B1B4D7"/>
<path d="M96.568 93.9941L162.896 55.7002L66.4227 0.000732422L0.0942383 38.2947L96.568 93.9941Z" fill="#D7DAFF"/>
<path d="M93.6756 86.9004L150.607 54.0313L65.0779 4.65105L8.14615 37.5179L93.6756 86.9004Z" fill="white"/>
<path d="M37.9142 26.1766L45.4319 21.8376C45.9883 21.5155 45.9883 20.9973 45.4319 20.6774L44.3077 20.0263L54.5785 14.0969C55.1327 13.777 55.1327 13.2565 54.5785 12.9366L51.9427 11.4137C51.3885 11.0938 50.4873 11.0938 49.9308 11.4137C49.3766 11.7359 49.3766 12.2563 49.9308 12.5762L51.5641 13.5179L41.2912 19.4451C40.737 19.7673 40.737 20.2854 41.2912 20.6076L42.4176 21.2564L36.9094 24.4374L35.7852 23.7864C35.2288 23.4665 34.3298 23.4665 33.7734 23.7864L23.5049 29.7181L21.8739 28.7764C21.3174 28.4543 20.4208 28.4543 19.8643 28.7764C19.3078 29.0963 19.3078 29.6145 19.8643 29.9367L22.4979 31.4573C23.0566 31.7772 23.9533 31.7772 24.5097 31.4573L34.7804 25.5278L35.9068 26.1766C36.461 26.4988 37.36 26.4988 37.9142 26.1766Z" fill="#B1B4D7"/>
<path d="M33.3864 38.0117L65.9355 19.2207L62.946 17.495L30.3946 36.286L33.3864 38.0117Z" fill="#FD894A"/>
<path d="M38.9804 41.2422L71.5273 22.4512L68.5378 20.7232L35.9909 39.5165L38.9804 41.2422Z" fill="#FD894A"/>
<path d="M50.205 41.2207L71.4922 28.9314L68.4981 27.2057L47.2155 39.495L50.205 41.2207Z" fill="#FD894A"/>
<path d="M41.2594 53.4766L92.7168 23.766L91.2727 22.9324L39.8131 52.643L41.2594 53.4766Z" fill="#FD894A"/>
<path d="M44.5306 55.3672L95.9902 25.6566L94.5439 24.823L43.0843 54.5336L44.5306 55.3672Z" fill="#FD894A"/>
<path d="M47.804 57.2559L99.2637 27.5453L97.8173 26.7095L46.3577 56.4201L47.804 57.2559Z" fill="#FD894A"/>
<path d="M51.0756 59.1445L102.535 29.4362L101.089 28.6004L49.6293 58.3087L51.0756 59.1445Z" fill="#FD894A"/>
<path d="M54.349 61.0352L105.809 31.3246L104.362 30.491L52.905 60.1994L54.349 61.0352Z" fill="#FD894A"/>
<path d="M57.6224 62.9219L109.082 33.2135L107.638 32.38L56.1784 62.0883L57.6224 62.9219Z" fill="#FD894A"/>
<path d="M60.892 64.8125L112.352 35.1042L110.908 34.2706L59.4479 63.979L60.892 64.8125Z" fill="#FD894A"/>
<path d="M64.1696 66.7031L115.627 36.9925L114.183 36.159L62.7233 65.8696L64.1696 66.7031Z" fill="#FD894A"/>
<path d="M88.0386 56.7012L118.9 38.8811L117.456 38.0476L86.5945 55.8631L88.0386 56.7012Z" fill="#FD894A"/>
<path d="M91.6244 76.9255C91.6019 77.2566 91.6537 77.5788 91.7979 77.8874C91.2076 77.4481 90.6332 76.993 90.5813 76.8038C90.7458 76.7903 91.1017 76.8263 91.6244 76.9255ZM98.1081 74.3482L98.2298 74.7064C98.5677 75.8509 98.2838 76.6934 97.8242 76.8421C97.4322 76.9705 96.4973 76.7813 95.603 76.396C94.6252 75.9748 93.9741 75.4363 94.0912 75.1412C94.1724 74.9429 94.7649 74.5419 98.1081 74.3482ZM92.3836 77.0854C93.0662 77.2454 93.9178 77.4729 94.9113 77.786C97.5922 78.6286 99.0926 79.3653 99.1422 79.5748C99.0656 79.5883 98.437 79.6829 97.3917 79.6266C95.8823 79.5455 93.9336 79.1738 93.0077 78.3695C92.5729 77.9933 92.3881 77.5495 92.3836 77.0854ZM99.7166 79.8406L99.8698 79.7077C100.151 79.2955 98.9214 78.6196 96.2157 77.7004C95.5083 77.4594 93.8773 76.9277 92.4354 76.6123C92.6269 75.7743 93.3005 74.9069 94.0575 74.2378C95.1321 73.2916 96.236 72.8343 96.7338 72.8838C97.0853 72.9199 97.5472 73.2803 97.9009 73.9134C94.2039 74.1432 93.4965 74.6411 93.3388 75.0421C93.1045 75.6323 94.1634 76.3307 95.1411 76.7542C96.0828 77.1598 97.3827 77.4977 98.2027 77.2296C99.2548 76.8894 99.2841 75.6165 98.9912 74.632L98.8831 74.3076C99.8315 74.2671 100.965 74.2423 102.316 74.2355L102.312 73.7895C100.888 73.794 99.6919 73.8233 98.6848 73.8728C98.3086 73.1519 97.7026 72.5301 96.8668 72.4445C95.7426 72.3296 94.3436 73.17 93.4109 73.9922C92.6269 74.6861 91.933 75.5805 91.701 76.4704C90.9012 76.3375 90.2434 76.3217 89.9573 76.5154C89.4459 76.8781 90.2637 77.4977 91.8722 78.6601C92.654 79.2234 94.2783 80.3949 94.0642 80.6247C94.0417 80.6359 93.4875 80.913 88.7543 79.4824L88.3938 79.8789C93.1789 81.3208 94.2377 81.2149 94.6748 80.8972C95.087 80.5886 94.7266 80.1177 93.8953 79.4441C95.3979 79.9781 97.3354 80.1493 98.5947 80.0727C99.1309 80.0389 99.5071 79.9623 99.7166 79.8406Z" fill="#4199E8"/>
<path d="M96 94L163 55.5V59.5L96 98V94Z" fill="#C4C7EA"/>
</svg>
