<svg width="158" height="117" viewBox="0 0 158 117" fill="none" xmlns="http://www.w3.org/2000/svg">
<ellipse cx="79" cy="72" rx="79" ry="45" fill="#E2E2E2"/>
<path d="M39.701 96.8613L38.6211 96.2376V93.6793L39.701 94.303V96.8613Z" fill="#303030"/>
<path d="M37.0412 89.7691C37.0412 92.8534 34.8778 96.6037 32.2074 98.146C29.5348 99.6884 27.3691 98.438 27.3691 95.3537C27.3691 92.2694 29.5348 88.5187 32.2074 86.9764C34.8778 85.4344 37.0412 86.6844 37.0412 89.7691Z" fill="#232323"/>
<path d="M27.9326 95.3543C27.9326 92.27 30.0979 88.5193 32.7694 86.977C33.4306 86.595 34.0623 86.3849 34.6353 86.3309C33.9228 86.2629 33.0926 86.4653 32.2074 86.977C29.5348 88.5193 27.3691 92.27 27.3691 95.3543C27.3691 97.6743 28.5945 98.9562 30.3389 98.7927C28.9001 98.6557 27.9326 97.4153 27.9326 95.3543Z" fill="#292929"/>
<path d="M35.4765 86.5603C35.0284 86.3436 34.4995 86.2682 33.9191 86.3498C33.875 86.3557 33.8273 86.3626 33.7832 86.3715C33.2873 86.4589 32.7584 86.658 32.2037 86.9768C32.1633 87.0014 32.1229 87.0256 32.0825 87.0506L31.9981 87.1028C31.572 87.3694 31.1606 87.692 30.769 88.0574L30.7679 88.0585L30.7029 88.1199C30.3547 88.4516 30.0245 88.8181 29.7152 89.2108L29.6616 89.2809C29.3765 89.6501 29.1113 90.0402 28.8697 90.4464L28.8582 90.4655L28.8072 90.5522C28.5795 90.943 28.373 91.3474 28.1938 91.7599L28.1607 91.8378L28.16 91.8396C27.9642 92.2962 27.8011 92.7609 27.6748 93.2244L27.6513 93.3111C27.5168 93.8195 27.4287 94.3274 27.3905 94.823L27.3835 94.9192C27.374 95.0657 27.3696 95.2105 27.3696 95.3541C27.3696 95.8367 27.4224 96.2746 27.5223 96.6625C27.5326 96.7032 27.5429 96.7422 27.5543 96.7815C27.5965 96.9277 27.6454 97.0665 27.7005 97.198C27.9146 97.7049 28.225 98.1009 28.6103 98.373L24.6566 96.0535C24.4817 95.9782 24.3186 95.8827 24.168 95.7666L24.1578 95.7607L24.1585 95.7596C23.7493 95.4433 23.4323 94.9809 23.2339 94.3873L23.195 94.2643C23.0683 93.8386 23 93.35 23 92.8042C23 92.701 23.0026 92.5978 23.007 92.4931L23.0121 92.395C23.0415 91.897 23.1238 91.3857 23.252 90.8718L23.2747 90.7851L23.2755 90.7836C23.396 90.3182 23.5546 89.8521 23.746 89.3926L23.7805 89.3104L23.7824 89.307C23.9686 88.8695 24.1853 88.4387 24.4262 88.0229L24.4997 87.8954L24.5137 87.873C24.7616 87.458 25.0345 87.0594 25.3284 86.6833L25.3291 86.6822L25.3846 86.612C25.6964 86.2197 26.0299 85.8539 26.3818 85.5237L26.4487 85.4624C26.8428 85.0976 27.2579 84.7777 27.6876 84.5154L27.7725 84.464L27.836 84.4269C28.4241 84.0872 28.9883 83.8829 29.5099 83.804C29.5584 83.797 29.6054 83.7907 29.652 83.7856H29.6527C30.2742 83.718 30.8315 83.8333 31.2928 84.1114V84.1106L35.4765 86.5603Z" fill="#333333"/>
<path d="M35.8014 86.75V86.7495L35.7969 86.746L35.8014 86.75Z" fill="#333333"/>
<path d="M34.0589 88.2448C33.5704 88.2448 33.0451 88.4065 32.4905 88.7256C30.5382 89.8529 28.95 92.6041 28.95 94.8587C28.95 96.4006 29.6887 97.3586 30.878 97.3586C31.3665 97.3586 31.8955 97.197 32.4464 96.8782C34.4006 95.7505 35.9873 92.9993 35.9873 90.7448C35.9873 89.2028 35.249 88.2448 34.0589 88.2448ZM30.878 97.4453C29.635 97.4453 28.8633 96.4543 28.8633 94.8587C28.8633 92.5765 30.471 89.7916 32.4464 88.6504C33.0121 88.3238 33.5557 88.1581 34.0589 88.1581C35.3041 88.1581 36.0755 89.1491 36.0755 90.7448C36.0755 93.0269 34.4666 95.8119 32.4905 96.9531C31.9248 97.2796 31.3812 97.4453 30.878 97.4453Z" fill="#9E9E9E"/>
<path d="M35.0511 91.3102C35.0511 92.9576 33.8978 94.9601 32.4689 95.784C31.043 96.6075 29.8867 95.9398 29.8867 94.2927C29.8867 92.6457 31.043 90.6428 32.4689 89.8192C33.8978 88.9954 35.0511 89.6631 35.0511 91.3102Z" fill="#D4D4D4"/>
<path d="M30.0406 94.4474C30.0406 92.8003 31.198 90.7974 32.6232 89.9738C33.4313 89.5066 34.1549 89.5195 34.6287 89.9184C34.1659 89.3751 33.3725 89.2987 32.4689 89.82C31.043 90.6435 29.8867 92.6464 29.8867 94.2935C29.8867 95.0064 30.1038 95.5353 30.4652 95.8398C30.1971 95.5243 30.0406 95.0523 30.0406 94.4474Z" fill="#BDBDBD"/>
<path d="M27.554 96.7807L27.5912 96.9023L23.2337 94.3866L23.1948 94.2635L23.1621 94.1471L27.5221 96.6617C27.5324 96.7025 27.5427 96.7414 27.554 96.7807Z" fill="#0C0C0C"/>
<path d="M27.3844 94.9196L27.3788 95.0137L23.0078 92.4935L23.0129 92.3955L23.0192 92.3018L27.3913 94.8234L27.3844 94.9196Z" fill="#0C0C0C"/>
<path d="M27.6513 93.3113L27.6292 93.3965L23.252 90.872L23.2747 90.7853L23.2755 90.7838L23.2979 90.699L27.6748 93.2246L27.6513 93.3113Z" fill="#0C0C0C"/>
<path d="M28.1608 91.8385L28.1601 91.8403L28.1255 91.9219L23.7461 89.3933L23.7806 89.311L23.7825 89.3077L23.8155 89.2309L28.1939 91.7606L28.1608 91.8385Z" fill="#0C0C0C"/>
<path d="M28.8075 90.5527L24.4258 88.0227L24.5125 87.8725L28.8942 90.4029L28.8075 90.5527Z" fill="#0C0C0C"/>
<path d="M29.7158 89.2111L29.7684 89.145L25.3852 86.6123L25.3297 86.6825L25.329 86.6836L25.2754 86.7527L29.6622 89.2812L29.7158 89.2111Z" fill="#0C0C0C"/>
<path d="M30.7676 88.0578L30.7687 88.0567L30.8389 87.9913L26.4484 85.4616L26.3815 85.5229L26.3184 85.5828L30.7026 88.1191L30.7676 88.0578Z" fill="#0C0C0C"/>
<path d="M32.1636 87.0014L32.0828 87.0506V87.0514L31.9983 87.1035L27.6074 84.5658L27.6878 84.5162L27.7727 84.4647L32.1636 87.0014Z" fill="#0C0C0C"/>
<path d="M34.0729 86.3314L33.9187 86.3494C33.8746 86.3553 33.8268 86.3623 33.7828 86.3711L29.375 83.8264L29.5094 83.8036C29.5579 83.7966 29.6049 83.7904 29.6516 83.7852H29.6523L34.0729 86.3314Z" fill="#0C0C0C"/>
<path d="M32.8536 90.4637C32.8536 90.708 32.681 91.0051 32.468 91.1275C32.2586 91.2494 32.0859 91.1506 32.0859 90.906C32.0859 90.6617 32.2586 90.3646 32.468 90.2426C32.681 90.1203 32.8536 90.2195 32.8536 90.4637Z" fill="#9E9E9E"/>
<path d="M33.0892 92.5297C33.0892 92.9253 32.8137 93.4068 32.4684 93.6048C32.1268 93.8024 31.8477 93.6423 31.8477 93.2463C31.8477 92.8504 32.1268 92.3692 32.4684 92.1712C32.8137 91.9732 33.0892 92.1337 33.0892 92.5297Z" fill="#9E9E9E"/>
<path d="M31.0752 92.1657C31.2574 92.1818 31.3198 92.4162 31.217 92.6891C31.1104 92.9617 30.875 93.1696 30.6917 93.1534C30.5084 93.1369 30.4456 92.9025 30.5514 92.63C30.6575 92.3571 30.8919 92.1492 31.0752 92.1657Z" fill="#9E9E9E"/>
<path d="M30.6917 94.5022C30.875 94.2741 31.1104 94.2112 31.217 94.3618C31.3198 94.5124 31.2574 94.8195 31.0752 95.0473C30.8919 95.2754 30.6575 95.3382 30.5514 95.1876C30.4456 95.037 30.5084 94.7303 30.6917 94.5022Z" fill="#9E9E9E"/>
<path d="M32.0859 95.1384C32.0859 94.8941 32.2586 94.597 32.468 94.4747C32.681 94.3527 32.8536 94.4515 32.8536 94.6961C32.8536 94.9404 32.681 95.2376 32.468 95.3599C32.2586 95.4818 32.0859 95.383 32.0859 95.1384Z" fill="#9E9E9E"/>
<path d="M33.8634 93.4366C33.6798 93.4204 33.6173 93.1861 33.7238 92.9132C33.8304 92.6406 34.0618 92.4327 34.2454 92.4492C34.4291 92.4654 34.4915 92.6998 34.3887 92.9727C34.2821 93.2452 34.0471 93.4531 33.8634 93.4366Z" fill="#9E9E9E"/>
<path d="M34.2454 91.1C34.0618 91.3281 33.8304 91.3909 33.7238 91.2403C33.6173 91.0897 33.6798 90.783 33.8634 90.5549C34.0471 90.3268 34.2821 90.264 34.3887 90.4146C34.4915 90.5652 34.4291 90.8719 34.2454 91.1Z" fill="#9E9E9E"/>
<path d="M45.581 100.969C45.581 100.716 45.761 100.408 45.9777 100.282C46.0769 100.226 46.1651 100.217 46.2312 100.244L46.2348 100.242L32.7728 92.4826L32.7508 92.4686L32.7361 92.4616V92.4634C32.6663 92.4363 32.5782 92.4451 32.4827 92.5013C32.2623 92.628 32.0859 92.9354 32.0859 93.1885C32.0859 93.3046 32.1227 93.3873 32.1851 93.4324V93.4339L32.1925 93.439L32.2108 93.4486L45.6986 101.225C45.6251 101.183 45.581 101.095 45.581 100.969Z" fill="url(#paint0_linear_2037_20789)"/>
<path d="M76.1349 46.209L95.7274 35.8801C98.3133 34.3852 99.7237 32.758 98.8605 32.2584C97.9974 31.7589 95.1764 32.5743 92.5905 34.0693L72.998 44.3981L76.1349 46.209Z" fill="#FFF78F"/>
<path d="M95.7258 35.8805L76.1333 46.2094L74.9102 46.9477V48.2773L95.7258 36.2552C97.7938 35.0578 99.1124 33.7758 99.1124 33.0559V33.0228V32.6812C99.1124 33.4012 97.7938 34.6831 95.7258 35.8805Z" fill="#E4AB21"/>
<path d="M88.879 53.6035L108.472 43.2784C111.057 41.7834 112.468 40.1525 111.605 39.6567C110.742 39.1571 107.921 39.9725 105.335 41.4675L85.7422 51.7964L88.879 53.6035Z" fill="#FFF78F"/>
<path d="M108.472 43.2768L88.8796 53.6019L87.6602 54.3402V55.6699L108.472 43.6514C110.54 42.454 111.859 41.172 111.859 40.4521V40.4154V40.0775C111.859 40.7974 110.54 42.0793 108.472 43.2768Z" fill="#E4AB21"/>
<path d="M73.7542 37.1426L67.5686 33.565L61.3867 37.1389L67.5723 40.7129L73.7542 37.1426Z" fill="#FEDAA3"/>
<path d="M67.5723 40.7138L61.3867 37.1398V41.8892L67.5723 45.4668V40.7138Z" fill="#FDCE9A"/>
<path d="M73.7541 37.1435L67.5723 40.7138V45.4668L73.7541 41.8965V37.1435Z" fill="#ECBD8F"/>
<path d="M104.848 55.094L98.6623 51.5201L92.4805 55.0903L98.6623 58.668L104.848 55.094Z" fill="#FEDAA3"/>
<path d="M98.6623 58.6686L92.4805 55.091V59.844L98.6623 63.418V58.6686Z" fill="#FDCE9A"/>
<path d="M104.848 55.0947L98.6621 58.6686V63.418L104.848 59.8477V55.0947Z" fill="#ECBD8F"/>
<path d="M96.9609 23.6934L90.7754 20.1158L84.5898 23.686L90.7754 27.2637L96.9609 23.6934Z" fill="#FEDAA3"/>
<path d="M90.7754 27.2624L84.5898 23.6847V28.4378L90.7754 32.0117V27.2624Z" fill="#FDCE9A"/>
<path d="M96.9609 23.6921L90.7754 27.2624V32.0117L96.9609 28.4414V23.6921Z" fill="#ECBD8F"/>
<path d="M128.051 41.6426L121.865 38.065L115.684 41.6389L121.869 45.2129L128.051 41.6426Z" fill="#FEDAA3"/>
<path d="M121.869 45.2138L115.684 41.6398V46.3892L121.869 49.9668V45.2138Z" fill="#FDCE9A"/>
<path d="M128.051 41.6435L121.869 45.2138V49.9668L128.051 46.3965V41.6435Z" fill="#ECBD8F"/>
<path d="M76.3398 44.9297L106.397 27.5154L112.583 31.0857L82.5254 48.5L76.3398 44.9297Z" fill="#FEDAA3"/>
<path d="M82.5273 48.5013L112.585 31.087V31.8767L82.5273 49.291V48.5013Z" fill="#ECBD8F"/>
<path d="M76.3398 44.931L82.5254 48.5013V49.291L76.3398 45.7207V44.931Z" fill="#FDCE9A"/>
<path d="M61.3867 36.3614L91.4439 18.947L97.6258 22.5173L67.5723 39.9316L61.3867 36.3614Z" fill="#FEDAA3"/>
<path d="M67.5723 39.9308L97.6258 22.5164V23.3025L67.5723 40.7168V39.9308Z" fill="#ECBD8F"/>
<path d="M61.3867 36.3605L67.5723 39.9308V40.7168L61.3867 37.1465V36.3605Z" fill="#FDCE9A"/>
<path d="M92.4805 54.3086L121.869 37.28L128.051 40.8503L98.666 57.8789L92.4805 54.3086Z" fill="#FEDAA3"/>
<path d="M98.6641 57.8782L128.049 40.8496V41.6393L98.6641 58.668V57.8782Z" fill="#ECBD8F"/>
<path d="M92.4805 54.308L98.666 57.8782V58.668L92.4805 55.094V54.308Z" fill="#FDCE9A"/>
<path d="M128.05 40.0666L90.7754 18.5458L84.5898 22.1161L121.868 43.6406L128.05 40.0666Z" fill="#FEDAA3"/>
<path d="M121.868 43.6417L84.5898 22.1172V22.9069L121.868 44.4277V43.6417Z" fill="#FDCE9A"/>
<path d="M128.051 40.0677L121.869 43.6417V44.4277L128.051 40.8574V40.0677Z" fill="#ECBD8F"/>
<path d="M120.318 44.5567L83.039 23.0321L76.8535 26.6024L114.132 48.127L120.318 44.5567Z" fill="#FEDAA3"/>
<path d="M114.132 48.126L76.8535 26.6015V27.3912L114.132 48.9121V48.126Z" fill="#FDCE9A"/>
<path d="M120.318 44.5558L114.133 48.126V48.9121L120.318 45.3418V44.5558Z" fill="#ECBD8F"/>
<path d="M112.583 49.0411L75.3047 27.5165L69.1191 31.0868L106.398 52.6113L112.583 49.0411Z" fill="#FEDAA3"/>
<path d="M106.398 52.6104L69.1191 31.0859V31.8756L106.398 53.3965V52.6104Z" fill="#FDCE9A"/>
<path d="M112.584 49.0402L106.398 52.6104V53.3965L112.584 49.8262V49.0402Z" fill="#ECBD8F"/>
<path d="M104.847 53.5254L67.5686 32.0009L61.3867 35.5712L98.6616 57.0957L104.847 53.5254Z" fill="#FEDAA3"/>
<path d="M98.6616 57.0948L61.3867 35.5703V36.36L98.6616 57.8809V57.0948Z" fill="#FDCE9A"/>
<path d="M104.848 53.5245L98.6621 57.0948V57.8809L104.848 54.3106V53.5245Z" fill="#ECBD8F"/>
<path d="M104.698 30.8917V9.07695L80.2051 23.2185V45.0332L104.698 30.8917Z" fill="#C28240"/>
<path d="M64.4844 14.1422V35.9532L80.2054 45.0332V23.2185L64.4844 14.1422Z" fill="#CF975E"/>
<path d="M104.698 9.0772L80.2051 23.2188L72.3557 18.6861L72.2418 18.6236L64.4805 14.1424L88.9766 0.000871658L96.7342 4.48209L96.8481 4.54454L104.698 9.0772Z" fill="#FCBB7F"/>
<path d="M96.8465 4.54399L72.3541 18.6855L72.2402 18.6231L96.7327 4.48154L96.8465 4.54399Z" fill="#A77037"/>
<path d="M74.3201 23.3404C74.3201 23.5278 74.1879 23.6012 74.0262 23.5094L70.456 21.4451C70.2943 21.3532 70.1621 21.1255 70.1621 20.9382V20.5158C70.1621 20.3285 70.2907 20.2513 70.456 20.3431L74.0262 22.4074C74.1879 22.5029 74.3201 22.7307 74.3201 22.9143V23.3404Z" fill="#191919"/>
<path d="M74.7754 17.8008V17.2865L75.3043 16.9816L75.7525 17.2388L74.7754 17.8008ZM74.7754 17.158V16.6768L75.1941 16.9192L74.7754 17.158ZM77.0086 16.5152L76.5606 16.2581L77.7653 15.5638L78.2098 15.8209L77.0086 16.5152ZM76.4504 16.1919L75.9839 15.9238L77.1886 15.2296L77.6514 15.4977L76.4504 16.1919ZM79.4623 15.0973L79.0179 14.8402L96.8472 4.54444L97.288 4.80156L79.4623 15.0973ZM78.904 14.7741L78.4412 14.506L96.2669 4.21386L96.7334 4.48199L78.904 14.7741Z" fill="#FEE4CC"/>
<path d="M74.7754 17.2871V17.1585L75.1941 16.9198L75.3043 16.9822L74.7754 17.2871ZM76.5606 16.2586L76.4504 16.1925L77.6514 15.4983L77.7653 15.5644L76.5606 16.2586ZM79.0179 14.8408L78.904 14.7747L96.7334 4.48255L96.8472 4.545L79.0179 14.8408Z" fill="#DCC6AF"/>
<path d="M85.8058 40.5183L89.1006 38.6156V34.8103L85.8058 36.7129V40.5183ZM89.1447 38.6377L85.7617 40.5918V36.6872L89.1447 34.7332V38.6377Z" fill="#472E00"/>
<path d="M85.8721 40.3981L89.031 38.5763V34.9288L85.8721 36.7544V40.3981ZM89.0457 38.5836L85.8574 40.4238V36.7433L89.0457 34.9068V38.5836Z" fill="#472E00"/>
<path d="M88.4945 38.7855L86.4082 39.9902V39.7295L88.4945 38.5246V38.7855Z" fill="#241907"/>
<path d="M87.2705 36.8272L86.94 36.2358L86.6094 37.2091L86.8004 37.099V39.4277L87.0795 39.2661V36.9374L87.2705 36.8272Z" fill="#241907"/>
<path d="M88.2979 36.2317L87.9673 35.644L87.6367 36.6174L87.8277 36.5035V38.8359L88.1069 38.6743V36.3419L88.2979 36.2317Z" fill="#241907"/>
<path d="M81.5382 42.9795L84.833 41.0768V37.2751L81.5382 39.1778V42.9795ZM84.8771 41.1025L81.4941 43.0566V39.1521L84.8771 37.198V41.1025Z" fill="#472E00"/>
<path d="M81.6084 42.863L84.7637 41.0411V37.3936L81.6084 39.2155V42.863ZM84.7783 41.0484L81.5938 42.8887V39.2082L84.7783 37.3679V41.0484Z" fill="#472E00"/>
<path d="M83.2117 38.7452C83.2117 38.6387 83.2117 38.5726 83.2117 38.5726L83.1677 38.5469L83.1236 38.6204C83.1236 38.624 83.1236 38.6865 83.1236 38.793C82.3926 39.2374 81.8086 40.1667 81.8086 40.7214L81.9335 40.4826L82.0547 40.5745L82.1796 40.3394L82.3008 40.4349L82.4257 40.1961L82.5469 40.2916L82.6718 40.0529L82.7967 40.1484L82.9179 39.9133L83.0428 40.0051L83.1273 39.8398C83.1309 40.523 83.1309 41.3091 83.1236 41.6984C83.1236 41.7572 83.1236 41.8123 83.0171 41.8747L82.951 41.8857L82.9289 41.8086L82.8922 41.7756L82.8444 41.8454C82.8408 41.8564 82.8334 41.9519 82.8848 41.9886C82.9069 42.0033 82.9473 42.0143 83.0171 41.9739C83.2081 41.8637 83.2081 41.7021 83.2117 41.6507C83.2154 41.2613 83.2154 40.4863 83.2154 39.8068L83.2889 39.8655L83.4101 39.6268L83.535 39.7223L83.6562 39.4835L83.7811 39.579L83.906 39.344L84.0272 39.4358L84.152 39.2007L84.2733 39.2962L84.3982 39.0574L84.5231 39.153H84.5267C84.5267 38.591 83.9427 38.3448 83.2117 38.7452Z" fill="#241907"/>
<path d="M83.4109 38.4627C83.3926 38.5031 83.3778 38.5215 83.3705 38.5215C83.3595 38.5215 83.3558 38.5031 83.3742 38.4627C83.3889 38.4223 83.4256 38.3746 83.4256 38.3746C83.4256 38.3746 83.4256 38.426 83.4109 38.4627Z" fill="#241907"/>
<path d="M84.0691 38.3375C84.0544 38.3779 84.0361 38.3926 84.0287 38.3926C84.0177 38.3926 84.014 38.3742 84.0324 38.3338C84.0471 38.2934 84.0838 38.2457 84.0838 38.2457C84.0838 38.2457 84.0838 38.2971 84.0691 38.3375Z" fill="#241907"/>
<path d="M84.3582 38.1202C84.3398 38.1606 84.3251 38.179 84.3178 38.1753C84.3067 38.1753 84.3031 38.157 84.3215 38.1166C84.3362 38.0762 84.3729 38.0321 84.3729 38.0321C84.3729 38.0321 84.3729 38.0798 84.3582 38.1202Z" fill="#241907"/>
<path d="M83.7494 38.4073C83.7347 38.4477 83.7201 38.4661 83.709 38.4624C83.698 38.4624 83.698 38.4441 83.7127 38.4073C83.7274 38.3633 83.7641 38.3192 83.7641 38.3192C83.7641 38.3192 83.7641 38.3669 83.7494 38.4073Z" fill="#241907"/>
<path d="M83.6869 38.1637C83.6723 38.2041 83.6575 38.2188 83.6465 38.2188C83.6355 38.2188 83.6355 38.2004 83.6502 38.16C83.6649 38.1196 83.7016 38.0718 83.7016 38.0718C83.7016 38.0718 83.7016 38.1232 83.6869 38.1637Z" fill="#241907"/>
<path d="M84.0019 38.0406C83.9872 38.081 83.9725 38.0957 83.9615 38.0957C83.9542 38.0957 83.9505 38.0773 83.9652 38.0369C83.9799 37.9965 84.0166 37.9488 84.0166 37.9488C84.0166 37.9488 84.0203 38.0002 84.0019 38.0406Z" fill="#241907"/>
<path d="M82.8158 38.9217C82.8012 38.9658 82.7864 38.9805 82.7754 38.9805C82.7644 38.9805 82.7644 38.9621 82.7791 38.9217C82.7938 38.8813 82.8305 38.8335 82.8305 38.8335C82.8305 38.8335 82.8305 38.885 82.8158 38.9217Z" fill="#241907"/>
<path d="M82.7025 38.7262C82.6879 38.7666 82.6732 38.7812 82.6622 38.7812C82.6511 38.7812 82.6511 38.7629 82.6658 38.7225C82.6805 38.6821 82.7173 38.6343 82.7173 38.6343C82.7173 38.6343 82.7172 38.6821 82.7025 38.7262Z" fill="#241907"/>
<path d="M82.4662 39.0643C82.4515 39.1047 82.4368 39.123 82.4258 39.123C82.4148 39.123 82.4148 39.1047 82.4295 39.0643C82.4442 39.0239 82.4809 38.9761 82.4809 38.9761C82.4809 38.9761 82.4809 39.0239 82.4662 39.0643Z" fill="#241907"/>
<path d="M82.0639 39.5054C82.0492 39.5459 82.0345 39.5605 82.0235 39.5605C82.0125 39.5605 82.0125 39.5422 82.0272 39.5018C82.0419 39.4614 82.0786 39.4136 82.0786 39.4136C82.0786 39.4136 82.0786 39.465 82.0639 39.5054Z" fill="#241907"/>
<path d="M82.2279 39.0636C82.2095 39.104 82.1948 39.1224 82.1874 39.1187C82.1764 39.1187 82.1727 39.1003 82.1874 39.0599C82.2058 39.0195 82.2425 38.9755 82.2425 38.9755C82.2425 38.9755 82.2425 39.0232 82.2279 39.0636Z" fill="#241907"/>
<path d="M82.3451 39.3995C82.3305 39.4399 82.3157 39.4583 82.3047 39.4546C82.2937 39.4546 82.2937 39.4362 82.3084 39.3958C82.3231 39.3554 82.3598 39.3077 82.3598 39.3077C82.3598 39.3077 82.3598 39.3591 82.3451 39.3995Z" fill="#241907"/>
<path d="M83.0886 38.5109C83.0703 38.5513 83.0556 38.5696 83.0483 38.5659C83.0372 38.5659 83.0335 38.5476 83.0519 38.5072C83.0666 38.4668 83.1033 38.419 83.1033 38.419C83.1033 38.419 83.1033 38.4704 83.0886 38.5109Z" fill="#241907"/>
<path d="M84.2826 37.8605C84.2679 37.9009 84.2533 37.9192 84.2422 37.9156C84.2312 37.9156 84.2312 37.8972 84.2459 37.8568C84.2606 37.8164 84.2973 37.7686 84.2973 37.7686C84.2973 37.7686 84.2973 37.8201 84.2826 37.8605Z" fill="#241907"/>
<path d="M90.1007 38.0398L93.3955 36.1371V32.3318L90.1007 34.2344V38.0398ZM93.4359 36.1628L90.0566 38.1133V34.2087L93.4359 32.2583V36.1628Z" fill="#472E00"/>
<path d="M90.167 37.9176L93.3259 36.0958V32.4484L90.167 34.2739V37.9176ZM93.3406 36.1031L90.1523 37.9434V34.2629L93.3406 32.4263V36.1031Z" fill="#472E00"/>
<path d="M92.3843 34.3667L92.5973 33.5255L92.3917 33.8157L92.0427 33.4557L91.3448 33.8561L90.8379 34.9029L91.3007 35.0352L91.6827 34.2197L91.9252 34.4732L91.7194 34.7634L92.3843 34.3667Z" fill="#241907"/>
<path d="M91.1171 35.729L91.3485 35.718L91.0069 35.2551L90.3604 35.7731L90.5918 35.7584L90.3457 36.5371L90.691 37.0293L91.5101 36.684L91.5799 35.9898L90.9408 36.269L91.1171 35.729Z" fill="#241907"/>
<path d="M93.1191 34.8876L92.8032 34.1824L92.2779 34.748L92.5314 35.2806L92.1126 35.5671L92.0869 35.2916L91.7637 36.1475L92.1971 36.4707L92.1714 36.1952L92.7701 35.7802L93.1191 34.8876Z" fill="#241907"/>
<path d="M80.2849 44.9855L80.2041 45.0332L80.127 44.9855V23.1744L80.2041 23.2185L80.2849 23.1744V44.9855Z" fill="#8C5B2F"/>
<path d="M96.6152 33.4453L102.448 30.077V21.6803L96.6152 25.0486V33.4453Z" fill="#EFEFEF"/>
<path d="M98.3496 24.7578L101.986 22.6605V22.5466L98.3496 24.644V24.7578Z" fill="#A1A1A1"/>
<path d="M98.3496 25.0469L101.986 22.9495V22.8356L98.3496 24.933V25.0469Z" fill="#A1A1A1"/>
<path d="M98.3496 25.3379L101.986 23.2405V23.1267L98.3496 25.224V25.3379Z" fill="#A1A1A1"/>
<path d="M98.3496 25.6289L101.986 23.5316V23.414L98.3496 25.5151V25.6289Z" fill="#A1A1A1"/>
<path d="M96.9434 27.2734L101.987 24.3643V24.2505L96.9434 27.1596V27.2734Z" fill="#A1A1A1"/>
<path d="M96.9434 27.582L101.987 24.6692V24.5554L96.9434 27.4681V27.582Z" fill="#A1A1A1"/>
<path d="M96.9434 29.4707L101.987 26.5579V26.4441L96.9434 29.3569V29.4707Z" fill="#A1A1A1"/>
<path d="M96.9434 29.7793L101.987 26.8665V26.7526L96.9434 29.6654V29.7793Z" fill="#A1A1A1"/>
<path d="M96.9434 30.0586L101.987 27.1495V27.032L96.9434 29.9447V30.0586Z" fill="#A1A1A1"/>
<path d="M96.9434 30.3398L101.987 27.4271V27.3132L96.9434 30.2223V30.3398Z" fill="#A1A1A1"/>
<path d="M97.0117 26.3984L97.9925 25.8328V24.8484L97.0117 25.414V26.3984Z" fill="#A1A1A1"/>
<path d="M100.602 26.2852L101.582 25.7158V25.2567L100.602 25.8223V26.2852Z" fill="#A1A1A1"/>
<path d="M99.043 27.1816L100.024 26.616V26.1569L99.043 26.7225V27.1816Z" fill="#A1A1A1"/>
<path d="M97.4863 28.082L98.4671 27.5164V27.0536L97.4863 27.6192V28.082Z" fill="#A1A1A1"/>
<path d="M100.602 27.002L101.582 26.4363V25.9735L100.602 26.5391V27.002Z" fill="#A1A1A1"/>
<path d="M99.043 27.9023L100.024 27.333V26.8739L99.043 27.4395V27.9023Z" fill="#A1A1A1"/>
<path d="M97.4863 28.8008L98.4671 28.2314V27.7723L97.4863 28.3379V28.8008Z" fill="#A1A1A1"/>
<path d="M97.0352 31.9504C97.0352 32.314 97.2923 32.4646 97.6045 32.281C97.9204 32.0973 98.1775 31.6566 98.1775 31.2929C98.1775 30.9293 97.9204 30.7824 97.6045 30.9623C97.2923 31.146 97.0352 31.5867 97.0352 31.9504Z" fill="#A1A1A1"/>
<path d="M101.936 29.6836L101.976 29.6579V28.6441L101.936 28.6661V29.6836Z" fill="#A1A1A1"/>
<path d="M101.828 29.7422L101.869 29.7202V28.7064L101.828 28.7284V29.7422Z" fill="#A1A1A1"/>
<path d="M101.725 29.8047L101.761 29.7826V28.7652L101.725 28.7909V29.8047Z" fill="#A1A1A1"/>
<path d="M101.619 29.8633L101.66 29.8413V28.8275L101.619 28.8495V29.8633Z" fill="#A1A1A1"/>
<path d="M101.512 29.9258L101.552 29.9038V28.89L101.512 28.912V29.9258Z" fill="#A1A1A1"/>
<path d="M101.406 29.9844L101.447 29.9624V28.9486L101.406 28.9706V29.9844Z" fill="#A1A1A1"/>
<path d="M101.303 30.0469L101.343 30.0249V29.011L101.303 29.0331V30.0469Z" fill="#A1A1A1"/>
<path d="M101.195 30.1094L101.236 30.0837V29.0699L101.195 29.0956V30.1094Z" fill="#A1A1A1"/>
<path d="M101.09 30.168L101.13 30.1459V29.1322L101.09 29.1542V30.168Z" fill="#A1A1A1"/>
<path d="M100.988 30.2305L101.025 30.2084V29.191L100.988 29.2167V30.2305Z" fill="#A1A1A1"/>
<path d="M100.881 30.2891L100.921 30.267V29.2532L100.881 29.2753V30.2891Z" fill="#A1A1A1"/>
<path d="M100.773 30.3516L100.814 30.3295V29.3158L100.773 29.3378V30.3516Z" fill="#A1A1A1"/>
<path d="M121.623 40.3858V18.5747L97.127 32.7163V54.5273L121.623 40.3858Z" fill="#C28240"/>
<path d="M81.4062 23.6363V45.4511L97.1272 54.5273V32.7163L81.4062 23.6363Z" fill="#CF975E"/>
<path d="M121.623 18.5752L97.1309 32.7168L89.2778 28.1841L89.1639 28.118L81.4062 23.6368L105.899 9.49895L113.656 13.9765L113.77 14.0426L121.623 18.5752Z" fill="#FCBB7F"/>
<path d="M113.77 14.042L89.2779 28.1836L89.1641 28.1175L113.656 13.9759L113.77 14.042Z" fill="#A77037"/>
<path d="M91.2456 32.8349C91.2456 33.0222 91.1134 33.0994 90.9518 33.0039L87.3778 30.9433C87.2162 30.8478 87.084 30.62 87.084 30.4327V30.0103C87.084 29.8229 87.2162 29.7458 87.3778 29.8413L90.9518 31.9019C91.1134 31.9974 91.2456 32.2252 91.2456 32.4125V32.8349Z" fill="#191919"/>
<path d="M89.0832 28.0703L88.7012 27.8499L89.0832 28.0703Z" fill="#ECD5BF"/>
<path d="M89.7223 28.4414L89.2778 28.1843L92.0143 26.6048L92.4588 26.862L89.7223 28.4414ZM89.164 28.1182L89.0832 28.0704L88.7012 27.85L91.434 26.2706L91.9005 26.5387L89.164 28.1182Z" fill="#FEE4CC"/>
<path d="M89.2779 28.1836L89.1971 28.1359L89.1641 28.1175L91.9005 26.538L92.0144 26.6041L89.2779 28.1836Z" fill="#DCC6AF"/>
<path d="M93.7143 26.1387L93.2661 25.8816L113.77 14.043L114.214 14.2965L93.7143 26.1387ZM93.1559 25.8154L92.6895 25.5473L113.193 13.7124L113.656 13.9769L93.1559 25.8154Z" fill="#FEE4CC"/>
<path d="M93.2664 25.8809L93.1562 25.8147L113.656 13.9762L113.77 14.0423L93.2664 25.8809Z" fill="#DCC6AF"/>
<path d="M89.7223 30.4688L88.7012 29.8774V27.8498L89.164 28.1179L89.197 28.1363L89.6011 28.3677L89.7223 28.4412V30.4688Z" fill="#ECD5BF"/>
<path d="M89.7208 28.4414L89.5996 28.3679L89.7208 28.4414Z" fill="#FEE4CC"/>
<path d="M89.197 28.1367L89.164 28.1184L88.7012 27.8502L89.0832 28.0706L89.164 28.1184L89.197 28.1367Z" fill="#F7EEE5"/>
<path d="M102.728 50.0144L106.022 48.1117V44.3064L102.728 46.209V50.0144ZM106.067 48.1374L102.684 50.0879V46.1833L106.067 44.2329V48.1374Z" fill="#472E00"/>
<path d="M102.798 49.8962L105.953 48.0706V44.4269L102.798 46.2487V49.8962ZM105.968 48.0816L102.783 49.9219V46.2414L105.968 44.4011V48.0816Z" fill="#472E00"/>
<path d="M105.42 48.2796L103.334 49.4844V49.2273L105.42 48.0225V48.2796Z" fill="#241907"/>
<path d="M104.194 46.3233L103.864 45.7356L103.533 46.7052L103.724 46.595V48.9238L104.003 48.7622V46.4335L104.194 46.3233Z" fill="#241907"/>
<path d="M105.221 45.7315L104.887 45.1401L104.557 46.1135L104.751 46.0033L104.748 48.332L105.03 48.1704V45.8417L105.221 45.7315Z" fill="#241907"/>
<path d="M98.4601 52.4793L101.755 50.5766V46.7712L98.4601 48.6739V52.4793ZM101.799 50.6023L98.4197 52.5527L98.416 48.6482L101.799 46.6978V50.6023Z" fill="#472E00"/>
<path d="M98.5303 52.3571L101.689 50.5352V46.8915L98.5303 48.7133V52.3571ZM101.704 50.5426L98.5156 52.3828V48.7023L101.704 46.8658V50.5426Z" fill="#472E00"/>
<path d="M100.136 48.2399C100.136 48.1333 100.136 48.0709 100.136 48.0673L100.091 48.0415L100.047 48.1187C100.047 48.1223 100.047 48.1848 100.051 48.2913C99.3201 48.7321 98.7324 49.6651 98.7324 50.216L98.8573 49.9773L98.9822 50.0728L99.1034 49.834L99.2283 49.9295L99.3495 49.6945L99.4744 49.7863L99.5956 49.5512L99.7205 49.6467L99.8417 49.408L99.9666 49.5034L100.051 49.3382C100.055 50.0177 100.055 50.8037 100.047 51.1967C100.047 51.2555 100.047 51.3069 99.9409 51.3694L99.8748 51.3804L99.8527 51.3033L99.816 51.2702L99.7683 51.3437C99.7683 51.3547 99.7609 51.4502 99.8123 51.4833C99.8307 51.5016 99.8711 51.509 99.9409 51.4686C100.132 51.3584 100.136 51.2004 100.136 51.149C100.139 50.7596 100.139 49.9809 100.139 49.3051L100.213 49.3602L100.338 49.1251L100.459 49.2169L100.584 48.9818L100.705 49.0774L100.83 48.8386L100.951 48.9341L101.076 48.699L101.197 48.7908L101.322 48.5558L101.447 48.6513L101.451 48.6476C101.451 48.0893 100.867 47.8395 100.136 48.2399Z" fill="#241907"/>
<path d="M100.333 47.9605C100.319 48.0009 100.304 48.0156 100.293 48.0156C100.282 48.0156 100.282 47.9973 100.297 47.9569C100.311 47.9165 100.348 47.8687 100.348 47.8687C100.348 47.8687 100.348 47.9201 100.333 47.9605Z" fill="#241907"/>
<path d="M100.99 47.8331C100.975 47.8735 100.96 47.8919 100.949 47.8882C100.938 47.8882 100.938 47.8699 100.953 47.8295C100.968 47.7891 101.004 47.7413 101.004 47.7413C101.004 47.7413 101.004 47.7927 100.99 47.8331Z" fill="#241907"/>
<path d="M101.281 47.6187C101.266 47.6591 101.251 47.6738 101.24 47.6738C101.229 47.6738 101.229 47.6554 101.244 47.615C101.259 47.5746 101.295 47.5269 101.295 47.5269C101.295 47.5269 101.295 47.5783 101.281 47.6187Z" fill="#241907"/>
<path d="M100.676 47.9058C100.657 47.9462 100.642 47.9609 100.631 47.9609C100.624 47.9609 100.62 47.9426 100.635 47.9022C100.653 47.8618 100.69 47.814 100.69 47.814C100.69 47.814 100.69 47.8654 100.676 47.9058Z" fill="#241907"/>
<path d="M100.609 47.66C100.594 47.7004 100.579 47.7188 100.568 47.7188C100.557 47.7151 100.557 47.7004 100.572 47.66C100.587 47.6159 100.624 47.5718 100.624 47.5718C100.624 47.5718 100.623 47.6196 100.609 47.66Z" fill="#241907"/>
<path d="M100.928 47.535C100.91 47.5754 100.895 47.5938 100.888 47.5938C100.877 47.5901 100.873 47.5717 100.892 47.535C100.906 47.4909 100.943 47.4468 100.943 47.4468C100.943 47.4468 100.943 47.4946 100.928 47.535Z" fill="#241907"/>
<path d="M99.7377 48.4191C99.723 48.4595 99.7083 48.4778 99.6973 48.4742C99.6863 48.4742 99.6863 48.4558 99.701 48.4154C99.7157 48.375 99.7524 48.3272 99.7524 48.3272C99.7524 48.3272 99.7524 48.3786 99.7377 48.4191Z" fill="#241907"/>
<path d="M99.6286 48.2222C99.6103 48.2627 99.5956 48.2773 99.5846 48.2773C99.5772 48.2773 99.5735 48.259 99.5882 48.2186C99.6066 48.1782 99.6433 48.1304 99.6433 48.1304C99.6433 48.1304 99.6433 48.1818 99.6286 48.2222Z" fill="#241907"/>
<path d="M99.3886 48.564C99.3739 48.6044 99.3592 48.6191 99.3482 48.6191C99.3409 48.6191 99.3372 48.6008 99.3519 48.5603C99.3703 48.5199 99.407 48.4722 99.407 48.4722C99.407 48.4722 99.407 48.5236 99.3886 48.564Z" fill="#241907"/>
<path d="M98.9858 48.9998C98.9711 49.0402 98.9564 49.0586 98.9453 49.0586C98.9343 49.0549 98.9343 49.0365 98.949 48.9961C98.9637 48.9557 99.0004 48.9117 99.0004 48.9117C99.0004 48.9117 99.0005 48.9594 98.9858 48.9998Z" fill="#241907"/>
<path d="M99.1498 48.564C99.1351 48.6008 99.1204 48.6191 99.1094 48.6191C99.0984 48.6191 99.0984 48.6008 99.1131 48.5603C99.1278 48.5199 99.1645 48.4722 99.1645 48.4722C99.1645 48.4722 99.1645 48.52 99.1498 48.564Z" fill="#241907"/>
<path d="M99.269 48.8944C99.2543 48.9384 99.2396 48.9531 99.2286 48.9531C99.2175 48.9531 99.2175 48.9348 99.2322 48.8944C99.2469 48.854 99.2873 48.8062 99.2873 48.8062C99.2873 48.8062 99.2873 48.8576 99.269 48.8944Z" fill="#241907"/>
<path d="M100.009 48.0057C99.9945 48.0498 99.9798 48.0645 99.9688 48.0645C99.9578 48.0645 99.9578 48.0461 99.9725 48.0057C99.9871 47.9653 100.024 47.9175 100.024 47.9175C100.024 47.9175 100.024 47.9653 100.009 48.0057Z" fill="#241907"/>
<path d="M101.205 47.359C101.19 47.3957 101.175 47.4141 101.164 47.4141C101.153 47.4141 101.153 47.3957 101.168 47.3553C101.182 47.3149 101.219 47.2671 101.219 47.2671C101.219 47.2671 101.219 47.3149 101.205 47.359Z" fill="#241907"/>
<path d="M107.021 47.5342L110.315 45.6315V41.8261L107.021 43.7288V47.5342ZM110.36 45.6572L106.977 47.6113V43.7068L110.36 41.7527V45.6572Z" fill="#472E00"/>
<path d="M107.093 47.4176L110.248 45.5957V41.9483L107.093 43.7702V47.4176ZM110.263 45.6031L107.078 47.4434V43.7629L110.263 41.9226V45.6031Z" fill="#472E00"/>
<path d="M109.306 43.8608L109.519 43.0233L109.314 43.3135L108.965 42.9499L108.271 43.3502L107.764 44.4007L108.223 44.5293L108.605 43.7139L108.847 43.9673L108.642 44.2575L109.306 43.8608Z" fill="#241907"/>
<path d="M108.039 45.227L108.27 45.2124L107.929 44.7532L107.286 45.2675L107.517 45.2565L107.268 46.0315L107.613 46.5273L108.436 46.1821L108.502 45.4842L107.866 45.767L108.039 45.227Z" fill="#241907"/>
<path d="M110.041 44.3839L109.725 43.6787L109.2 44.248L109.453 44.7806L109.038 45.0671L109.013 44.7879L108.689 45.6475L109.119 45.9707L109.093 45.6916L109.692 45.2802L110.041 44.3839Z" fill="#241907"/>
<path d="M97.2068 54.4833L97.1296 54.5273L97.0488 54.4833V32.6686L97.1259 32.7163L97.2068 32.6686V54.4833Z" fill="#8C5B2F"/>
<path d="M113.541 42.9395L119.37 39.5712V31.1781L113.541 34.5427V42.9395Z" fill="#EFEFEF"/>
<path d="M115.275 34.2559L118.908 32.1548V32.0409L115.275 34.142V34.2559Z" fill="#A1A1A1"/>
<path d="M115.275 34.5469L118.908 32.4458V32.332L115.275 34.4293V34.5469Z" fill="#A1A1A1"/>
<path d="M115.275 34.832L118.908 32.7347V32.6208L115.275 34.7182V34.832Z" fill="#A1A1A1"/>
<path d="M115.275 35.123L118.908 33.0257V32.9118L115.275 35.0092V35.123Z" fill="#A1A1A1"/>
<path d="M113.867 36.7734L118.907 33.8606V33.7468L113.867 36.6595V36.7734Z" fill="#A1A1A1"/>
<path d="M113.867 37.0781L118.907 34.169V34.0551L113.867 36.9642V37.0781Z" fill="#A1A1A1"/>
<path d="M113.867 38.9648L118.907 36.0558V35.9419L113.867 38.851V38.9648Z" fill="#A1A1A1"/>
<path d="M113.867 39.2734L118.907 36.3607V36.2468L113.867 39.1596V39.2734Z" fill="#A1A1A1"/>
<path d="M113.867 39.5527L118.907 36.6436V36.5298L113.867 39.4389V39.5527Z" fill="#A1A1A1"/>
<path d="M113.867 39.8359L118.907 36.9268V36.8093L113.867 39.7221V39.8359Z" fill="#A1A1A1"/>
<path d="M113.936 35.8984L114.916 35.3291V34.3484L113.936 34.914V35.8984Z" fill="#A1A1A1"/>
<path d="M117.523 35.7812L118.504 35.2156V34.7528L117.523 35.3184V35.7812Z" fill="#A1A1A1"/>
<path d="M115.967 36.6797L116.948 36.1104V35.6512L115.967 36.2169V36.6797Z" fill="#A1A1A1"/>
<path d="M114.408 37.5762L115.389 37.0105V36.5514L114.408 37.117V37.5762Z" fill="#A1A1A1"/>
<path d="M117.523 36.4961L118.504 35.9304V35.4713L117.523 36.037V36.4961Z" fill="#A1A1A1"/>
<path d="M115.967 37.3965L116.948 36.8308V36.368L115.967 36.9373V37.3965Z" fill="#A1A1A1"/>
<path d="M114.408 38.2969L115.389 37.7312V37.2684L114.408 37.834V38.2969Z" fill="#A1A1A1"/>
<path d="M113.957 41.4475C113.957 41.8111 114.214 41.958 114.53 41.7744C114.846 41.5944 115.099 41.1499 115.099 40.7863C115.099 40.4227 114.846 40.2757 114.53 40.4594C114.214 40.6394 113.957 41.0838 113.957 41.4475Z" fill="#A1A1A1"/>
<path d="M118.855 39.1777L118.896 39.1557V38.1419L118.855 38.1639V39.1777Z" fill="#A1A1A1"/>
<path d="M118.754 39.2402L118.794 39.2146V38.2007L118.754 38.2228V39.2402Z" fill="#A1A1A1"/>
<path d="M118.648 39.2988L118.689 39.2768V38.263L118.648 38.285V39.2988Z" fill="#A1A1A1"/>
<path d="M118.541 39.3613L118.581 39.3356V38.3218L118.541 38.3475V39.3613Z" fill="#A1A1A1"/>
<path d="M118.438 39.4199L118.474 39.3979V38.3841L118.438 38.4062V39.4199Z" fill="#A1A1A1"/>
<path d="M118.332 39.4824L118.372 39.4604V38.4429L118.332 38.4686V39.4824Z" fill="#A1A1A1"/>
<path d="M118.225 39.5449L118.265 39.5192V38.5054L118.225 38.5275V39.5449Z" fill="#A1A1A1"/>
<path d="M118.117 39.6035L118.158 39.5815V38.5677L118.117 38.5897V39.6035Z" fill="#A1A1A1"/>
<path d="M118.016 39.666L118.052 39.6403V38.6265L118.016 38.6522V39.666Z" fill="#A1A1A1"/>
<path d="M117.91 39.7246L117.951 39.7026V38.6888L117.91 38.7108V39.7246Z" fill="#A1A1A1"/>
<path d="M117.803 39.7871L117.843 39.7651V38.7476L117.803 38.7733V39.7871Z" fill="#A1A1A1"/>
<path d="M117.695 39.8477L117.736 39.8256V38.8119L117.695 38.8339V39.8477Z" fill="#A1A1A1"/>
<path d="M87.6602 36.7254V54.3418L88.8943 53.6072V35.9798L87.6602 36.7254Z" fill="#E4AB21"/>
<path d="M74.9102 29.3273V46.9473L76.148 46.2089V28.6477L76.1443 28.5816L74.9102 29.3273Z" fill="#E4AB21"/>
<path d="M74.9105 29.3167L71.7773 27.5058V46.4665L74.9105 48.2773V29.3167Z" fill="#F5EC7A"/>
<path d="M87.6603 36.7129L84.5234 34.902V53.8627L87.6603 55.6699V36.7129Z" fill="#F5EC7A"/>
<path d="M69.4672 13.617L68.1853 12.8823L68.1816 38.9836L68.2147 39.002L69.4636 38.271L69.4672 13.617Z" fill="#2D2D2D"/>
<path d="M92.4466 34.6758L68.1855 20.6665V19.2193L92.4466 33.2286V34.6758Z" fill="#474747"/>
<path d="M69.4638 18.4369L68.1855 19.2193L69.7319 20.1118L92.4466 33.2286V34.6758L93.7248 33.8934V32.4462L69.4638 18.4369Z" fill="#5B5B5B"/>
<path d="M80.5542 20.001V26.3555L80.0547 26.0653V19.7108L80.5542 20.001Z" fill="#474747"/>
<path d="M81.3329 18.9394L80.0547 19.7108L80.5542 20.001V26.3555L81.8288 25.5731V19.2296L81.3329 18.9394Z" fill="#2D2D2D"/>
<path d="M87.3338 23.9099V30.2754L86.8379 29.9889V23.6234L87.3338 23.9099Z" fill="#474747"/>
<path d="M88.1125 22.863L86.8379 23.6234L87.3338 23.9099V30.2754L88.612 29.493V23.1532L88.1125 22.863Z" fill="#2D2D2D"/>
<path d="M72.6482 15.457V21.7969L72.1523 21.5104V15.1669L72.6482 15.457Z" fill="#474747"/>
<path d="M73.4269 14.3845L72.1523 15.1669L72.6482 15.457V21.7969L73.9265 21.0145V14.671L73.4269 14.3845Z" fill="#2D2D2D"/>
<path d="M94.974 25.3822L68.2079 9.92937L66.9297 10.7118L69.4605 12.17L93.7215 26.1426L94.974 25.419V25.3822Z" fill="#5B5B5B"/>
<path d="M93.7212 26.1422L93.6992 52.1883V55.1562L94.9738 54.3738V25.4186L93.7212 26.1422Z" fill="#2D2D2D"/>
<path d="M92.4583 42.4355L68.1973 28.4263V26.979L92.4583 40.9847V42.4355Z" fill="#474747"/>
<path d="M69.4755 26.1967L68.1973 26.979L69.74 27.8716L92.4583 40.9847V42.4355L93.7108 41.6679V40.1913L69.4755 26.1967Z" fill="#5B5B5B"/>
<path d="M92.472 51.5501L69.4636 38.2718L68.1816 38.9844L92.4427 52.9863L92.472 51.5501Z" fill="#5B5B5B"/>
<path d="M92.4432 52.9854L68.1896 38.9798H68.1859V12.8822L92.469 26.8658L92.4432 52.9854ZM66.9297 10.7114V12.1586V39.7034L93.6995 55.1562L93.7215 26.1422L66.9297 10.7114Z" fill="#474747"/>
<path d="M76.1407 25.9985L73.0076 24.1877L70.4805 25.6423L73.6136 27.4531L76.1407 25.9985Z" fill="#FCDC41"/>
<path d="M73.6136 27.4645L70.4805 25.6536L70.4841 28.2946L73.6173 30.1055L73.6136 27.4645Z" fill="#FFF78F"/>
<path d="M76.1423 25.9989L73.6152 27.4535L73.6189 30.1055L74.9118 29.3157V29.3268L76.146 28.5811L76.1423 25.9989Z" fill="#E4AB21"/>
<path d="M88.8868 33.3934L85.7537 31.5825L83.2266 33.0407L86.3597 34.8516L88.8868 33.3934Z" fill="#FCDC41"/>
<path d="M86.3597 34.8629L83.2266 33.0521L83.2302 35.6931L86.3634 37.5039L86.3597 34.8629Z" fill="#FFF78F"/>
<path d="M88.8865 33.3937L86.3594 34.8519L86.363 37.5039L87.6596 36.7142V36.7252L88.8938 35.9796L88.8865 33.3937Z" fill="#E4AB21"/>
<path d="M90.4526 17.7715L87.2754 19.6044V80.9941L90.4526 79.1568V17.7715Z" fill="#2D2D2D"/>
<path d="M74.7749 13.8344L71.5977 12.0015V70.4961L74.7749 68.6595V13.8344Z" fill="#2D2D2D"/>
<path d="M71.4856 6.81736L68.3047 8.65023L87.2764 19.6035L90.4537 17.7706L71.4856 6.81736Z" fill="#5B5B5B"/>
<path d="M74.7727 68.6545L71.5918 70.491L83.9813 77.6426V73.9694L74.7727 68.6545Z" fill="#5B5B5B"/>
<path d="M83.9816 77.6435L71.5995 70.4956V12.001L83.9816 19.1526V77.6435ZM68.3047 8.65108V70.0401L87.2764 80.9941V19.6044L68.3047 8.65108Z" fill="#474747"/>
<path d="M70.693 10.0094L69.1797 9.13522V70.5242L70.693 71.3984V10.0094Z" fill="#2D2D2D"/>
<path d="M86.445 19.1149L84.9316 18.2407V79.6297L86.445 80.5039V19.1149Z" fill="#2D2D2D"/>
<path d="M56.9348 101.474C56.9348 104.558 54.7677 108.309 52.0973 109.851C49.4269 111.393 47.2598 110.143 47.2598 107.059C47.2598 103.975 49.4269 100.224 52.0973 98.6816C54.7677 97.1396 56.9348 98.3896 56.9348 101.474Z" fill="#232323"/>
<path d="M47.8254 107.059C47.8254 103.975 49.9889 100.224 52.6593 98.6821C53.3241 98.3001 53.9522 98.09 54.5289 98.036C53.8126 97.968 52.9825 98.1704 52.0973 98.6821C49.4269 100.224 47.2598 103.975 47.2598 107.059C47.2598 109.379 48.4866 110.661 50.2313 110.498C48.7914 110.361 47.8254 109.12 47.8254 107.059Z" fill="#292929"/>
<path d="M55.3666 98.2653C54.9184 98.0486 54.3931 97.9733 53.8128 98.0545C53.765 98.0607 53.721 98.0677 53.6732 98.0762C53.181 98.164 52.6484 98.3631 52.0975 98.6819C52.0571 98.7061 52.013 98.7304 51.9726 98.7557L51.8881 98.8075C51.462 99.0745 51.0506 99.397 50.6612 99.7625V99.7632L50.5951 99.825C50.2462 100.157 49.9156 100.523 49.6071 100.916L49.552 100.986C49.2691 101.355 49.0047 101.745 48.7622 102.152L48.7512 102.171L48.6998 102.257C48.4721 102.648 48.2664 103.053 48.0864 103.465L48.0533 103.543V103.545C47.855 104.001 47.6934 104.466 47.5648 104.93L47.5428 105.016C47.4106 105.525 47.3187 106.033 47.282 106.528L47.2746 106.624C47.2673 106.771 47.2599 106.916 47.2599 107.059C47.2599 107.542 47.315 107.979 47.4142 108.368C47.4252 108.408 47.4362 108.447 47.4473 108.486C47.4877 108.633 47.5354 108.772 47.5942 108.903C47.8072 109.41 48.1158 109.806 48.5015 110.078L44.5492 107.759C44.3729 107.683 44.2112 107.588 44.0606 107.472L44.0496 107.466V107.465C43.6419 107.148 43.3223 106.686 43.124 106.092L43.0872 105.969C42.9587 105.544 42.8926 105.055 42.8926 104.509C42.8926 104.406 42.8926 104.303 42.8999 104.198L42.9036 104.1C42.933 103.602 43.0138 103.091 43.1423 102.577L43.1681 102.49V102.488C43.2893 102.023 43.4472 101.557 43.6382 101.098L43.6713 101.015L43.6749 101.012C43.8586 100.574 44.0753 100.144 44.3177 99.728L44.3912 99.6005L44.4059 99.5781C44.652 99.163 44.9275 98.7641 45.2214 98.3884V98.3873L45.2765 98.3171C45.5887 97.9248 45.9229 97.559 46.2719 97.2288L46.3417 97.1674C46.7347 96.8027 47.1498 96.4828 47.5795 96.2201L47.664 96.1691L47.7264 96.132C48.3141 95.7922 48.8798 95.5876 49.4014 95.509C49.4491 95.5021 49.4969 95.4958 49.5446 95.4907C50.1654 95.4231 50.7237 95.5384 51.1865 95.8164V95.8157L55.3666 98.2653Z" fill="#333333"/>
<path d="M55.6901 98.4551V98.4542L55.6855 98.451L55.6901 98.4551Z" fill="#333333"/>
<path d="M53.9514 99.95C53.4629 99.95 52.9339 100.112 52.383 100.431C50.4288 101.558 48.842 104.309 48.842 106.564C48.842 108.106 49.5804 109.064 50.7668 109.064C51.259 109.064 51.7842 108.902 52.3389 108.583C54.2893 107.456 55.8798 104.704 55.8798 102.45C55.8798 100.908 55.1415 99.95 53.9514 99.95ZM50.7668 109.15C49.5253 109.15 48.7539 108.159 48.7539 106.564C48.7539 104.282 50.3627 101.497 52.3389 100.355C52.9045 100.029 53.4482 99.8633 53.9514 99.8633C55.1929 99.8633 55.9643 100.854 55.9643 102.45C55.9643 104.732 54.3591 107.517 52.383 108.658C51.8136 108.985 51.2737 109.15 50.7668 109.15Z" fill="#9E9E9E"/>
<path d="M54.9454 103.015C54.9454 104.662 53.7884 106.665 52.3632 107.489C50.9344 108.313 49.7773 107.645 49.7773 105.998C49.7773 104.351 50.9344 102.348 52.3632 101.524C53.7884 100.701 54.9454 101.368 54.9454 103.015Z" fill="#D4D4D4"/>
<path d="M49.9316 106.15C49.9316 104.503 51.0886 102.5 52.5175 101.677C53.3256 101.21 54.0455 101.223 54.5193 101.622C54.0602 101.078 53.2631 101.002 52.3632 101.523C50.9344 102.347 49.7773 104.349 49.7773 105.997C49.7773 106.71 49.9977 107.238 50.3577 107.543C50.0896 107.227 49.9316 106.755 49.9316 106.15Z" fill="#BDBDBD"/>
<path d="M47.4477 108.485L47.4845 108.607L43.1245 106.091L43.0877 105.969L43.0547 105.852L47.4147 108.367C47.4257 108.408 47.4367 108.447 47.4477 108.485Z" fill="#0C0C0C"/>
<path d="M47.2751 106.625L47.2714 106.719L42.9004 104.199L42.904 104.101L42.9114 104.007L47.2824 106.528L47.2751 106.625Z" fill="#0C0C0C"/>
<path d="M47.543 105.017L47.521 105.102L43.1426 102.577L43.1683 102.491V102.489L43.1904 102.404L47.565 104.93L47.543 105.017Z" fill="#0C0C0C"/>
<path d="M48.0538 103.542V103.543L48.0171 103.625L43.6387 101.096L43.6717 101.014L43.6754 101.011L43.7085 100.934L48.0869 103.464L48.0538 103.542Z" fill="#0C0C0C"/>
<path d="M48.7004 102.258L44.3184 99.7278L44.4065 99.5775L48.7886 102.108L48.7004 102.258Z" fill="#0C0C0C"/>
<path d="M49.6068 100.916L49.6582 100.85L45.2762 98.3174L45.2211 98.3876V98.3887L45.166 98.4578L49.5517 100.986L49.6068 100.916Z" fill="#0C0C0C"/>
<path d="M50.6608 99.7625V99.7618L50.7306 99.6964L46.3412 97.1667L46.2714 97.228L46.209 97.2879L50.5947 99.8242L50.6608 99.7625Z" fill="#0C0C0C"/>
<path d="M52.0564 98.7049L51.9719 98.7537V98.7548L51.8874 98.8066L47.498 96.2692L47.5789 96.2193L47.6633 96.1682L52.0564 98.7049Z" fill="#0C0C0C"/>
<path d="M53.9636 98.0365L53.813 98.0545C53.7652 98.0608 53.7211 98.0677 53.6734 98.0762L49.2656 95.5318L49.4015 95.509C49.4493 95.5021 49.4971 95.4958 49.5448 95.4907L53.9636 98.0365Z" fill="#0C0C0C"/>
<path d="M52.7443 102.169C52.7443 102.413 52.5716 102.71 52.3622 102.833C52.1492 102.954 51.9766 102.856 51.9766 102.611C51.9766 102.367 52.1492 102.07 52.3622 101.947C52.5716 101.825 52.7443 101.924 52.7443 102.169Z" fill="#9E9E9E"/>
<path d="M52.9837 104.235C52.9837 104.63 52.7045 105.112 52.3629 105.31C52.0177 105.508 51.7422 105.347 51.7422 104.952C51.7422 104.556 52.0177 104.074 52.3629 103.876C52.7045 103.678 52.9837 103.839 52.9837 104.235Z" fill="#9E9E9E"/>
<path d="M50.967 103.871C51.1507 103.887 51.2132 104.122 51.1067 104.395C51.0001 104.667 50.765 104.875 50.5814 104.858C50.4014 104.842 50.3353 104.608 50.4418 104.335C50.5483 104.062 50.7834 103.855 50.967 103.871Z" fill="#9E9E9E"/>
<path d="M50.5814 106.207C50.765 105.979 51.0001 105.916 51.1067 106.067C51.2132 106.218 51.1507 106.524 50.967 106.752C50.7834 106.98 50.5483 107.043 50.4418 106.893C50.3353 106.742 50.4014 106.435 50.5814 106.207Z" fill="#9E9E9E"/>
<path d="M51.9766 106.844C51.9766 106.599 52.1492 106.302 52.3622 106.18C52.5716 106.058 52.7443 106.157 52.7443 106.401C52.7443 106.646 52.5716 106.943 52.3622 107.065C52.1492 107.187 51.9766 107.088 51.9766 106.844Z" fill="#9E9E9E"/>
<path d="M53.7552 105.142C53.5752 105.125 53.5091 104.891 53.6156 104.618C53.7221 104.346 53.9572 104.138 54.1409 104.154C54.3245 104.17 54.387 104.405 54.2804 104.677C54.1739 104.95 53.9389 105.158 53.7552 105.142Z" fill="#9E9E9E"/>
<path d="M54.1409 102.805C53.9572 103.033 53.7221 103.096 53.6156 102.945C53.5091 102.795 53.5752 102.488 53.7552 102.26C53.9389 102.032 54.1739 101.969 54.2804 102.12C54.387 102.27 54.3245 102.577 54.1409 102.805Z" fill="#9E9E9E"/>
<path d="M92.8945 78.305C92.8945 82.2485 90.125 87.0459 86.709 89.0184C83.293 90.9909 80.5234 89.392 80.5234 85.4467C80.5234 81.5017 83.293 76.7035 86.709 74.731C90.125 72.7586 92.8945 74.3564 92.8945 78.305Z" fill="#232323"/>
<path d="M81.2434 85.4453C81.2434 81.5004 84.0129 76.7022 87.4289 74.7297C88.2737 74.2412 89.0818 73.973 89.8165 73.9032C88.9018 73.8151 87.8403 74.0759 86.709 74.7297C83.293 76.7022 80.5234 81.5004 80.5234 85.4453C80.5234 88.4129 82.0882 90.0525 84.3215 89.8435C82.4812 89.6679 81.2434 88.0815 81.2434 85.4453Z" fill="#292929"/>
<path d="M90.8933 74.1972C90.3167 73.918 89.6445 73.8225 88.9025 73.9291C88.8438 73.9364 88.785 73.9438 88.7262 73.9548C88.0944 74.0687 87.4149 74.3221 86.7097 74.7298C86.6546 74.7592 86.6031 74.7923 86.548 74.8253C86.5113 74.8474 86.4783 74.8694 86.4415 74.8914C85.8979 75.233 85.369 75.6444 84.8694 76.1109V76.1146L84.7886 76.1917C84.3405 76.6178 83.9181 77.0843 83.5251 77.5875L83.4553 77.6757C83.0916 78.1495 82.75 78.649 82.4415 79.1669L82.4268 79.1927C82.4047 79.2294 82.3827 79.2661 82.3607 79.3028C82.0705 79.8024 81.806 80.3203 81.5783 80.8481L81.5342 80.9477V80.9499C81.2844 81.5339 81.0751 82.1282 80.9135 82.7211L80.8841 82.832C80.7114 83.4825 80.5976 84.1319 80.5498 84.7659L80.5425 84.8889C80.5278 85.0763 80.5241 85.2614 80.5241 85.445C80.5241 86.0625 80.5902 86.6223 80.7188 87.1189C80.7298 87.1707 80.7445 87.2206 80.7592 87.2706C80.8143 87.4579 80.8767 87.6354 80.9465 87.8036C81.222 88.4519 81.6187 88.9584 82.1109 89.3066L77.053 86.3395C76.8289 86.2432 76.6196 86.1213 76.4286 85.9729L76.4139 85.9648L76.4176 85.9637C75.8923 85.5593 75.4882 84.9675 75.2348 84.2083L75.1834 84.0511C75.0218 83.5068 74.9336 82.8816 74.9336 82.1833C74.9336 82.0514 74.9373 81.9196 74.9446 81.7855L74.9483 81.6603C74.9887 81.023 75.0916 80.3681 75.2569 79.7106L75.2862 79.6004C75.4405 79.0053 75.6425 78.4066 75.8886 77.8189L75.9327 77.716L75.9364 77.7087C76.1715 77.1504 76.4506 76.5994 76.7591 76.0668L76.851 75.9052L76.8693 75.8758C77.1889 75.3469 77.5379 74.8363 77.9125 74.3551L77.986 74.2633C78.3827 73.7601 78.8088 73.2936 79.2606 72.8712L79.345 72.7941C79.8483 72.3276 80.3809 71.9162 80.9318 71.5819C80.9649 71.5599 81.0016 71.5379 81.0383 71.5158L81.1192 71.4681C81.8722 71.0346 82.5921 70.7738 83.2606 70.671C83.323 70.6636 83.3818 70.6563 83.4442 70.649C84.2376 70.5608 84.9502 70.7077 85.5416 71.064L90.8933 74.1972Z" fill="#333333"/>
<path d="M91.3053 74.4395L91.3008 74.4349L91.3053 74.4395Z" fill="#333333"/>
<path d="M89.082 76.3513C88.4539 76.3513 87.778 76.5607 87.0727 76.9684C84.575 78.4082 82.5438 81.9286 82.5438 84.8123C82.5438 86.7848 83.4878 88.0101 85.0085 88.0101C85.6366 88.0101 86.3087 87.8034 87.0177 87.3953C89.5154 85.9532 91.5467 82.4344 91.5467 79.5506C91.5467 77.5781 90.6026 76.3513 89.082 76.3513ZM85.0085 88.1211C83.4217 88.1211 82.4336 86.8531 82.4336 84.8123C82.4336 81.8933 84.4905 78.3311 87.0177 76.8729C87.7413 76.4541 88.4355 76.2411 89.082 76.2411C90.6688 76.2411 91.6568 77.5083 91.6568 79.5506C91.6568 82.4696 89.5999 86.0318 87.0727 87.4911C86.3491 87.9091 85.655 88.1211 85.0085 88.1211Z" fill="#9E9E9E"/>
<path d="M90.3501 80.274C90.3501 82.3809 88.8699 84.9426 87.0443 85.9961C85.2224 87.0495 83.7422 86.1955 83.7422 84.0886C83.7422 81.982 85.2224 79.4182 87.0443 78.3677C88.8699 77.3135 90.3501 78.1657 90.3501 80.274Z" fill="#D4D4D4"/>
<path d="M83.9405 84.2853C83.9405 82.1788 85.4171 79.6164 87.2427 78.5622C88.2785 77.9671 89.2004 77.9818 89.8065 78.4924C89.2151 77.7982 88.2013 77.699 87.0443 78.3675C85.2224 79.418 83.7422 81.9819 83.7422 84.0884C83.7422 85.0004 84.0213 85.6771 84.4805 86.0664C84.1389 85.6631 83.9405 85.0592 83.9405 84.2853Z" fill="#BDBDBD"/>
<path d="M80.7608 87.272L80.8085 87.4277L75.2364 84.2097L75.185 84.0525L75.1445 83.9037L80.7203 87.1203C80.7314 87.1721 80.7461 87.222 80.7608 87.272Z" fill="#0C0C0C"/>
<path d="M80.5431 84.8896L80.5358 85.0098L74.9453 81.7862L74.949 81.661L74.96 81.5412L80.5505 84.7666L80.5431 84.8896Z" fill="#0C0C0C"/>
<path d="M80.8831 82.8327L80.8537 82.9414L75.2559 79.7113L75.2852 79.6011L75.3146 79.4909L80.9125 82.7218L80.8831 82.8327Z" fill="#0C0C0C"/>
<path d="M81.5343 80.9482V80.9503L81.4902 81.0547L75.8887 77.8194L75.9328 77.7165L75.9365 77.7092L75.9768 77.6137L81.5784 80.8486L81.5343 80.9482Z" fill="#0C0C0C"/>
<path d="M82.363 79.3027L76.7578 76.0667L76.868 75.8757L82.4732 79.1117L82.363 79.3027Z" fill="#0C0C0C"/>
<path d="M83.5241 77.5876L83.5902 77.5031L77.9851 74.2634L77.9116 74.3553L77.8418 74.4434L83.4543 77.6758L83.5241 77.5876Z" fill="#0C0C0C"/>
<path d="M84.8693 76.1162V76.1126L84.9612 76.0318L79.345 72.7957L79.2605 72.8729L79.1797 72.95L84.7886 76.1934L84.8693 76.1162Z" fill="#0C0C0C"/>
<path d="M86.6571 74.7603L86.5469 74.8228V74.8265C86.5102 74.8485 86.4772 74.8705 86.4404 74.8926L80.8242 71.6455L80.9308 71.5831C80.9638 71.561 81.0005 71.539 81.0373 71.517L86.6571 74.7603Z" fill="#0C0C0C"/>
<path d="M89.0972 73.9036L88.9025 73.9294C88.8437 73.9367 88.7849 73.9441 88.7261 73.9551L83.0879 70.7007L83.2605 70.6713C83.323 70.6639 83.3817 70.6566 83.4442 70.6493L89.0972 73.9036Z" fill="#0C0C0C"/>
<path d="M87.5354 79.1892C87.5354 79.5051 87.315 79.8835 87.0432 80.0414C86.7751 80.1957 86.5547 80.0708 86.5547 79.7586C86.5547 79.4427 86.7751 79.0643 87.0432 78.91C87.315 78.7521 87.5354 78.877 87.5354 79.1892Z" fill="#9E9E9E"/>
<path d="M87.8405 81.8347C87.8405 82.3412 87.4842 82.9568 87.0434 83.2099C86.6063 83.463 86.25 83.2581 86.25 82.7515C86.25 82.2454 86.6063 81.6297 87.0434 81.3763C87.4842 81.1232 87.8405 81.3286 87.8405 81.8347Z" fill="#9E9E9E"/>
<path d="M85.2616 81.3685C85.493 81.3894 85.5738 81.6891 85.4379 82.0377C85.3057 82.3867 85.0045 82.6526 84.7694 82.6317C84.5343 82.6107 84.4535 82.311 84.5894 81.9621C84.7253 81.6131 85.0265 81.3475 85.2616 81.3685Z" fill="#9E9E9E"/>
<path d="M84.7694 84.3563C85.0045 84.0647 85.3057 83.9846 85.4379 84.1771C85.5738 84.3695 85.493 84.7622 85.2616 85.0538C85.0265 85.3455 84.7253 85.4256 84.5894 85.2331C84.4535 85.0406 84.5343 84.648 84.7694 84.3563Z" fill="#9E9E9E"/>
<path d="M86.5547 85.1695C86.5547 84.8569 86.7751 84.4771 87.0432 84.3206C87.315 84.1645 87.5354 84.2913 87.5354 84.6038C87.5354 84.9161 87.315 85.2962 87.0432 85.4527C86.7751 85.6088 86.5547 85.4821 86.5547 85.1695Z" fill="#9E9E9E"/>
<path d="M88.8283 82.993C88.5933 82.972 88.5161 82.6723 88.6483 82.3234C88.7842 81.9744 89.0854 81.7089 89.3205 81.7298C89.5556 81.7507 89.6327 82.0505 89.5005 82.399C89.3646 82.748 89.0634 83.0139 88.8283 82.993Z" fill="#9E9E9E"/>
<path d="M89.3205 80.0055C89.0854 80.2957 88.7842 80.3765 88.6483 80.1855C88.5161 79.9908 88.5933 79.5978 88.8283 79.3076C89.0634 79.0175 89.3646 78.9366 89.5005 79.1277C89.6327 79.3187 89.5556 79.7117 89.3205 80.0055Z" fill="#9E9E9E"/>
<path d="M57.1037 100.834C56.5968 97.9825 54.2129 96.979 51.3442 98.6349C50.5876 99.0723 49.8639 99.6578 49.1991 100.344C48.8538 98.4225 48.582 90.972 48.582 87.1563C48.582 80.6156 50.6059 77.4861 50.6059 77.4861L53.0265 76.0866L61.7979 80.6009L91.0324 63.7228V73.5044C89.7431 73.0967 88.1233 73.3465 86.3675 74.3603C82.1434 76.7992 78.7201 82.728 78.7201 87.6044C78.7201 87.8568 78.7311 88.0996 78.7494 88.3362L57.1037 100.834Z" fill="#FCE15D"/>
<path d="M66.4747 83.5488L91.0333 69.3668V63.7212L61.7988 80.603L66.4747 83.5488Z" fill="#1E1E1E"/>
<path d="M24.9277 73.4601C24.9277 77.2765 25.2003 84.7264 25.5455 86.6478L49.2001 100.344C48.8549 98.4223 48.5831 90.9718 48.5831 87.1561C48.5831 80.6154 50.6069 77.4859 50.6069 77.4859L26.9542 63.7888C26.9542 63.7888 24.9277 66.9183 24.9277 73.4601Z" fill="#FFEC91"/>
<path d="M26.9531 63.7892L50.6059 77.4863L53.0265 76.0869L29.373 62.3935L26.9531 63.7892Z" fill="#FADD52"/>
<path d="M29.373 62.3919L53.0265 76.0854L61.798 80.5996L38.143 66.9025L29.373 62.3919Z" fill="#FCE15D"/>
<path d="M91.0339 63.7216L67.379 50.0245L38.1445 66.9025L61.7995 80.5996L91.0339 63.7216Z" fill="#2B2B2B"/>
<path d="M55.7403 56.1007L37.1543 66.8299L50.4915 74.6133L69.0775 63.8804L55.7403 56.1007Z" fill="#FFE359"/>
<path d="M55.3738 77.1074L50.4922 74.5987L69.0782 63.8694V69.1955L55.3738 77.1074Z" fill="#E3C94A"/>
<path d="M46.6466 57.5153C48.9496 56.4648 50.7825 57.5227 51.025 60.0461L46.6466 62.5732V57.5153ZM46.125 56.2444V57.7871V62.8781V63.4805L46.6466 63.1756L51.0543 60.6338L52.3877 59.8624C52.3877 59.6751 52.3804 59.4914 52.3657 59.3151V59.2711V59.2747C52.1122 55.9028 49.6879 54.5033 46.6466 55.9726V55.9689L46.6062 55.9909C46.4483 56.0681 46.2866 56.1526 46.125 56.2444Z" fill="#2D2D2D"/>
<path d="M46.1261 61.8974V56.2444C46.2877 56.1526 46.4493 56.0681 46.6073 55.9909L46.6477 55.9689V55.9726C46.7395 55.9248 46.835 55.8844 46.9268 55.844C46.9635 55.8293 46.9966 55.8147 47.0333 55.8C47.0884 55.7779 47.1472 55.7522 47.2023 55.7338C47.2464 55.7155 47.2905 55.7008 47.3382 55.6861C47.3823 55.6714 47.4264 55.653 47.4705 55.6383C47.5219 55.62 47.5733 55.6053 47.6247 55.5906C47.6614 55.5796 47.6982 55.5686 47.7349 55.5612C47.7937 55.5428 47.8488 55.5318 47.9039 55.5171L47.9957 55.4951C48.0582 55.484 48.1169 55.4731 48.1757 55.462L48.2528 55.4473C48.3153 55.44 48.3777 55.4326 48.4401 55.4216L48.4989 55.4143C48.5651 55.4069 48.6311 55.4033 48.6973 55.3996L48.745 55.3959C48.8111 55.3959 48.8809 55.3959 48.947 55.3959H48.9801C49.0499 55.3959 49.1197 55.3996 49.1895 55.4032L49.2115 55.4069C49.285 55.4106 49.3548 55.4179 49.4209 55.429H49.4392C49.509 55.44 49.5788 55.4547 49.6486 55.4694H49.656C49.7294 55.4841 49.7955 55.5024 49.8653 55.5208L49.869 55.5245C49.9388 55.5428 50.0086 55.5649 50.0747 55.5906C50.2106 55.6383 50.3428 55.6971 50.4677 55.7632H50.4714L49.9167 55.451C49.7735 55.3482 49.6192 55.2637 49.4576 55.1902L49.4429 55.1792L49.4392 55.1829C48.4548 54.7421 47.195 54.8082 45.8028 55.4804L45.7661 55.4988C45.6045 55.5759 45.4465 55.6604 45.2812 55.7559V57.2949V62.3859V62.9883L46.1261 63.4805V62.8781V61.8974Z" fill="#474747"/>
<path d="M51.0249 60.0452C50.9294 59.024 50.5694 58.2453 50.0258 57.7458C49.7466 57.5144 49.4527 57.3381 49.1736 57.2462C49.7209 57.7421 50.0845 58.5281 50.1837 59.5529L46.6465 61.5952V62.5723L51.0249 60.0452Z" fill="#3D3D3D"/>
<path d="M57.0038 68.375L62.8808 64.981C64.9892 63.7616 64.9892 61.7891 62.8808 60.5733L58.8183 58.2298C56.7136 57.0103 53.2939 57.0103 51.1892 58.2298L45.7383 61.374V61.8699L57.0038 68.375Z" fill="#5B5B5B"/>
<path d="M51.1895 58.2305C51.318 58.1533 51.4576 58.0799 51.5972 58.0138C51.4576 58.0799 51.3217 58.1533 51.1895 58.2305ZM51.6082 58.0101C51.6155 58.0064 51.6192 58.0064 51.6229 58.0028C51.6192 58.0064 51.6155 58.0064 51.6082 58.0101Z" fill="#282828"/>
<path d="M57.0038 68.375L46.7998 62.4833L46.6456 62.3915L46.124 62.0903L45.7383 61.8699V61.374L51.1892 58.2298C51.3215 58.1527 51.4573 58.0792 51.5969 58.0131C51.6006 58.0131 51.6043 58.0094 51.6079 58.0094C51.6153 58.0057 51.619 58.0058 51.6226 58.0021C52.607 57.5466 53.8008 57.3152 54.9983 57.3152C56.0855 57.3152 57.1727 57.5062 58.0984 57.8809C60.2288 60.1141 61.7642 62.6119 62.5833 65.1537L57.0038 68.375Z" fill="#525252"/>
<path d="M55.8798 68.9629V60.6102C55.8798 58.5018 54.3959 55.9343 52.5703 54.8801L49.0478 52.8452C47.2186 51.791 45.7383 52.6469 45.7383 54.7552V63.1079L55.8798 68.9629Z" fill="#474747"/>
<path d="M53.6966 54.2851L50.1741 52.2538C49.3439 51.7727 48.5873 51.6882 48.0033 51.9343L47.9922 51.9416C47.9224 51.971 47.8563 52.0077 47.7902 52.0481L46.7617 52.5881C47.3568 52.2722 48.1612 52.3346 49.0501 52.8452L52.5726 54.8801C54.3982 55.9343 55.8821 58.5018 55.8821 60.6102V68.9629L57.0061 68.3678V60.0188C57.0061 57.9068 55.5222 55.3429 53.6966 54.2851Z" fill="#2D2D2D"/>
<path d="M64.4608 62.8441C64.4314 63.6191 63.9062 64.3905 62.8814 64.9818L55.8804 68.9635L55.873 69.8965L62.8814 65.9074C63.8621 65.3418 64.3873 64.6145 64.4535 63.8726L64.4608 63.8615V63.7477V63.6632V62.8441Z" fill="#2D2D2D"/>
<path d="M45.7383 63.1085L55.8798 68.9635V69.8965L45.7383 64.0452V63.1085Z" fill="#474747"/>
<path d="M57.7208 63.7475C60.0275 62.697 61.8568 63.7549 62.0992 66.2783L57.7208 68.8054V63.7475ZM57.1992 62.4766V69.709L57.7208 69.4078L62.1286 66.8623L63.4619 66.0946C63.4619 65.9073 63.4546 65.7236 63.4435 65.5473L63.4399 65.5032C63.1864 62.135 60.7622 60.7355 57.7208 62.2011L57.6841 62.2232C57.5225 62.3003 57.3608 62.3848 57.1992 62.4766Z" fill="#2D2D2D"/>
<path d="M57.1985 68.1295V62.4766C57.3602 62.3848 57.5218 62.3003 57.6834 62.2232L57.7201 62.2011C57.812 62.157 57.9075 62.1166 57.9993 62.0762C58.036 62.0615 58.0727 62.0468 58.1095 62.0321C58.1646 62.0101 58.2197 61.9844 58.2748 61.966C58.3188 61.9477 58.3666 61.933 58.4107 61.9146C58.4548 61.8999 58.4989 61.8852 58.5429 61.8705C58.598 61.8522 58.6494 61.8375 58.7009 61.8228C58.7376 61.8118 58.7743 61.8007 58.8111 61.7897C58.8662 61.775 58.9212 61.764 58.98 61.7493L59.0682 61.7273C59.1306 61.7163 59.1894 61.7053 59.2481 61.6942L59.3253 61.6795C59.3877 61.6685 59.4502 61.6612 59.5126 61.6538L59.5751 61.6465C59.6412 61.6391 59.7036 61.6355 59.7697 61.6318L59.8175 61.6281C59.8873 61.6281 59.9534 61.6244 60.0195 61.6244H60.0562C60.126 61.6281 60.1922 61.6318 60.262 61.6355H60.2877C60.3575 61.6428 60.4272 61.6502 60.497 61.6612H60.5117C60.5815 61.6722 60.6513 61.6832 60.7211 61.6979L60.7321 61.7016C60.8019 61.7163 60.8717 61.7346 60.9378 61.753H60.9415C61.0113 61.775 61.081 61.7971 61.1472 61.8228H61.1509C61.2868 61.8706 61.4153 61.9293 61.5439 61.9954L60.9929 61.6832C60.846 61.5803 60.6917 61.4922 60.5301 61.4188L60.5154 61.4114H60.5117C59.5273 60.9706 58.2674 61.0404 56.879 61.7126V61.7089L56.8386 61.731C56.6806 61.8081 56.519 61.8926 56.3574 61.9881V63.5271V68.6181V69.2205L57.1985 69.709V69.1066V68.1295Z" fill="#474747"/>
<path d="M62.0991 66.2795C62.0036 65.2584 61.6436 64.4797 61.1 63.9801C60.8208 63.7487 60.5306 63.5724 60.2478 63.4806C60.7988 63.9765 61.1587 64.7625 61.2579 65.7873L57.7207 67.8296V68.8066L62.0991 66.2795Z" fill="#3D3D3D"/>
<path d="M91.0325 53.7649C91.0325 53.0229 90.5072 52.718 89.8644 53.089L85.0233 55.8843C84.3805 56.2552 83.8516 57.1662 83.8516 57.9118V67.8477L91.0325 63.7043V53.7649Z" fill="#1E1E1E"/>
<path d="M90.7194 53.0332L90.723 53.0296L90.7051 53.0189L90.7194 53.0332Z" fill="url(#paint1_linear_2037_20789)"/>
<path d="M83.8508 67.8477L60.2472 54.2387L60.2031 54.2644V44.3249C60.2031 43.5829 60.7321 42.6683 61.3749 42.2973L65.7239 39.7886C65.7018 40.2845 65.6724 40.7914 65.6283 41.3056L67.4539 40.2514C67.6376 40.1412 67.8139 40.0935 67.9681 40.0935C67.9902 40.0935 68.0122 40.0935 68.0306 40.0972C68.0343 40.0641 68.0343 40.031 68.0379 39.998L68.3024 40.1486L69.1803 40.6518L70.6936 41.5223L71.5972 42.0402L74.7744 43.8694L83.9793 49.1551L87.2741 51.0504L90.6717 53.0009C90.5836 52.9568 90.4881 52.9311 90.3816 52.9311C90.264 52.9311 90.1318 52.9604 89.9959 53.0229C89.9518 53.0412 89.9077 53.0633 89.8637 53.089L87.2741 54.584L85.0225 55.8843C84.567 56.1451 84.174 56.6777 83.9793 57.225C83.8985 57.4564 83.8508 57.6915 83.8508 57.9118V59.5647V67.8477ZM71.0242 46.9402C70.1096 46.9402 69.3088 47.6271 68.8974 48.9347C68.1995 51.1716 68.9195 54.3856 70.5099 56.112C71.1711 56.8283 71.8763 57.1772 72.5265 57.1772C73.4411 57.1772 74.2455 56.4903 74.6532 55.1827C75.3548 52.9421 74.6312 49.7281 73.0444 48.0054C72.3832 47.2855 71.6743 46.9402 71.0242 46.9402ZM72.3392 55.8843C71.8874 55.8843 71.4025 55.6639 70.9397 55.2047L71.8543 52.2809L74.128 52.9568C74.128 53.4637 74.0655 53.9559 73.9296 54.393C73.6211 55.3737 73.0224 55.8843 72.3392 55.8843ZM70.723 54.9623C69.61 53.6473 69.1178 51.3443 69.6247 49.7208C69.7606 49.2837 69.959 48.9384 70.1977 48.6886L71.6339 52.0421L70.723 54.9623ZM74.1133 52.5711L71.8286 51.8916L70.385 48.5233C70.6348 48.3286 70.9177 48.2331 71.2152 48.2331C71.7037 48.2331 72.229 48.4902 72.7248 49.0265C73.5219 49.8934 74.0251 51.2598 74.1133 52.5711Z" fill="url(#paint2_linear_2037_20789)"/>
<path d="M72.5283 57.1758C71.8782 57.1758 71.1729 56.8268 70.5118 56.1106C68.9213 54.3842 68.2014 51.1702 68.8993 48.9333C69.3106 47.6256 70.1114 46.9388 71.026 46.9388C71.6762 46.9388 72.3851 47.284 73.0462 48.004C74.633 49.7267 75.3566 52.9406 74.6551 55.1812C74.2473 56.4889 73.4429 57.1758 72.5283 57.1758ZM71.8561 52.2795L70.9415 55.2033C71.4044 55.6624 71.8892 55.8828 72.341 55.8828C73.0242 55.8828 73.6229 55.3722 73.9314 54.3915C74.0673 53.9544 74.1298 53.4622 74.1298 52.9553L71.8561 52.2795ZM70.1996 48.6872C69.9608 48.9369 69.7624 49.2822 69.6265 49.7193C69.1196 51.3428 69.6118 53.6459 70.7248 54.9609L71.6357 52.0407L70.1996 48.6872ZM71.217 48.2317C70.9195 48.2317 70.6366 48.3272 70.3869 48.5219L71.8304 51.8901L74.1151 52.5697C74.0269 51.2584 73.5237 49.8919 72.7267 49.0251C72.2308 48.4888 71.7055 48.2317 71.217 48.2317Z" fill="url(#paint3_linear_2037_20789)"/>
<path d="M72.1469 51.4319C72.1248 51.3878 72.0881 51.3547 72.044 51.3327C72.0147 51.307 71.9779 51.296 71.9375 51.2997L66.4278 51.9425C66.3764 51.9498 66.3323 51.9829 66.314 52.0269L66.1633 52.3759C66.145 52.4236 66.1486 52.475 66.1817 52.5191C66.2074 52.5559 66.2515 52.5742 66.2956 52.5742H66.3103L71.82 51.9314L71.8861 51.9057C72.0036 51.8543 72.1028 51.7588 72.1469 51.6559C72.1836 51.5788 72.1799 51.498 72.1469 51.4319Z" fill="url(#paint4_linear_2037_20789)"/>
<path d="M54.4193 19.4025H54.287L46.702 23.7809L30.2864 33.2576V33.2319L28.2754 34.3926V64.582L30.2864 63.4213V35.579L52.917 22.5137C61.3211 22.2676 66.6361 29.5514 65.6297 41.3054L67.4552 40.2512C67.6646 40.13 67.8629 40.0786 68.0319 40.097C69.0861 27.3696 63.4258 19.4062 54.4193 19.4025Z" fill="#3D3D3D"/>
<path d="M58.2461 23.5048C62.4261 26.3882 64.6851 32.3277 63.9982 40.3534L65.6181 41.2754C66.3894 32.2652 63.4509 25.885 58.2461 23.5048Z" fill="#1E1E1E"/>
<path d="M26.6523 63.6601L28.2748 64.582V34.3926L26.6523 33.4706V63.6601Z" fill="#1E1E1E"/>
<path d="M52.7955 18.4806H52.6669L45.0819 22.8589L28.6634 32.3356V32.3099L26.6523 33.4706L28.2751 34.3926L30.2862 33.2319V33.2576L46.7018 23.7809L54.2868 19.4025H54.419C56.4466 19.4025 58.3052 19.8103 59.9581 20.5816C57.9379 19.2115 55.521 18.4806 52.7955 18.4806Z" fill="#575757"/>
<path d="M54.2546 19.3425L75.0592 31.3793L49.0644 46.373L28.2422 34.384L54.2546 19.3425Z" fill="#575757"/>
<path d="M76.7667 32.3029H76.6381L69.0531 36.6813L52.6342 46.1616V46.1359L50.625 47.2966V77.4824L52.6342 76.3217V48.4831L75.268 35.4177C83.6722 35.168 88.9835 42.4518 87.9771 54.2058L89.8026 53.1516C90.0157 53.0304 90.2103 52.9826 90.3793 52.9973C91.4335 40.2699 85.7769 32.3103 76.7667 32.3029Z" fill="#3D3D3D"/>
<path d="M80.5977 36.4091C84.774 39.2925 87.033 45.2319 86.3461 53.2541L87.9696 54.1797C88.741 45.1695 85.7988 38.7856 80.5977 36.4091Z" fill="#1E1E1E"/>
<path d="M49.002 76.5604L50.6255 77.4824V47.2966L49.002 46.3747V76.5604Z" fill="#1E1E1E"/>
<path d="M75.1473 31.3812H75.0151L67.4301 35.7596L51.0149 45.2399V45.2105L49.002 46.3749L50.6255 47.2969L52.6347 46.1361V46.1619L69.0536 36.6815L76.6386 32.3032H76.7672C78.7984 32.3032 80.657 32.7109 82.3062 33.4859C80.2897 32.1158 77.8728 31.3848 75.1473 31.3812Z" fill="#575757"/>
<path d="M68.7402 52.6954L66.4224 52.0048L64.9568 48.5851L64.7695 48.7541L66.2277 52.1554L65.2948 55.1343L65.5152 55.373L66.4481 52.3942L68.7549 53.081L68.7402 52.6954Z" fill="#242424"/>
<path d="M65.4231 55.2014C64.233 53.9122 63.6931 51.5099 64.2184 49.835C64.7399 48.1601 66.1284 47.8478 67.3148 49.1408C68.5049 50.43 69.0448 52.8323 68.5196 54.5072C67.998 56.1822 66.6096 56.4944 65.4231 55.2014ZM67.6344 48.116C66.0476 46.3933 64.1926 46.8083 63.4911 49.0489C62.7932 51.2859 63.5131 54.4999 65.1036 56.2262C66.6904 57.9489 68.5453 57.5339 69.2469 55.297C69.9447 53.0563 69.2248 49.8424 67.6344 48.116Z" fill="url(#paint5_radial_2037_20789)"/>
<path d="M51.0571 21.1914C51.0387 21.0151 51.1269 20.8755 51.2922 20.78C51.384 20.7286 51.4979 20.6625 51.5934 20.6147C51.766 20.5339 51.9937 20.4274 52.1774 20.3576C52.2619 20.3245 52.3794 20.2805 52.4712 20.2548C52.5851 20.2217 52.7284 20.1813 52.8569 20.1519L51.0571 21.1914Z" fill="#464646"/>
<path d="M53.6776 22.668C53.538 22.668 53.3911 22.6569 53.2294 22.6312C52.2928 22.4806 51.3414 21.9187 51.11 21.3824C51.0806 21.3163 51.0623 21.2501 51.0586 21.1914L52.8584 20.1519C52.8952 20.1409 52.9319 20.1335 52.9686 20.1225C53.0017 20.1151 53.5416 19.847 53.942 19.8323C53.9824 19.8286 54.0228 19.8286 54.0632 19.8286C54.3314 19.8286 54.5297 19.8617 54.5995 19.8727C54.7538 19.8984 54.7758 19.9021 54.9081 19.9388C54.9705 19.9572 55.0697 19.9902 55.1358 20.016C55.3525 20.1078 55.4737 20.1959 55.5545 20.2657C55.628 20.3245 55.7272 20.431 55.7933 20.5779C55.83 20.6514 55.841 20.7212 55.8447 20.7396C55.8557 20.7947 55.8557 20.8718 55.8557 20.9269C55.8557 20.971 55.841 21.0297 55.83 21.0738C55.8116 21.1326 55.7859 21.2097 55.7529 21.2648C55.7051 21.3493 55.628 21.4595 55.5655 21.544C55.5288 21.588 55.47 21.6468 55.4296 21.6909C55.4259 21.6946 55.0697 22.0288 54.7979 22.2272C54.6656 22.3227 54.4636 22.4439 54.3167 22.5357C54.1624 22.6202 53.9457 22.668 53.6776 22.668Z" fill="#464646"/>
<path d="M71.4283 32.7988C71.2924 32.7988 71.1417 32.7878 70.9838 32.7621C70.0471 32.6115 69.0958 32.0495 68.8607 31.5132C68.7469 31.2488 68.824 31.0357 69.0481 30.9108C69.1362 30.8631 69.2538 30.7933 69.3493 30.7455C69.5182 30.6647 69.7496 30.5582 69.9333 30.4884C70.0178 30.4554 70.1353 30.4113 70.2271 30.3856C70.3741 30.3415 70.5687 30.2901 70.723 30.2534C70.7561 30.246 71.296 29.9779 71.6927 29.9632C71.7368 29.9595 71.7772 29.9595 71.8176 29.9595C72.0857 29.9595 72.2841 29.9925 72.3539 30.0036C72.5045 30.0293 72.5302 30.033 72.6588 30.0697C72.7249 30.0881 72.8241 30.1211 72.8865 30.1468C73.1032 30.2386 73.2244 30.3268 73.3052 30.3966C73.3787 30.4554 73.4816 30.5619 73.5477 30.7088C73.5807 30.7823 73.5954 30.8521 73.5991 30.8704C73.6101 30.9255 73.6101 31.0027 73.6064 31.0577C73.6064 31.1018 73.5954 31.1606 73.5807 31.2047C73.5623 31.2634 73.5366 31.3406 73.5072 31.3957C73.4595 31.4802 73.3824 31.5903 73.3199 31.6748C73.2832 31.7189 73.2244 31.7777 73.184 31.8218C73.1767 31.8254 72.824 32.1597 72.5522 32.3581C72.4163 32.4536 72.218 32.5747 72.0674 32.6666C71.9168 32.7511 71.7001 32.7988 71.4283 32.7988Z" fill="#464646"/>
<path d="M72.9955 30.962C72.9441 30.5249 72.8706 30.2824 72.8669 30.2714C72.8449 30.1869 72.8155 30.0767 72.7824 29.9959C72.7273 29.849 72.6465 29.658 72.5768 29.5184C72.529 29.4303 72.4519 29.3164 72.3931 29.2319C72.349 29.1694 72.2866 29.0887 72.2315 29.0336C72.1653 28.9638 72.0735 28.8719 71.9964 28.8095C71.9707 28.7874 71.8788 28.714 71.7613 28.6442C71.5336 28.512 71.3352 28.4569 71.2067 28.4349C71.0671 28.4091 70.8687 28.3834 70.6043 28.4275C70.5271 28.4422 70.417 28.4679 70.3508 28.4936C70.2113 28.5414 70.1892 28.5524 70.0496 28.6258C69.9762 28.6699 69.7521 28.7948 69.5317 29.0446C69.2672 29.3458 69.135 29.647 69.1204 29.68C69.0542 29.8306 68.9771 30.0327 68.9293 30.1906C68.8963 30.2898 68.8669 30.422 68.8449 30.5248C68.8045 30.7416 68.7714 31.0354 68.7493 31.2558C68.7383 31.3807 68.742 31.546 68.7383 31.6709C68.7347 31.9831 68.9367 32.299 69.3444 32.5414C70.1709 33.0336 71.5299 33.0483 72.3821 32.5708C72.8155 32.3284 73.0322 32.0051 73.0322 31.6819C73.0286 31.4652 73.0212 31.1787 72.9955 30.962Z" fill="url(#paint6_linear_2037_20789)"/>
<path d="M55.2123 20.7985C55.1645 20.3651 55.091 20.119 55.0873 20.108C55.0616 20.0235 55.0323 19.9133 55.0029 19.8325C54.9441 19.6856 54.8633 19.4946 54.7935 19.3587C54.7457 19.2668 54.6723 19.153 54.6135 19.0685C54.5695 19.0061 54.5033 18.9252 54.4519 18.8702C54.3821 18.8004 54.2903 18.7085 54.2168 18.6461C54.1911 18.6277 54.0956 18.5506 53.9781 18.4845C53.754 18.3522 53.552 18.2972 53.4234 18.2714C53.2838 18.2457 53.0892 18.22 52.8247 18.2641C52.7476 18.2788 52.6337 18.3082 52.5676 18.3302C52.4317 18.3779 52.4096 18.3926 52.2664 18.4661C52.1929 18.5065 51.9725 18.6351 51.7522 18.8849C51.484 19.1824 51.3518 19.4836 51.3371 19.5166C51.271 19.6672 51.1975 19.8729 51.1461 20.0272C51.113 20.1264 51.0836 20.2623 51.0653 20.3614C51.0212 20.5781 50.9882 20.872 50.9698 21.0924C50.9551 21.2173 50.9588 21.3826 50.9551 21.5075C50.9551 21.8233 51.1571 22.1356 51.5611 22.378C52.3876 22.8739 53.7503 22.8886 54.5988 22.4111C55.0323 22.165 55.249 21.8454 55.249 21.5185C55.2453 21.3054 55.238 21.0153 55.2123 20.7985Z" fill="url(#paint7_linear_2037_20789)"/>
<path d="M48.7115 93.2129L50.6583 92.0896V87.7362L48.5977 88.9256C48.616 90.2351 48.6564 91.7323 48.7115 93.2129Z" fill="#E05424"/>
<path d="M48.5974 88.9341L43.9766 86.2674V90.4801L48.7112 93.2129C48.6561 91.7359 48.6157 90.2417 48.5974 88.9341Z" fill="#FF3206"/>
<path d="M25.0557 79.5089L29.8061 82.252V78.0396L24.9414 75.2297C24.9616 76.5373 25.0009 78.0323 25.0557 79.5089Z" fill="#FF3206"/>
<path d="M49.002 49.4492L28.2422 37.4712V34.393L49.002 46.3748V49.4492Z" fill="#1E1E1E"/>
<defs>
<linearGradient id="paint0_linear_2037_20789" x1="39.4175" y1="96.1649" x2="38.7478" y2="97.3731" gradientUnits="userSpaceOnUse">
<stop stop-color="#616161"/>
<stop offset="0.0449084" stop-color="#616161"/>
<stop offset="1" stop-color="#303030"/>
</linearGradient>
<linearGradient id="paint1_linear_2037_20789" x1="90.7122" y1="53.0261" x2="90.7131" y2="53.0246" gradientUnits="userSpaceOnUse">
<stop stop-color="#3B3B3B"/>
<stop offset="0.496787" stop-color="#3B3B3B"/>
<stop offset="1" stop-color="#575757"/>
</linearGradient>
<linearGradient id="paint2_linear_2037_20789" x1="69.7422" y1="59.7704" x2="77.9052" y2="45.6318" gradientUnits="userSpaceOnUse">
<stop stop-color="#3B3B3B"/>
<stop offset="0.496787" stop-color="#3B3B3B"/>
<stop offset="1" stop-color="#575757"/>
</linearGradient>
<linearGradient id="paint3_linear_2037_20789" x1="69.7441" y1="59.769" x2="77.907" y2="45.6303" gradientUnits="userSpaceOnUse">
<stop stop-color="#353535"/>
<stop offset="0.496787" stop-color="#353535"/>
<stop offset="1" stop-color="#4E4E4E"/>
</linearGradient>
<linearGradient id="paint4_linear_2037_20789" x1="69.1055" y1="51.5678" x2="69.2083" y2="52.2994" gradientUnits="userSpaceOnUse">
<stop stop-color="#5C5C5C"/>
<stop offset="0.503213" stop-color="#212121"/>
<stop offset="1" stop-color="#212121"/>
</linearGradient>
<radialGradient id="paint5_radial_2037_20789" cx="0" cy="0" r="1" gradientUnits="userSpaceOnUse" gradientTransform="translate(66.3708 52.1711) rotate(47.3505) scale(4.24686 3.67822)">
<stop stop-color="#5C5C5C"/>
<stop offset="0.713974" stop-color="#5C5C5C"/>
<stop offset="1" stop-color="#212121"/>
</radialGradient>
<linearGradient id="paint6_linear_2037_20789" x1="68.7383" y1="30.6608" x2="73.0341" y2="30.6608" gradientUnits="userSpaceOnUse">
<stop stop-color="#FF8E22"/>
<stop offset="0.0106145" stop-color="#FF8E22"/>
<stop offset="0.146245" stop-color="#FFAA22"/>
<stop offset="0.570379" stop-color="#FFAA22"/>
<stop offset="1" stop-color="#FF7C22"/>
</linearGradient>
<linearGradient id="paint7_linear_2037_20789" x1="50.9551" y1="20.501" x2="55.2509" y2="20.501" gradientUnits="userSpaceOnUse">
<stop stop-color="#FF8E22"/>
<stop offset="0.0106145" stop-color="#FF8E22"/>
<stop offset="0.146245" stop-color="#FFAA22"/>
<stop offset="0.570379" stop-color="#FFAA22"/>
<stop offset="1" stop-color="#FF7C22"/>
</linearGradient>
</defs>
</svg>
