<svg width="158" height="139" viewBox="0 0 158 139" fill="none" xmlns="http://www.w3.org/2000/svg">
<ellipse cx="79" cy="94" rx="79" ry="45" fill="#E2E2E2"/>
<path d="M80.3379 128.644L152.184 87.1641V90.638L80.3379 132.115V128.644Z" fill="#FFDDB7"/>
<path d="M31.014 100.168L80.3379 128.644V132.115L31.014 103.639V100.168Z" fill="#E79C51"/>
<path d="M80.3382 128.633L152.182 87.1533L102.86 58.6796L31.0143 100.159L80.3382 128.633Z" fill="#F4B05B"/>
<path d="M102.708 67.9141L106.736 65.5869L104.722 64.4244L100.694 66.7516L102.708 67.9141Z" fill="white"/>
<path d="M97.7317 70.7891L101.76 68.4619L99.7457 67.2994L95.7154 69.6243L97.7317 70.7891Z" fill="white"/>
<path d="M92.7529 73.6621L96.7832 71.3349L94.7691 70.1724L90.7388 72.4996L92.7529 73.6621Z" fill="white"/>
<path d="M87.7766 76.5332L91.8047 74.2082L89.7906 73.0458L85.7625 75.373L87.7766 76.5332Z" fill="white"/>
<path d="M82.802 79.4082L86.8301 77.0832L84.816 75.9185L80.7857 78.2457L82.802 79.4082Z" fill="white"/>
<path d="M77.8212 82.2812L81.8516 79.9563L79.8375 78.7916L75.8072 81.121L77.8212 82.2812Z" fill="white"/>
<path d="M72.8469 85.1543L76.875 82.8271L74.8609 81.6669L70.8328 83.9918L72.8469 85.1543Z" fill="white"/>
<path d="M67.8703 88.0293L71.8984 85.7021L69.8844 84.5396L65.854 86.8646L67.8703 88.0293Z" fill="white"/>
<path d="M62.8915 90.9023L66.9219 88.5774L64.9078 87.4127L60.8775 89.7399L62.8915 90.9023Z" fill="white"/>
<path d="M57.913 93.7773L61.9434 91.4501L59.9271 90.2877L55.899 92.6126L57.913 93.7773Z" fill="white"/>
<path d="M52.9364 96.6484L56.9668 94.3235L54.9505 93.1587L50.9202 95.486L52.9364 96.6484Z" fill="white"/>
<path d="M47.9579 99.5215L51.9883 97.1965L49.9742 96.034L45.9439 98.3613L47.9579 99.5215Z" fill="white"/>
<path d="M42.9814 102.398L47.0117 100.071L44.9977 98.9088L40.9673 101.234L42.9814 102.398Z" fill="white"/>
<path d="M107.686 70.7891L111.717 68.4619L107.686 66.1347L103.658 68.4619L107.686 70.7891Z" fill="white"/>
<path d="M102.708 73.6621L106.736 71.3349L102.708 69.01L98.6801 71.3349L102.708 73.6621Z" fill="white"/>
<path d="M97.7317 76.5332L101.76 74.2082L97.7317 71.8811L93.7013 74.2082L97.7317 76.5332Z" fill="white"/>
<path d="M92.7529 79.4082L96.7832 77.0832L92.7529 74.7561L88.7248 77.0832L92.7529 79.4082Z" fill="white"/>
<path d="M87.7766 82.2812L91.8047 79.9563L87.7766 77.6314L83.7485 79.9563L87.7766 82.2812Z" fill="white"/>
<path d="M82.802 85.1543L86.8301 82.8271L82.802 80.5022L78.7716 82.8271L82.802 85.1543Z" fill="white"/>
<path d="M77.8212 88.0293L81.8516 85.7021L77.8212 83.3749L73.7931 85.7021L77.8212 88.0293Z" fill="white"/>
<path d="M72.8469 90.9023L76.875 88.5774L72.8469 86.2502L68.8188 88.5774L72.8469 90.9023Z" fill="white"/>
<path d="M67.8703 93.7773L71.8984 91.4501L67.8703 89.1229L63.84 91.4501L67.8703 93.7773Z" fill="white"/>
<path d="M62.8915 96.6484L66.9219 94.3235L62.8915 91.9986L58.8634 94.3235L62.8915 96.6484Z" fill="white"/>
<path d="M57.913 99.5215L61.9434 97.1965L57.913 94.8716L53.8849 97.1965L57.913 99.5215Z" fill="white"/>
<path d="M52.9367 102.398L56.9648 100.071L52.9367 97.7441L48.9064 100.071L52.9367 102.398Z" fill="white"/>
<path d="M47.9579 105.271L51.9883 102.944L47.9579 100.619L43.9298 102.944L47.9579 105.271Z" fill="white"/>
<path d="M112.663 73.6621L116.691 71.3349L112.663 69.01L108.633 71.3349L112.663 73.6621Z" fill="white"/>
<path d="M107.686 76.5332L111.717 74.2082L107.686 71.8811L103.658 74.2082L107.686 76.5332Z" fill="white"/>
<path d="M102.708 79.4082L106.736 77.0832L102.708 74.7561L98.6801 77.0832L102.708 79.4082Z" fill="white"/>
<path d="M97.7317 82.2812L101.76 79.9563L97.7317 77.6314L93.7013 79.9563L97.7317 82.2812Z" fill="white"/>
<path d="M92.7529 85.1543L96.7832 82.8271L92.7529 80.5022L88.7248 82.8271L92.7529 85.1543Z" fill="white"/>
<path d="M87.7766 88.0293L91.8047 85.7021L87.7766 83.3749L83.7462 85.7021L87.7766 88.0293Z" fill="white"/>
<path d="M82.802 90.9023L86.8301 88.5774L82.802 86.2502L78.7716 88.5774L82.802 90.9023Z" fill="white"/>
<path d="M77.8212 93.7773L81.8516 91.4501L77.8212 89.1229L73.7931 91.4501L77.8212 93.7773Z" fill="white"/>
<path d="M72.8469 96.6484L76.875 94.3235L72.8469 91.9986L68.8166 94.3235L72.8469 96.6484Z" fill="white"/>
<path d="M67.8681 99.5215L71.8984 97.1965L67.8703 94.8716L63.84 97.1965L67.8681 99.5215Z" fill="white"/>
<path d="M62.8915 102.398L66.9219 100.071L62.8915 97.7441L58.8634 100.071L62.8915 102.398Z" fill="white"/>
<path d="M57.913 105.271L61.9434 102.944L57.913 100.619L53.8827 102.944L57.913 105.271Z" fill="#5D7280"/>
<path d="M52.9342 108.145L61.9434 102.943L57.913 100.618L48.9061 105.817L52.9342 108.145Z" fill="white"/>
<path d="M117.642 76.5332L121.67 74.2082L117.642 71.8811L113.611 74.2082L117.642 76.5332Z" fill="white"/>
<path d="M112.661 79.4082L116.691 77.0832L112.663 74.7561L108.633 77.0832L112.661 79.4082Z" fill="white"/>
<path d="M107.686 82.2812L111.717 79.9563L107.686 77.6314L103.658 79.9563L107.686 82.2812Z" fill="white"/>
<path d="M102.708 85.1543L106.736 82.8271L102.708 80.5022L98.6779 82.8271L102.708 85.1543Z" fill="white"/>
<path d="M97.7294 88.0293L101.76 85.7021L97.7317 83.3749L93.7013 85.7021L97.7294 88.0293Z" fill="white"/>
<path d="M92.7529 90.9023L96.7832 88.5751L92.7529 86.2502L88.7248 88.5774L92.7529 90.9023Z" fill="white"/>
<path d="M87.7766 93.7773L91.8047 91.4501L87.7766 89.1229L83.7462 91.4501L87.7766 93.7773Z" fill="white"/>
<path d="M82.7997 96.6484L86.8301 94.3235L82.7997 91.9963L78.7716 94.3235L82.7997 96.6484Z" fill="white"/>
<path d="M77.8212 99.5215L81.8516 97.1965L77.8212 94.8716L73.7931 97.1965L77.8212 99.5215Z" fill="white"/>
<path d="M72.8469 102.398L76.875 100.071L72.8469 97.7441L68.8166 100.071L72.8469 102.398Z" fill="white"/>
<path d="M67.8681 105.271L71.8984 102.944L67.8681 100.619L63.84 102.944L67.8681 105.271Z" fill="white"/>
<path d="M62.8915 108.145L66.9219 105.815L62.8915 103.49L58.8634 105.817L62.8915 108.145Z" fill="white"/>
<path d="M57.913 111.018L61.9434 108.693L57.913 106.365L53.8827 108.693L57.913 111.018Z" fill="white"/>
<path d="M122.618 79.4082L126.648 77.0832L122.618 74.7538L118.59 77.0832L122.618 79.4082Z" fill="white"/>
<path d="M117.642 82.2812L121.67 79.9563L117.642 77.6314L113.611 79.9563L117.642 82.2812Z" fill="white"/>
<path d="M112.661 85.1543L116.691 82.8271L112.661 80.5022L108.633 82.8271L112.661 85.1543Z" fill="white"/>
<path d="M107.685 88.0293L111.713 85.7021L107.685 83.3749L103.657 85.7021L107.685 88.0293Z" fill="white"/>
<path d="M87.7764 99.5215L106.736 88.5749L102.708 86.2499L83.746 97.1965L87.7764 99.5215Z" fill="white"/>
<path d="M97.7294 93.7773L101.76 91.4501L97.7294 89.1229L93.7013 91.4501L97.7294 93.7773Z" fill="white"/>
<path d="M92.7532 96.6484L96.7812 94.3235L92.7532 91.9963L88.7251 94.3235L92.7532 96.6484Z" fill="white"/>
<path d="M87.7766 99.5215L91.8047 97.1965L87.7766 94.8716L83.7462 97.1965L87.7766 99.5215Z" fill="white"/>
<path d="M82.7997 102.396L86.8301 100.072L82.7997 97.7444L78.7716 100.072L82.7997 102.396Z" fill="white"/>
<path d="M77.8235 105.271L81.8516 102.944L77.8235 100.619L73.7954 102.944L77.8235 105.271Z" fill="white"/>
<path d="M72.8469 108.145L76.875 105.815L72.8469 103.49L68.8166 105.815L72.8469 108.145Z" fill="white"/>
<path d="M67.8681 111.018L71.8984 108.693L67.8681 106.365L63.84 108.693L67.8681 111.018Z" fill="white"/>
<path d="M62.8899 113.891L66.918 111.566L62.8899 109.239L58.8618 111.566L62.8899 113.891Z" fill="white"/>
<path d="M103.552 111.247L122.066 100.557C122.998 100.019 122.881 99.0792 121.806 98.4596L111.939 92.7622C110.864 92.1427 109.238 92.0751 108.307 92.6135L89.7934 103.301C88.863 103.839 88.9779 104.779 90.0548 105.401L99.92 111.096C100.995 111.718 102.621 111.783 103.552 111.247Z" fill="#E9A857"/>
<path d="M28.0006 41.4799L99.844 0.00038147L102.852 1.73732L31.0082 43.2168L28.0006 41.4799Z" fill="#FFDDB7"/>
<path d="M28.0003 98.431V41.4767L31.0078 43.2136V100.168L28.0003 98.431Z" fill="#F4A658"/>
<path d="M31.0082 100.168L102.852 58.6885V1.73417L31.0082 43.2136V100.168Z" fill="#FDCE9A"/>
<path d="M33.1717 44.2138V96.6602L100.674 57.6881V5.2395L33.1717 44.2138Z" fill="#F6F6F9"/>
<path d="M75.4173 72.2715L100.688 57.682V5.2402L75.4173 19.8296V72.2715Z" fill="#FF9D00"/>
<path d="M45.9197 76.2285L60.5723 67.7691V50.8502L45.9197 59.3096V76.2285Z" fill="#996B3E"/>
<path d="M52.2487 72.5742L54.2402 71.423V54.5064L52.2487 55.6553V72.5742Z" fill="#AEB2F4"/>
<path d="M45.9197 66.6201V68.918L60.5723 60.4585V58.1606L45.9197 66.6201Z" fill="#AEB2F4"/>
<path d="M43.3802 49.9062L64.6426 37.6282V34.1003L43.3802 46.3761V49.9062Z" fill="#D7DAFF"/>
<path d="M54.0114 49.7832L64.6426 43.6464V40.1185L54.0114 46.2552V49.7832Z" fill="#D7DAFF"/>
<path d="M42.9795 57.261C42.9795 59.1353 44.2974 64.7247 45.9194 63.7875C47.5438 62.8503 48.8594 55.7403 48.8594 53.8659C48.8594 51.9916 47.5438 51.2323 45.9194 52.1695C44.2974 53.1067 42.9795 55.3866 42.9795 57.261Z" fill="#ED484F"/>
<path d="M43.698 56.799C43.698 58.2138 44.6915 58.7882 45.9193 58.0786C47.1471 57.3712 48.1406 55.6478 48.1406 54.233C48.1406 52.8159 47.1471 52.2414 45.9193 52.9511C44.6915 53.6585 43.698 55.3819 43.698 56.799Z" fill="#D7DAFF"/>
<path d="M83.1445 27.3507C83.1445 29.0268 83.7731 30.1825 84.7891 30.6106V30.6399C85.6362 31.0364 86.7874 30.9102 88.0467 30.1825C89.3083 29.4549 90.4573 28.2541 91.3088 26.8753V26.846C92.3204 25.2465 92.9512 23.3654 92.9512 21.6893C92.9512 18.5556 90.7614 17.2917 88.0467 18.8574C85.3365 20.4232 83.1445 24.2192 83.1445 27.3507Z" fill="#2200FF"/>
<path d="M86.4059 24.3309C86.4059 25.383 87.1425 25.8088 88.0504 25.2816C88.9606 24.7567 89.6973 23.4816 89.6973 22.4318C89.6973 21.3797 88.9606 20.9539 88.0504 21.4811C87.1425 22.006 86.4059 23.2834 86.4059 24.3309Z" fill="#D7DAFF"/>
<path d="M84.7869 30.6106V30.6399C85.634 31.0364 86.7852 30.9102 88.0445 30.1825C89.3061 29.4549 90.4551 28.2541 91.3066 26.8753V26.846C90.7299 25.7219 89.4976 25.4222 88.0445 26.2603C86.5937 27.0984 85.3614 28.8218 84.7869 30.6106Z" fill="#D7DAFF"/>
<path d="M79.845 41.1836L96.248 31.7149V28.7929L79.845 38.2617V41.1836Z" fill="#4199E8"/>
<path d="M79.845 46.416L96.248 36.9473V34.0253L79.845 43.4941V46.416Z" fill="#4199E8"/>
<path d="M84.7451 49.9602L91.3482 46.1484C91.9542 45.797 92.4453 44.8598 92.4453 44.0533C92.4453 43.2467 91.9542 42.875 91.3482 43.2265L84.7451 47.0383C84.139 47.3875 83.6479 48.3247 83.6479 49.1312C83.6479 49.94 84.139 50.3094 84.7451 49.9602Z" fill="#ED484F"/>
<path d="M80.889 58.5781L95.2148 50.3079V49.5735L80.889 57.8437V58.5781Z" fill="#3B4951"/>
<path d="M80.889 60.3867L95.2148 52.1165V51.3821L80.889 59.6523V60.3867Z" fill="#3B4951"/>
<path d="M80.889 62.1973L95.2148 53.9271V53.1926L80.889 61.4628V62.1973Z" fill="#3B4951"/>
<path d="M86.6923 60.6562L95.2148 55.736V55.0038L86.6923 59.9241V60.6562Z" fill="#3B4951"/>
<path d="M44.0594 81.8184L62.4336 71.2097V70.0405L44.0594 80.6491V81.8184Z" fill="#D7DAFF"/>
<path d="M44.0594 84.0469L62.4336 73.4382V72.269L44.0594 82.8799V84.0469Z" fill="#D7DAFF"/>
<path d="M50.2997 82.6699L62.4336 75.6658V74.4966L50.2997 81.5007V82.6699Z" fill="#D7DAFF"/>
<path d="M71.2544 74.6758L75.4199 72.272L71.2544 74.6758ZM33.1745 44.215L49.8028 34.6134L33.1745 44.215Z" fill="#CED1F8"/>
<path d="M59.9324 68.1387L60.5723 67.7692V50.8503L48.283 57.9468C48.0667 58.9651 47.7986 60.0217 47.49 60.9566L51.6104 63.3356L52.2502 62.9639V55.6556L54.2418 54.5067V61.8149L60.5723 58.1608V60.4587L54.2418 64.1128V64.854L59.9324 68.1387Z" fill="#C2A68B"/>
<path d="M54.2402 64.8555V64.1143L53.5982 64.486L54.2402 64.8555ZM52.2487 62.9653L54.2402 61.8164V54.5081L52.2487 55.6571V62.9653Z" fill="#CED1F8"/>
<path d="M53.5997 64.4844L54.2418 64.1126L60.5723 60.4585V58.1606L54.2418 61.8148L52.2502 62.9637L51.6104 63.3354L53.5997 64.4844Z" fill="#CED1F8"/>
<path d="M43.3798 49.9062L59.8301 40.4083L56.7752 38.642L43.3798 46.3761V49.9062Z" fill="#E7E9FF"/>
<path d="M54.0114 49.7832L64.6426 43.6464V43.1914L61.9842 41.6527L54.0114 46.2552V49.7832Z" fill="#E7E9FF"/>
<path d="M47.4897 60.957C47.7983 60.0221 48.0664 58.9655 48.2827 57.9472C48.6454 56.2328 48.8594 54.622 48.8594 53.8651C48.8594 52.5359 48.197 51.7676 47.2328 51.7676C46.8386 51.7676 46.3925 51.8961 45.9194 52.1687C44.2974 53.1058 42.9795 55.3857 42.9795 57.2601C42.9795 57.562 43.0132 57.9585 43.0763 58.409L47.4897 60.957ZM46.9107 52.6463C47.6406 52.6463 48.1407 53.2275 48.1407 54.2323C48.1407 55.6471 47.1473 57.3705 45.9194 58.0779C45.5635 58.2851 45.2255 58.382 44.9282 58.382C44.1982 58.382 43.6981 57.8008 43.6981 56.7983C43.6981 55.3812 44.6916 53.6578 45.9194 52.9504C46.2754 52.7431 46.6133 52.6463 46.9107 52.6463Z" fill="#F49195"/>
<path d="M44.9281 58.3828C45.2254 58.3828 45.5634 58.2859 45.9193 58.0787C47.1471 57.3713 48.1406 55.6479 48.1406 54.2331C48.1406 53.2283 47.6405 52.6471 46.9106 52.6471C46.6132 52.6471 46.2753 52.7439 45.9193 52.9512C44.6915 53.6586 43.698 55.382 43.698 56.7991C43.698 57.8016 44.1981 58.3828 44.9281 58.3828Z" fill="#E7E9FF"/>
<path d="M80.8915 58.5781L86.082 55.5819L85.4467 55.2146L80.8915 57.8437V58.5781Z" fill="#899297"/>
<path d="M80.8902 60.3867L87.6465 56.487L87.0112 56.1198L80.8902 59.6523V60.3867Z" fill="#899297"/>
<path d="M80.8908 62.1973L89.2129 57.3942L88.5776 57.027L80.8908 61.4628V62.1973Z" fill="#899297"/>
<path d="M86.6929 60.6562L90.7773 58.2975L90.1421 57.9325L86.6929 59.9241V60.6562Z" fill="#899297"/>
</svg>
